<svg width="154" height="150" viewBox="0 0 154 150" fill="none" xmlns="http://www.w3.org/2000/svg">
<path opacity="0.6" d="M148.18 50.3031C159.488 81.066 150.318 116.003 124.347 135.937C99.2271 155.218 64.6135 152.468 38.2247 134.68C12.0181 117.015 -2.95705 86.0595 5.31119 55.696C13.8742 24.25 42.0888 2.03517 74.6629 0.803837C107.297 -0.429778 136.909 19.6436 148.18 50.3031Z" stroke="#FFA929" stroke-width="1.5"/>
<path d="M41.7348 95H68.8388C69.3428 95 69.5668 94.72 69.5668 94.272V91.808C69.5668 91.304 69.3428 91.08 68.8388 91.08H45.3748V83.296C45.3748 79.88 46.8868 78.312 50.3028 78.312H59.9908C66.2628 78.312 69.0068 75.624 69.0068 69.296V64.536C69.0068 58.264 66.2628 55.52 59.9908 55.52H51.4228C45.1508 55.52 42.4068 58.264 42.4068 64.536V66.832C42.4068 67.28 42.6868 67.56 43.1348 67.56H45.9908C46.4948 67.56 46.7748 67.28 46.7748 66.832V64.424C46.7748 60.952 48.2868 59.44 51.7028 59.44H59.7108C63.1268 59.44 64.6948 60.952 64.6948 64.424V69.464C64.6948 72.88 63.1268 74.392 59.7108 74.392H50.0228C43.7508 74.392 41.0068 77.136 41.0068 83.464V94.272C41.0068 94.72 41.2868 95 41.7348 95ZM88.6519 95.28H100.692C106.796 95.28 110.044 92.032 110.044 85.984V64.816C110.044 58.712 106.796 55.52 100.692 55.52H88.6519C82.6039 55.52 79.3559 58.712 79.3559 64.816V85.984C79.3559 92.032 82.6039 95.28 88.6519 95.28ZM89.0439 91.36C85.5159 91.36 83.7239 89.512 83.7239 86.04V64.76C83.7239 61.232 85.5159 59.44 89.0439 59.44H100.356C103.884 59.44 105.676 61.232 105.676 64.76V86.04C105.676 89.512 103.884 91.36 100.356 91.36H89.0439Z" fill="#FFA929"/>
</svg>
