<svg width="133" height="130" viewBox="0 0 133 130" fill="none" xmlns="http://www.w3.org/2000/svg">
<path opacity="0.6" d="M104.416 13.1409C119.766 23.6245 128.309 40.8106 130.98 59.4469C133.823 79.285 132.716 100.712 119.032 114.775C105.158 129.035 83.8373 130.629 63.8313 128.457C43.4792 126.247 23.0446 119.927 11.6577 103.093C-0.338789 85.3582 -2.44588 62.1374 5.36613 42.1309C12.8685 22.9173 30.5071 10.075 50.2739 4.28601C68.7412 -1.12235 88.4752 2.25293 104.416 13.1409Z" stroke="#00DB2C" stroke-width="1.5"/>
<path d="M46.7796 82H49.3236C49.8516 82 50.0916 81.808 50.2356 81.376L62.5716 52.576C62.7636 52.144 62.8596 51.808 62.8596 51.232V49.024C62.8596 48.592 62.6196 48.4 62.1876 48.4H40.2996C39.9156 48.4 39.6756 48.592 39.6756 49.024V56.656C39.6756 57.04 39.9156 57.28 40.2996 57.28H42.7476C43.1796 57.28 43.4196 57.04 43.4196 56.656V51.952H58.7316L46.2996 81.04C46.0596 81.616 46.2036 82 46.7796 82ZM76.6218 82.24H84.9258C90.3018 82.24 92.6538 79.888 92.6538 74.512V69.232C92.6538 63.808 90.3018 61.456 84.9258 61.456H78.0138C75.4698 61.456 73.9818 62.272 73.3578 63.376H73.1178V51.76H90.2058C90.6378 51.76 90.8778 51.52 90.8778 51.136V49.024C90.8778 48.592 90.6378 48.4 90.2058 48.4H69.9978C69.6138 48.4 69.3738 48.592 69.3738 49.024V66.592C69.3738 67.024 69.6138 67.216 69.9978 67.216H72.3978C72.9738 67.216 73.1178 67.024 73.3578 66.544C73.7418 65.632 74.7018 64.816 76.7657 64.816H84.6858C87.6138 64.816 88.9578 66.16 88.9578 69.088V74.608C88.9578 77.536 87.6138 78.88 84.6858 78.88H76.8618C73.9338 78.88 72.6378 77.536 72.6378 74.608V73.168C72.6378 72.736 72.3978 72.496 71.9658 72.496H69.5178C69.1338 72.496 68.8938 72.736 68.8938 73.168V74.512C68.8938 79.888 71.2458 82.24 76.6218 82.24Z" fill="#00DB2C"/>
</svg>
