<svg width="105" height="102" viewBox="0 0 105 102" fill="none" xmlns="http://www.w3.org/2000/svg">
<path opacity="0.6" d="M82.3008 10.2375C94.3697 18.4807 101.083 31.9905 103.181 46.6304C105.413 62.2011 104.549 79.0501 93.7823 90.1161C82.866 101.336 66.0995 102.582 50.3977 100.877C34.4225 99.1427 18.3548 94.1795 9.39776 80.938C-0.032039 66.9975 -1.68726 48.7474 4.45217 33.0244C10.3514 17.9166 24.2175 7.8254 39.7451 3.27797C54.2611 -0.973219 69.772 1.68019 82.3008 10.2375Z" stroke="white"/>
<path d="M47.5702 59.76H42.7382V40.016C42.7382 39.728 42.5782 39.6 42.2902 39.6H36.0182C35.7622 39.6 35.6022 39.728 35.6022 40.016V41.424C35.6022 41.68 35.7622 41.84 36.0182 41.84H40.2422V59.76H35.2182C34.9622 59.76 34.8022 59.888 34.8022 60.176V61.584C34.8022 61.84 34.9622 62 35.2182 62H47.5702C47.8582 62 48.0182 61.84 48.0182 61.584V60.176C48.0182 59.888 47.8582 59.76 47.5702 59.76ZM56.9992 62.16H63.8792C67.3672 62.16 69.2232 60.304 69.2232 56.848V44.752C69.2232 41.264 67.3672 39.44 63.8792 39.44H56.9992C53.5432 39.44 51.6872 41.264 51.6872 44.752V56.848C51.6872 60.304 53.5432 62.16 56.9992 62.16ZM57.2232 59.92C55.2072 59.92 54.1832 58.864 54.1832 56.88V44.72C54.1832 42.704 55.2072 41.68 57.2232 41.68H63.6872C65.7032 41.68 66.7272 42.704 66.7272 44.72V56.88C66.7272 58.864 65.7032 59.92 63.6872 59.92H57.2232Z" fill="white"/>
</svg>
