<svg width="175" height="172" viewBox="0 0 175 172" fill="none" xmlns="http://www.w3.org/2000/svg">
<path opacity="0.6" d="M99.9758 1.44487C124.683 4.75302 142.416 24.9641 155.317 46.7112C168.284 68.5695 176.764 93.592 168.665 117.289C160.166 142.156 139.17 161.395 113.762 168.55C89.2939 175.441 63.9474 167.042 42.6909 152.687C21.5117 138.384 3.44571 118.166 1.93065 93.072C0.447666 68.5088 16.987 47.8251 35.3527 30.6626C53.7123 13.5058 75.51 -1.83096 99.9758 1.44487Z" stroke="#D51287" stroke-width="2"/>
<path d="M80.8833 120.476H97.3636C108.033 120.476 112.701 115.808 112.701 105.139V94.6604C112.701 83.8959 108.033 79.2281 97.3636 79.2281H83.6459C78.5971 79.2281 75.6439 80.8475 74.4055 83.0385H73.9292V59.9852H107.842C108.7 59.9852 109.176 59.5089 109.176 58.7468V54.5553C109.176 53.698 108.7 53.3169 107.842 53.3169H67.7372C66.9751 53.3169 66.4988 53.698 66.4988 54.5553V89.421C66.4988 90.2784 66.9751 90.6594 67.7372 90.6594H72.5003C73.6435 90.6594 73.9292 90.2784 74.4055 89.3258C75.1676 87.5158 77.0729 85.8964 81.1691 85.8964H96.8873C102.698 85.8964 105.366 88.5637 105.366 94.3746V105.33C105.366 111.141 102.698 113.808 96.8873 113.808H81.3596C75.5487 113.808 72.9766 111.141 72.9766 105.33V102.472C72.9766 101.615 72.5003 101.138 71.643 101.138H66.7846C66.0225 101.138 65.5462 101.615 65.5462 102.472V105.139C65.5462 115.808 70.214 120.476 80.8833 120.476Z" fill="#D51287"/>
</svg>
