<svg width="13" height="13" viewBox="0 0 13 13" fill="none" xmlns="http://www.w3.org/2000/svg">
<path fill-rule="evenodd" clip-rule="evenodd" d="M5.14924 2.56186C5.11442 2.35525 5.08819 2.15099 5.07124 1.9467C5.04571 1.64027 5.06149 1.3315 5.05244 1.02507C5.04849 0.895071 5.03294 0.556147 5.03921 0.507397C5.09608 0.0825758 5.43895 0.0175679 5.53924 0.00596074C5.58776 -0.00100355 6.08593 -0.0566929 6.19342 0.495807C6.32527 1.17134 6.36753 1.85151 6.32087 2.51776C6.42974 3.08419 6.61592 3.64829 6.86176 4.159C7.84001 6.19025 9.70411 6.38758 11.7238 6.369C12.0344 6.36436 12.2923 6.60811 12.3085 6.91686C12.3248 7.22793 12.0936 7.49721 11.7844 7.52507C10.6554 7.63418 8.6525 8.53955 7.96002 9.48205C7.81516 9.67937 7.7309 10.1553 7.61947 10.6219C7.46394 11.2696 7.27892 11.9103 7.07162 12.1795C7.04051 12.2213 6.66234 12.6485 6.54952 12.7112C6.27838 12.8597 6.06133 12.7738 5.93806 12.6949C5.8148 12.616 5.67528 12.4604 5.61956 12.2028C5.56129 11.9335 5.61051 11.381 5.60145 11.2626C5.56849 10.8331 5.4826 9.99043 5.30734 9.26614C5.21285 8.87614 5.1121 8.51632 4.94542 8.33757C4.32839 7.67596 3.34178 7.77347 2.51094 7.88258C2.41553 7.89419 2.32012 7.90812 2.22494 7.91973C1.88671 8.01955 1.52757 8.09382 1.14802 8.13793C0.574861 8.20525 0.480617 7.67829 0.47551 7.64347C0.464831 7.56686 0.425131 7.17222 0.857148 7.01437C0.904273 6.99812 1.25203 6.9215 1.38597 6.89133C1.57262 6.84954 1.76134 6.81705 1.95077 6.78687C3.90751 6.17866 4.97026 4.47007 5.14924 2.56186ZM5.82083 4.67205C6.55951 6.19955 7.68052 6.93776 9.00931 7.27204H9.00908C8.1794 7.70615 7.4247 8.24938 7.02472 8.79491C6.8729 9.00152 6.73361 9.41704 6.60803 9.88365C6.54001 9.44954 6.44809 8.98757 6.32667 8.59292C6.18855 8.14257 6.00259 7.76884 5.79506 7.54598C5.39438 7.11652 4.89156 6.87741 4.3509 6.75902C4.99811 6.18562 5.48887 5.47063 5.82083 4.67205Z" fill="#C2E978"/>
</svg>
