<svg width="389" height="207" viewBox="0 0 389 207" fill="none" xmlns="http://www.w3.org/2000/svg">
<path d="M313.505 108.078C316.12 107.591 318.625 107.639 320.815 109.078C323.83 111.053 326.434 113.448 327.66 117.025C329.338 121.912 331.09 126.76 332.319 131.773C332.825 133.718 332.719 135.772 332.014 137.652C331.353 139.505 330.54 141.3 329.583 143.019C329.135 143.816 328.703 144.629 328.243 145.463C328.772 145.602 329.322 145.643 329.865 145.582C332.135 145.597 334.41 145.608 336.439 146.89C336.636 146.973 336.845 147.03 337.057 147.058C337.977 147.267 338.835 147.687 339.564 148.286C340.293 148.884 340.873 149.645 341.258 150.507C342.264 152.446 343.007 154.511 343.468 156.646C344.149 160.36 345.069 164.051 344.902 167.857C344.712 172.215 342.993 176.006 340.463 179.472C340.057 180.036 339.375 180.253 338.833 180.826C339.361 180.805 339.89 180.82 340.416 180.871C341.404 181.041 342.343 181.423 343.168 181.992C343.994 182.56 344.687 183.301 345.198 184.164C346.078 185.65 346.652 187.297 346.885 189.007C347.585 193.067 347.913 197.182 347.864 201.3C347.799 208.1 344.96 213.759 340.221 218.531C338.972 219.794 337.701 221.046 336.493 222.343C334.903 224.058 332.879 225.181 331 226.493C325.232 230.507 319.362 234.37 313.614 238.42C309.081 241.576 304.415 244.535 299.634 247.305C290.696 252.502 281.313 256.792 271.998 261.225C267.808 263.217 263.643 265.258 259.398 267.114C256.396 268.451 253.303 269.572 250.142 270.47C248.923 270.779 247.675 270.956 246.418 270.999C241.571 271.342 236.768 272.145 232.073 273.394C227.437 274.549 222.717 275.381 218.234 277.127C212.226 279.414 206.632 282.666 201.672 286.755C200.552 287.685 199.657 288.865 198.304 289.558C197.882 289.779 197.968 290.063 198.195 290.452C198.987 291.628 199.605 292.912 200.029 294.265C200.313 295.358 200.399 296.462 199.627 297.429C199.551 297.523 199.449 297.655 199.466 297.747C199.715 299.101 198.616 299.669 197.889 300.44C196.142 302.301 194.157 303.903 192.296 305.636C191.822 306.071 191.906 306.262 192.239 306.838C193.689 309.352 195.157 311.872 195.389 314.892C195.525 316.251 195.311 317.623 194.766 318.875C194.222 320.127 193.366 321.218 192.279 322.044C186.409 326.83 180.111 331.066 174.412 336.09C167.114 342.468 159.683 348.681 152.204 354.848C150.528 356.234 148.75 357.501 147.032 358.838C146.93 358.941 146.791 358.999 146.646 359.001C146.501 359.002 146.361 358.947 146.256 358.846C139.524 354.004 133.092 348.857 128.308 341.941C127.052 340.233 125.892 338.456 124.834 336.619C124.051 335.054 123.416 333.419 122.939 331.736C122.735 331.108 123.067 330.833 123.463 330.517C123.974 330.108 124.154 330.615 124.418 330.852C125.269 331.657 126.064 332.506 126.96 333.263C127.357 333.618 127.97 334.133 128.403 333.664C128.836 333.195 128.302 332.607 127.881 332.265C124.883 329.804 122.802 326.62 120.819 323.354C120.237 322.393 120.216 321.326 119.93 320.272C119.916 320.228 119.912 320.181 119.918 320.135C119.924 320.09 119.94 320.046 119.965 320.006C119.99 319.967 120.023 319.934 120.062 319.909C120.101 319.884 120.145 319.868 120.191 319.862C120.361 319.792 120.546 319.768 120.728 319.794C120.91 319.819 121.082 319.893 121.226 320.007C122.686 321.305 124.207 322.571 125.7 323.844C125.746 323.887 125.788 323.933 125.827 323.981C126.251 324.493 126.886 324.723 127.348 324.309C127.81 323.895 127.409 323.324 127.018 322.92C125.048 320.826 123.109 318.763 121.2 316.591C119.177 314.307 118.355 311.667 117.445 308.768C110.676 287.312 89.098 267.245 88.9121 267.069C86.5472 264.698 84.1944 262.321 81.8295 259.95C79.786 257.895 77.4981 256.148 75.5791 253.973C74.0729 252.224 72.7806 250.302 71.7296 248.247C71.5851 247.971 71.5085 247.69 71.1006 247.701C70.3248 247.709 70.234 247.178 70.2931 246.561C70.3456 246.022 70.5195 245.502 70.8018 245.04C71.0841 244.579 71.4674 244.187 71.9229 243.895C77.7892 239.861 83.6681 235.837 89.7863 232.195C96.1088 228.407 102.288 224.404 108.384 220.258C110.489 218.827 112.639 217.467 114.677 215.892C115.358 215.435 116.179 215.236 116.995 215.33C117.81 215.424 118.565 215.805 119.126 216.405C119.468 216.789 119.687 216.807 120.107 216.595C123.952 214.54 127.67 212.253 131.239 209.748C131.857 209.261 132.526 208.84 133.233 208.493C133.779 208.285 134.544 207.72 135.311 208.335C135.785 208.703 137.163 208.669 138.342 207.942C139.521 207.215 151.362 199.787 153.612 197.709C156.534 195.023 159.959 192.596 161.727 188.974C162.877 186.651 163.523 184.111 163.625 181.519C163.832 174.855 164.454 168.209 164.539 161.508C164.702 150.664 164.545 139.823 163.966 128.993C163.786 126.588 163.826 124.172 164.085 121.774C164.275 120.339 164.575 118.92 164.982 117.531C166.29 112.939 167.825 108.455 169.535 104.005C172.175 96.978 173.958 89.6565 174.844 82.1993C175.283 78.7191 175.555 75.2327 175.92 71.7446C176.561 64.6622 175.89 57.5203 173.941 50.6781C173.004 47.1764 172.1 43.6649 171.062 40.193C170.546 38.4632 169.667 36.8451 169.12 35.1159C166.728 27.5712 170.993 22.9074 174.879 21.63C178.052 20.5851 181.217 20.9981 184.347 21.8356C188.485 22.8455 192.317 24.8469 195.513 27.6674C200.342 32.1227 204.794 36.8696 207.877 42.7863C209.281 45.4655 209.978 48.4206 211.008 51.249C214.6 61.0867 214.118 71.0356 212.031 81.0506C211.163 85.2009 210.199 89.3312 210.016 93.5835C209.765 97.7505 210.813 101.895 213.015 105.443C213.156 105.732 213.367 105.98 213.629 106.165C213.891 106.35 214.195 106.466 214.513 106.502C215.086 106.569 215.655 106.732 216.251 106.842C217.564 107.018 218.899 106.866 220.138 106.4C226.437 104.578 232.022 101.184 237.772 98.1795C242.669 95.6148 247.665 93.4043 252.743 91.2913C255.384 90.1973 257.908 88.8672 260.462 87.5768C267.685 83.8815 275.436 81.3264 283.442 80.0016C285.534 79.6618 287.665 79.6356 289.766 79.9239C292.661 80.3176 295.508 81.0191 298.256 82.0164C302.192 83.4552 305.114 86.1749 307.306 89.6754C308.543 91.6212 309.851 93.5223 311.092 95.5051C313.24 98.9198 314.453 102.605 313.84 106.707C313.765 107.114 313.624 107.531 313.505 108.078ZM220.594 255.468C221.962 256.814 223.351 257.977 225.503 257.858C227.332 257.76 229.162 258.41 231.002 258.275C236.096 257.983 241.116 256.933 245.898 255.16C247.093 254.566 248.393 254.215 249.724 254.125C249.583 254.559 249.353 254.959 249.048 255.298C248.744 255.638 248.373 255.91 247.957 256.098C245.326 257.426 242.488 258.297 239.564 258.673C235.568 259.204 231.563 259.778 227.495 259.62C227.368 259.616 227.19 259.545 227.14 259.806C227.443 259.952 227.733 260.12 228.042 260.247C229.12 260.683 230.144 261.49 231.305 261.444C234.132 261.466 236.953 261.186 239.72 260.608C244.207 259.56 248.557 257.997 252.684 255.95C255.939 254.286 259.307 252.854 262.763 251.663C268.024 249.9 272.866 247.216 277.863 244.903C284.769 241.708 290.959 237.145 297.177 232.771C298.144 232.085 299.243 231.564 299.959 230.532C301.065 229.012 302.049 227.407 302.904 225.732C303.061 225.471 303.121 225.163 303.073 224.862C302.712 223.324 303.358 222.697 305.035 222.459L313.033 221.348C313.523 221.292 314.02 221.36 314.478 221.545C314.939 221.71 315.124 221.886 314.782 222.394C314.006 223.514 313.099 224.537 312.081 225.441C310.094 227.263 307.75 228.655 305.552 230.22C302.509 232.392 299.463 234.574 296.322 236.618C291.568 239.727 286.564 242.437 281.362 244.719C274.632 247.611 268.307 251.408 261.31 253.745C256.847 255.231 252.741 257.592 248.35 259.26C244.673 260.654 240.986 261.999 237.016 262.281C236.865 262.29 236.647 262.217 236.559 262.466C237.73 262.751 238.977 262.497 240.087 262.962C240.267 263.044 240.462 263.089 240.66 263.092C240.858 263.096 241.055 263.06 241.238 262.985C244.026 262.04 246.775 260.944 249.62 260.211C257.403 258.213 264.523 254.593 271.799 251.345C273.929 250.393 275.956 249.214 278.057 248.208C285.14 244.86 291.951 240.966 298.429 236.561C300.778 234.955 303.044 233.221 305.435 231.68C309.175 229.276 312.858 226.792 316.354 224.055C317.907 222.835 319.425 221.579 321.129 220.202C318.826 219.944 316.498 220.011 314.214 220.402C310.261 221.074 306.322 221.715 302.338 222.387C301.009 222.643 299.642 222.634 298.316 222.361C294.896 221.635 291.769 219.905 289.333 217.393C287.014 214.975 284.825 212.45 282.743 209.829C280.987 207.624 279.753 205.207 279.679 202.371C279.615 201.308 279.226 200.289 278.565 199.454C276.697 196.737 273.881 195.173 271.279 193.348C271.091 193.212 270.91 193.135 270.703 193.321C270.238 193.608 269.804 193.942 269.409 194.319C269.212 194.579 268.956 194.786 268.661 194.924C268.367 195.062 268.043 195.126 267.718 195.111C267.171 195.109 266.922 194.872 267 194.307C267.032 193.97 267.13 193.643 267.29 193.344C267.45 193.046 267.668 192.783 267.931 192.57C268.189 192.358 268.371 192.068 268.45 191.744C268.575 191.357 268.279 191.255 268.103 191.081C267.764 190.821 267.709 191.178 267.577 191.357L266.204 193.084C265.523 193.993 264.764 194.84 263.934 195.616C263.6 195.917 263.088 196.294 262.706 196.026C262.323 195.757 262.721 195.236 262.878 194.865C263.293 193.664 263.787 192.492 264.355 191.357C264.207 191.409 264.073 191.495 263.964 191.608L258.422 196.855C258.189 197.139 257.898 197.37 257.569 197.532C257.24 197.695 256.881 197.786 256.514 197.8C256.502 197.531 256.546 197.263 256.643 197.012C256.739 196.761 256.887 196.532 257.076 196.341C257.697 195.665 258.327 194.991 258.975 194.339C259.569 193.669 260.018 192.883 260.294 192.031C259.845 192.077 259.411 192.219 259.022 192.447C256.445 193.484 254.987 195.763 253.108 197.537C252.604 198.068 251.958 198.442 251.246 198.613C250.185 198.769 249.114 198.844 248.042 198.839C247.223 198.885 247.3 199.626 247.009 200.083C246.865 200.299 246.687 200.572 247.026 200.801C247.843 201.349 247.44 201.889 246.915 202.257C246.092 202.829 242.894 203.098 242.678 203.102C237.552 203.442 232.436 202.817 227.314 202.687C226.82 202.693 226.332 202.578 225.891 202.354C225.314 202.055 225.234 201.784 225.857 201.411C226.663 201.022 227.564 200.876 228.452 200.989C233.391 201.067 238.334 201.361 243.247 200.616C244.65 200.404 244.7 200.41 244.962 198.991C243.709 198.936 242.458 198.841 241.206 198.833C238.779 198.815 236.353 198.844 233.929 198.863C233.282 198.885 232.642 198.725 232.081 198.401C231.649 198.143 231.703 197.919 232.073 197.671C232.625 197.335 233.263 197.167 233.909 197.186C237.496 197.096 241.086 196.966 244.687 196.916C245.074 196.971 245.466 196.874 245.782 196.645C246.099 196.417 246.315 196.075 246.385 195.691C246.615 194.938 246.61 194.721 245.726 194.715C239.991 194.696 234.254 194.614 228.494 194.576C227.817 194.622 227.14 194.489 226.53 194.191C226.117 193.954 226.175 193.783 226.539 193.554C227.1 193.233 227.744 193.088 228.389 193.139C234.004 193.183 239.618 193.031 245.224 192.744C247.58 192.627 247.58 192.627 247.885 190.17C247.637 190.159 247.396 190.145 247.155 190.146L239.885 190.22C239.423 190.253 238.959 190.193 238.521 190.043C238.138 189.877 237.588 189.751 237.561 189.296C237.533 188.842 238.096 188.711 238.476 188.543C238.879 188.39 239.306 188.312 239.736 188.313L246.715 187.877C248.258 187.771 248.212 187.757 248.346 186.241C248.425 185.348 248.129 185.276 247.342 185.322C241.177 185.644 235.012 185.428 228.848 185.141C228.155 185.113 227.095 184.981 227.137 184.302C227.18 183.624 228.246 183.635 228.961 183.644C230.921 183.664 232.898 183.715 234.836 183.692C238.826 183.764 242.815 183.524 246.767 182.974C248.543 182.685 248.521 182.673 248.448 180.867C248.428 180.307 248.274 180.177 247.693 180.184C245.735 180.288 243.773 180.339 241.808 180.415C237.941 180.581 234.078 180.175 230.199 180.245C227.433 180.311 224.698 180.165 221.918 180.012C221.392 180.006 220.877 179.854 220.432 179.571C220.247 179.442 219.933 179.348 219.982 179.026C220.032 178.703 220.308 178.769 220.527 178.74C220.756 178.661 220.996 178.617 221.239 178.61C224.918 178.784 228.595 178.851 232.278 178.914C235.681 178.93 239.081 178.743 242.46 178.354C242.52 178.36 242.58 178.354 242.637 178.335C242.694 178.317 242.746 178.286 242.79 178.246C242.835 178.206 242.87 178.157 242.894 178.102C242.919 178.047 242.931 177.988 242.931 177.928C243.221 176.143 243.037 175.927 241.267 176.002C240.508 176.041 239.797 176.069 239.055 176.083C235.938 176.218 232.813 176.057 229.725 175.602C229.409 175.586 229.099 175.505 228.814 175.365C228.529 175.226 228.275 175.031 228.068 174.791C228.28 174.637 228.522 174.529 228.778 174.473C229.035 174.416 229.3 174.413 229.557 174.464C233.713 174.951 237.824 174.462 241.945 173.991C242.572 173.921 242.756 173.692 242.599 173.125C242.443 172.558 242.779 171.859 241.692 171.959C236.912 172.408 232.131 172.006 227.345 171.833C226.755 171.844 226.179 171.656 225.708 171.299C225.953 171.099 226.239 170.954 226.546 170.876C226.852 170.798 227.172 170.788 227.483 170.846C232.084 170.997 236.689 170.708 241.233 169.981C241.585 169.922 242.272 170.117 242.025 169.363C241.834 168.775 242.201 167.748 240.944 167.851C239.967 167.926 238.986 167.952 238.006 167.929C237.313 167.917 236.277 167.874 236.241 167.166C236.206 166.458 237.22 166.294 237.925 166.166C238.766 166.015 239.62 165.904 240.461 165.752C240.656 165.721 241.027 165.729 240.982 165.48C240.901 164.876 240.75 164.284 240.533 163.715C240.39 163.352 239.989 163.554 239.68 163.575C234.838 163.728 229.998 164.091 225.148 163.827C224.427 163.879 223.713 163.652 223.154 163.191C223.755 162.858 224.444 162.718 225.128 162.79C227.519 162.918 229.916 162.811 232.285 162.472C234.577 162.053 236.882 161.689 239.185 161.319C239.647 161.249 240.017 161.211 239.853 160.555C239.722 160.022 239.719 159.57 238.924 159.674C237.592 159.856 236.243 159.961 234.896 160.01C234.222 160.035 233.31 159.872 233.265 159.161C233.226 158.596 234.125 158.39 234.726 158.287C235.99 158.033 237.265 157.844 238.549 157.722C239.716 157.642 239.287 156.913 239.285 156.313C239.292 155.434 238.682 155.847 238.274 155.873C233.639 156.431 228.97 156.663 224.302 156.567C223.715 156.572 223.139 156.418 222.633 156.12C222.16 155.829 222.14 155.597 222.619 155.276C223.207 154.953 223.879 154.814 224.547 154.876C229.278 155.093 233.896 154.26 238.503 153.347C239.588 153.139 239.109 152.374 239.139 151.85C239.184 151.131 238.563 151.495 238.261 151.529C234.562 151.794 230.861 152.099 227.163 152.396C226.621 152.482 226.066 152.441 225.541 152.277C225.41 152.22 225.226 152.137 225.19 152.023C225.124 151.808 225.345 151.723 225.498 151.627C226.022 151.362 226.602 151.225 227.19 151.225C230.859 150.927 234.504 150.383 238.099 149.598C239.571 149.295 239.685 149.111 239.611 147.555C237.124 147.96 234.618 148.163 232.115 148.403C231.449 148.471 230.442 148.499 230.349 147.891C230.257 147.283 231.228 147.11 231.868 146.978C234.129 146.529 236.329 145.876 238.53 145.208C239.327 145.064 240.091 144.778 240.786 144.362L239.895 143.735C239.208 143.227 238.56 142.809 237.818 143.729C237.456 144.02 237.011 144.188 236.547 144.207C233.551 144.8 230.504 144.731 227.473 144.827C227.197 144.843 226.92 144.795 226.665 144.686C226.41 144.576 226.184 144.409 226.005 144.197C229.545 143.7 233.032 142.881 236.422 141.749C236.173 141.344 235.804 141.029 235.365 140.847C234.927 140.665 234.442 140.627 233.981 140.738C230.921 141.352 227.811 141.689 224.689 141.745C224.169 141.823 223.639 141.706 223.199 141.417C224.628 140.035 226.627 140.277 228.231 139.468C229.835 138.659 231.827 138.679 233.807 138.306C233.356 137.98 233.419 137.267 232.803 137.386C231.06 137.737 229.263 137.506 227.516 137.851C227.214 137.899 226.904 137.886 226.607 137.811C226.206 137.716 225.599 137.659 225.587 137.205C225.575 136.75 226.149 136.566 226.565 136.497C227.859 136.233 229.113 135.805 230.297 135.222C230.825 134.987 231.403 134.888 231.979 134.935C231.871 134.117 231.789 133.409 230.616 133.821C230.249 133.899 229.871 133.899 229.504 133.822C229.137 133.745 228.791 133.592 228.486 133.373C227.708 132.945 227.572 132.446 228.089 131.722C228.372 131.318 228.756 130.994 229.202 130.784C229.649 130.573 230.143 130.483 230.635 130.521C230.87 130.523 231.236 130.746 231.204 130.223C231.181 129.837 230.928 129.845 230.612 129.838C229.109 129.8 227.606 129.927 226.131 130.216C224.364 130.627 222.542 130.745 220.736 130.565C220.382 130.55 220.035 130.457 219.721 130.292C219.406 130.127 219.132 129.894 218.919 129.611C219.114 129.433 219.345 129.298 219.597 129.216C219.848 129.134 220.115 129.107 220.378 129.136C221.789 129.089 223.184 128.815 224.508 128.324C226.393 127.649 228.281 126.996 230.325 127.145C230.647 127.164 230.914 127.227 230.951 126.746C230.988 126.266 230.703 126.274 230.397 126.255C229.435 126.049 228.445 126.007 227.47 126.132C226.552 126.194 225.631 126.153 224.722 126.008C224.425 125.977 224.03 125.848 223.978 125.555C223.925 125.262 224.235 124.959 224.515 124.765C224.661 124.65 224.827 124.563 225.005 124.509C225.97 124.211 226.897 123.802 227.767 123.289C228.452 122.93 229.457 123.091 229.896 122.603C230.335 122.116 229.962 121.061 230.299 120.306C230.33 120.29 230.251 120.214 230.24 120.103C229.782 120.272 229.325 120.457 228.861 120.598C227.821 120.964 226.732 121.174 225.63 121.22C225.385 121.215 225.149 121.124 224.963 120.963C224.778 120.801 224.654 120.58 224.615 120.338C224.501 119.928 225.088 119.902 225.395 119.757C225.618 119.671 225.854 119.618 226.093 119.602C227.565 119.427 228.962 118.857 230.136 117.954C231.138 117.237 232.278 116.736 233.483 116.482C233.779 116.396 234.094 116.407 234.383 116.512C234.673 116.618 234.921 116.813 235.093 117.068C235.34 117.541 234.67 117.751 234.329 118.023C233.366 118.995 232.802 120.294 232.75 121.663C232.969 121.635 233.026 121.432 233.123 121.288C234.623 119.032 236.599 117.133 238.913 115.724C241.379 114.221 243.926 112.856 246.543 111.634C247.357 111.301 248.035 110.703 248.467 109.936C248.899 109.17 249.06 108.28 248.925 107.41C248.866 106.464 248.841 105.508 248.86 104.561C248.888 103.765 249.171 102.772 249.966 102.77C250.76 102.768 250.716 103.815 250.775 104.495C250.889 105.888 250.947 107.295 251.028 108.745C251.402 108.511 251.716 108.194 251.947 107.819C253.813 105.649 256.083 103.863 258.63 102.56C258.907 102.367 259.224 102.24 259.558 102.19C259.892 102.14 260.232 102.168 260.554 102.272C260.377 102.72 260.078 103.109 259.691 103.395C258.018 104.831 256.42 106.354 254.905 107.957C252.225 110.939 249.026 113.408 245.464 115.246C243.522 116.185 241.705 117.332 239.872 118.449C239.478 118.621 239.137 118.894 238.882 119.24C238.537 119.777 238.063 120.219 237.504 120.525C236.322 121.441 235.132 122.384 234.532 123.785C232.808 127.672 234.11 134.163 237.167 137.14C238.761 138.695 240.445 140.064 242.913 139.49C243.128 139.448 243.351 139.473 243.552 139.562C244.494 140.006 245.471 139.83 246.446 139.772C248.585 139.589 250.711 139.289 252.816 138.873C258.479 137.892 263.961 136.325 268.865 133.225C274.085 129.937 279.215 126.508 284.479 123.289C288.026 121.127 291.47 118.768 295.019 116.698C296.612 115.726 297.962 114.401 298.965 112.826C299.131 112.591 299.352 112.343 299.311 112.145C297.793 112.941 296.186 113.626 294.72 114.55C290.612 117.233 286.503 119.932 282.337 122.521C281.784 122.865 280.854 123.399 280.525 122.86C280.142 122.217 280.902 121.553 281.546 121.145C282.505 120.534 283.48 119.953 284.426 119.317C287.303 117.365 290.058 115.179 293.055 113.351C294.831 112.273 296.697 111.444 298.403 110.277C300.533 108.849 302.077 107.048 302.152 104.407C302.286 100.346 301.125 96.3459 298.838 92.9857C297.815 91.4572 296.501 90.1449 294.972 89.124C293.443 88.1031 291.728 87.3934 289.926 87.0356C289.594 86.9559 289.271 86.8393 288.964 86.6879C288.443 86.4374 288.552 86.1848 288.977 85.9388C289.545 85.621 290.206 85.5095 290.848 85.6232C293.349 85.92 295.789 86.6088 298.078 87.6643C298.708 87.8981 299.254 88.3136 299.648 88.8582C301.353 91.524 302.924 94.2739 304.353 97.0974C305.447 99.3057 306.639 101.463 306.53 104.098C307.687 103.492 308.442 102.73 308.385 101.4C308.359 100.695 308.354 99.9864 308.39 99.2801C308.416 98.4823 308.174 97.6985 307.7 97.0552C306.436 95.1626 305.266 93.2125 303.984 91.3295C302.091 88.335 299.182 86.124 295.793 85.1032C293.599 84.4013 291.35 83.8831 289.07 83.5542C287.731 83.3606 286.374 83.3415 285.031 83.4975C277.375 84.6258 269.932 86.8941 262.95 90.2271C260.56 91.3536 258.187 92.5108 255.803 93.6341C252.051 95.4043 248.077 96.6338 244.351 98.4685C238.095 101.55 231.958 104.858 225.592 107.716C224.572 108.051 223.597 108.509 222.688 109.08C221.391 110.119 219.879 110.552 218.4 111.123C217.729 111.368 217.011 111.459 216.3 111.389C215.588 111.32 214.902 111.092 214.29 110.721C213.23 110.157 212.283 109.404 211.495 108.498C209.537 106.151 208.136 103.39 207.398 100.424C206.446 96.6265 206.362 92.6642 207.153 88.8325C207.785 85.3767 208.598 81.9114 209.288 78.4483C210.635 71.6094 211.21 64.7691 209.486 57.89C208.947 55.7428 208.287 53.6349 207.597 51.5276C206.631 48.6114 205.751 45.6658 204.138 43.0027C201.24 38.3564 197.69 34.1508 193.596 30.5153C189.715 26.9774 185.024 25.1996 179.868 24.5722C178.522 24.4019 177.157 24.5206 175.862 24.9204C173.363 25.6899 169.349 28.3313 172.362 35.2303C173.603 38.2078 174.622 41.2728 175.41 44.4001C177.038 50.4856 178.742 56.5543 179.209 62.8651C179.55 67.374 179.103 71.8354 178.745 76.3044C177.973 85.8963 176.334 95.3494 173.111 104.429C171.442 109.209 169.728 113.92 168.351 118.766C167.351 121.99 166.861 125.352 166.901 128.729C167.179 138.061 167.454 147.386 167.405 156.733C167.354 165.065 166.762 173.376 166.426 181.669C166.192 186.479 164.741 191.021 161.285 194.683C159.415 196.754 157.433 198.721 155.347 200.574C151.785 203.491 148.033 206.168 144.117 208.589C141.925 210.003 139.532 211.108 137.497 212.776C137.323 212.933 137.112 213.043 136.884 213.097C136.039 213.195 136.09 213.708 136.317 214.277C136.641 215.06 137.036 214.384 137.318 214.252C140.879 212.622 143.712 209.856 147.104 207.947C149.483 206.607 151.727 205.041 154.043 203.594C154.711 203.173 155.702 202.771 156.132 203.414C156.562 204.056 155.791 204.788 155.186 205.284C153.478 206.644 151.608 207.787 149.619 208.684C148.333 209.2 147.103 209.845 145.947 210.608C143.196 212.732 140.274 214.624 137.209 216.263C136.903 216.423 136.782 216.564 136.866 216.888C137.354 218.788 137.573 220.814 138.383 222.57C140.118 226.377 142.077 230.079 144.251 233.654C147.735 239.337 151.472 244.864 155.32 250.319C161.637 259.222 168.236 267.891 176.044 275.575C176.495 276.019 176.757 276.132 177.302 275.698C177.797 275.308 178.364 275.019 178.97 274.848C182.677 273.638 186.258 272.071 189.662 270.169C190.152 269.913 190.641 269.656 191.131 269.4C191.492 269.211 191.99 269.059 192.202 269.464C192.414 269.869 191.991 270.238 191.623 270.369C190.37 270.822 189.402 271.743 188.223 272.321C185.043 273.787 181.99 275.512 179.092 277.479C178.878 277.591 178.182 277.557 178.619 278.063C178.925 278.41 179.118 279.286 179.995 278.592C181.492 277.468 183.057 276.437 184.681 275.505C185.147 275.203 185.686 275.029 186.241 275C186.773 274.988 187.427 275.075 187.623 275.48C187.82 275.885 187.255 276.266 186.924 276.572C186.684 276.809 186.411 277.01 186.114 277.169C184.885 277.82 183.716 278.578 182.621 279.436C180.966 280.654 180.959 280.611 182.535 281.981C182.596 282.058 182.673 282.12 182.76 282.165C182.847 282.209 182.942 282.235 183.04 282.24C183.138 282.245 183.235 282.229 183.326 282.194C183.418 282.158 183.5 282.103 183.568 282.033C184.646 281.336 185.746 280.682 186.837 280.025L197.617 273.488C198.512 272.949 199.372 272.373 200.255 271.809C202.669 270.223 205.196 268.816 207.815 267.599C209.018 267.063 210.177 266.432 211.281 265.713C211.458 265.62 211.893 265.393 211.531 265.223C210.885 264.913 210.277 264.317 209.395 264.779C208.121 265.517 206.811 266.203 205.526 266.923C201.618 269.11 197.695 271.329 193.789 273.492C192.97 274.036 192.052 274.413 191.087 274.603C190.579 274.674 189.924 274.72 189.736 274.123C189.548 273.526 190.167 273.382 190.508 273.094C190.684 272.97 190.875 272.87 191.077 272.796C195.332 270.942 199.461 268.834 203.539 266.628C204.951 265.869 206.3 264.998 207.572 264.023C207.389 263.674 206.839 263.696 206.928 263.345C207.017 262.993 207.447 262.979 207.779 262.899C208.112 262.826 208.456 262.824 208.79 262.893C209.055 262.976 209.342 262.952 209.589 262.826C210.337 262.348 211.101 261.886 211.852 261.414C212.042 261.314 212.232 261.215 212.068 260.918C211.979 260.758 211.858 260.617 211.713 260.504C211.568 260.391 211.403 260.308 211.226 260.259C211.048 260.211 210.864 260.198 210.682 260.222C210.5 260.246 210.325 260.306 210.166 260.399C207.992 261.608 206.009 263.138 203.751 264.204C203.449 264.389 203.112 264.509 202.761 264.559C202.41 264.608 202.052 264.586 201.71 264.492C201.819 264.246 201.977 264.026 202.175 263.846C202.374 263.665 202.607 263.528 202.862 263.443C205.144 262.381 206.949 260.63 209.012 259.253C209.357 259.018 209.388 258.853 209.07 258.558C208.859 258.364 208.522 258.064 208.675 257.804C208.828 257.545 209.294 257.707 209.617 257.741C209.939 257.775 210.359 258.25 210.813 257.896C211.267 257.541 211.875 257.168 212.402 256.805C212.562 256.722 212.715 256.642 212.607 256.378C212.54 256.207 212.436 256.053 212.303 255.927C212.17 255.8 212.011 255.705 211.837 255.647C211.663 255.589 211.479 255.57 211.297 255.591C211.115 255.613 210.94 255.674 210.784 255.77C210.539 255.898 210.329 256.079 210.094 256.225C208.481 257.226 207.038 258.506 205.262 259.256C204.978 259.422 204.662 259.527 204.335 259.564C204.008 259.601 203.676 259.569 203.362 259.47C203.379 259.354 203.429 259.246 203.506 259.158C203.584 259.07 203.685 259.007 203.798 258.976C206.118 257.956 207.822 256.087 209.828 254.63C210.005 254.537 210.264 254.48 210.262 254.207C210.252 253.682 208.699 252.846 208.256 253.133C207.566 253.588 206.899 254.086 206.206 254.535C205.897 254.768 205.533 254.917 205.149 254.968C204.766 255.018 204.375 254.968 204.016 254.822C204.135 254.433 204.399 254.105 204.753 253.905C205.277 253.521 205.824 253.18 206.336 252.787C207.45 251.937 207.402 251.963 206.507 250.955C206.181 250.587 205.935 250.622 205.564 250.793C204.755 251.154 203.943 251.525 203.111 251.827C202.313 252.183 201.419 252.267 200.568 252.066C200.768 251.656 201.066 251.303 201.436 251.037C201.806 250.771 202.235 250.601 202.687 250.542C204.924 250.018 206.567 248.509 208.578 247.315C207.555 246.672 206.842 245.639 205.503 246.254C205.208 246.338 204.897 246.351 204.595 246.292C204.05 246.249 203.691 246.055 204.256 245.54C204.657 245.174 204.642 244.923 204.24 244.587C204.134 244.521 204.051 244.422 204.006 244.305C203.96 244.188 203.953 244.06 203.986 243.939C204.434 243.799 204.916 243.823 205.348 244.007C206.104 244.392 206.589 244.068 207.092 243.539C207.87 242.632 208.756 241.824 209.731 241.133C210.354 240.744 211.248 240.26 211.715 240.93C212.183 241.599 211.403 242.21 210.849 242.657C210.295 243.103 209.618 243.567 209.006 244.036C207.781 244.975 207.808 244.937 209.136 245.773C209.249 245.885 209.384 245.971 209.533 246.027C209.681 246.083 209.84 246.107 209.998 246.098C210.156 246.088 210.311 246.046 210.452 245.973C210.593 245.9 210.716 245.799 210.816 245.675C211.323 245.134 211.95 244.72 212.647 244.465C213.086 244.321 213.704 244.146 213.952 244.485C214.2 244.824 213.789 245.351 213.458 245.658C212.814 246.214 212.119 246.703 211.442 247.214C211.554 247.43 211.709 247.621 211.897 247.776C212.084 247.931 212.302 248.046 212.535 248.114C212.768 248.183 213.013 248.203 213.255 248.174C213.496 248.145 213.729 248.067 213.939 247.945C214.586 247.652 215.29 247.506 216 247.516C216.71 247.526 217.41 247.692 218.049 248.004C218.461 248.21 218.969 248.584 218.854 249.02C218.739 249.455 218.1 249.336 217.715 249.257C216.5 249.046 215.25 249.222 214.141 249.761C215.079 250.419 215.551 251.515 216.769 251.651C216.832 251.648 216.895 251.663 216.95 251.695C217.004 251.726 217.049 251.773 217.078 251.829C217.108 251.885 217.12 251.948 217.115 252.011C217.11 252.074 217.087 252.134 217.048 252.184C217.01 252.268 217.004 252.363 217.031 252.451C217.059 252.539 217.118 252.614 217.197 252.661C218.237 253.703 219.374 254.643 220.594 255.468ZM325.377 133.604C326.703 132.8 326.904 132.632 327.021 131.962C327.493 130.108 327.489 128.164 327.01 126.311C326.509 124.73 325.95 123.171 325.471 121.586C324.458 118.163 323 115.067 319.868 112.988C319.163 112.471 318.362 112.098 317.513 111.893C316.663 111.687 315.782 111.653 314.919 111.791C313.924 111.961 312.957 112.303 311.965 112.463C310.972 112.624 309.767 112.943 308.758 112.447C308.622 112.351 308.458 112.299 308.291 112.3C308.123 112.3 307.96 112.354 307.825 112.452C301.09 116.511 294.048 120.012 287.416 124.251C282.316 127.5 277.038 130.468 271.958 133.738C267.82 136.396 263.361 138.516 258.688 140.048C256.938 140.585 255.37 141.596 254.157 142.968C253.761 143.418 253.628 144.027 253.215 144.43C250.719 146.886 250.793 150.23 250.207 153.296C250.202 153.511 250.23 153.725 250.291 153.932C250.979 157.801 252.846 161.364 255.634 164.134C255.891 164.398 256.203 164.603 256.549 164.733C261.792 166.94 267.329 167.133 272.843 166.715C277.442 166.368 281.707 164.533 285.784 162.429C289.861 160.325 293.865 158.008 297.906 155.79C302.022 153.592 306.247 151.604 310.564 149.832C310.938 149.637 311.521 149.62 311.678 149.249C312.1 148.043 313.071 147.144 313.493 145.954C313.723 145.353 314.071 144.803 314.516 144.338C314.96 143.873 315.494 143.502 316.084 143.246C316.732 143.033 317.301 142.629 317.715 142.086C318.503 140.611 319.585 139.357 320.469 137.948C320.723 137.566 320.846 137.113 320.821 136.655C320.455 129.76 319.089 123.147 315.377 117.192C315.106 116.813 314.909 116.386 314.796 115.934C314.689 115.357 314.559 114.691 315.07 114.298C315.582 113.905 316.137 114.161 316.67 114.374C316.957 114.55 317.264 114.691 317.584 114.794C318.145 114.9 318.678 115.121 319.149 115.442C319.621 115.764 320.022 116.179 320.326 116.663C322.71 120.007 324.259 123.874 324.843 127.938C325.05 129.807 325.179 131.677 325.377 133.604ZM117.477 221.402C117.188 221.491 117.16 221.498 117.294 222.139C117.939 224.95 118.891 227.682 120.133 230.285C121.832 234.005 123.564 237.715 125.386 241.371C127.927 246.462 130.334 251.623 133.601 256.311C137.885 262.466 142.329 268.507 146.79 274.522C153.457 283.579 160.892 292.044 169.011 299.823C173.015 303.609 177.332 306.997 181.627 310.403C181.809 310.543 182.097 311.032 182.319 310.502C182.738 309.501 183.603 308.963 184.369 308.311C187.951 305.232 191.602 302.241 194.641 298.587C194.87 298.31 195.257 298.139 194.759 297.666C191.136 294.219 187.617 290.656 183.933 287.272C173.609 277.841 164.361 267.293 156.361 255.821C153.16 251.2 149.96 246.579 146.879 241.872C144.288 237.908 141.682 233.96 139.409 229.799C137.89 227.019 136.55 224.147 135.395 221.198C134.38 218.604 133.162 216.116 132.559 213.416C132.417 212.788 132.21 212.959 131.838 213.201C129.863 214.493 127.911 215.844 125.872 217.029C123.157 218.642 120.351 220.096 117.467 221.384L117.477 221.402ZM330.887 163.244C331.144 163.109 331.159 162.929 331.249 162.773C332.266 160.873 331.681 158.937 331.356 157.021C331.193 155.794 330.662 154.645 329.833 153.725C328.981 152.662 328.042 151.672 327.026 150.765C326.273 150.191 325.448 149.404 324.373 149.467C320.908 149.672 317.519 150.096 314.264 151.551C310.348 153.305 306.24 154.652 302.378 156.526C296.575 159.339 290.829 162.263 285.157 165.343C279.981 168.148 274.545 169.995 268.576 169.692C267.295 169.628 266.55 169.815 266.081 171.139C265.261 173.444 264.427 175.724 264.776 178.222C265.322 181.739 266.716 185.072 268.839 187.93C270.184 189.843 272.248 190.879 274.098 192.207C276.744 194.087 279.673 194.498 282.782 194.104C286.014 193.708 289.13 192.733 292.297 192.019C297.451 190.883 302.457 189.198 307.64 188.163C310.618 187.564 313.673 187.456 316.548 186.154C319.055 185.079 321.476 183.811 323.788 182.361C324.778 181.74 325.671 180.975 326.437 180.091C327.458 178.854 328.607 177.729 329.865 176.733C330.926 175.988 331.735 174.937 332.186 173.72C331.421 173.93 330.63 174.028 329.836 174.014C329.75 173.979 329.657 173.963 329.564 173.965C329.471 173.967 329.379 173.988 329.295 174.026C329.21 174.065 329.134 174.12 329.071 174.189C329.008 174.258 328.96 174.338 328.929 174.426C327.702 176.342 326.456 178.237 325.235 180.15C325.038 180.517 324.759 180.833 324.42 181.074C324.081 181.315 323.691 181.475 323.281 181.541C323.011 181.597 322.755 181.707 322.529 181.864C322.162 182.057 321.697 182.3 321.443 181.934C321.188 181.567 321.446 181.002 321.82 180.822C322.821 180.352 323.143 179.402 323.553 178.531C324.487 176.534 325.656 174.609 325.999 172.391C326.516 168.417 326.143 164.377 324.905 160.564C324.353 158.834 323.642 157.158 322.783 155.558C322.284 154.804 322.105 153.884 322.284 152.999C322.412 152.557 322.662 152.231 323.139 152.457C323.825 152.772 324.566 152.947 325.32 152.971C325.537 152.991 325.747 153.056 325.937 153.163C326.127 153.269 326.293 153.414 326.423 153.589C327.249 154.719 328.271 155.629 328.746 156.982C329.571 159.029 330.286 161.12 330.887 163.244ZM285.896 196.028C285.807 196.046 285.724 196.087 285.655 196.146C285.586 196.205 285.534 196.281 285.504 196.367C284.59 197.898 283.893 199.549 283.432 201.272C283.24 201.894 283.236 202.56 283.42 203.185C284.154 205.273 285.092 207.283 286.221 209.187C287.607 211.492 289.63 213.285 291.434 215.254C294.647 218.782 298.692 219.789 303.237 219.174C307.002 218.663 310.748 217.998 314.509 217.466C316.691 217.105 318.912 217.06 321.107 217.33C322.31 217.482 323.703 217.729 324.758 216.856C326.763 215.188 328.705 213.445 330.608 211.643C331.867 210.547 332.837 209.159 333.435 207.6C334.41 204.943 334.982 202.155 335.132 199.328C335.253 194.893 334.419 190.483 332.687 186.396C332.029 184.827 331.412 184.572 329.831 185.173C327.137 186.194 324.482 187.334 321.693 188.1C316.812 189.312 311.868 190.253 306.884 190.919C302.424 191.622 298.113 192.997 293.691 193.86C291.034 194.371 288.425 195.103 285.89 196.047L285.896 196.028ZM333.273 219.888C332.584 220.062 306.041 237.23 305.399 237.613C302.488 239.381 299.598 241.191 296.664 242.915C291.294 246.064 285.985 249.227 280.441 252.029C276.054 254.241 262.229 260.905 259.613 261.822C247.223 266.46 232.775 268.48 231.309 268.763C225.802 269.835 216.217 271.98 207.163 277.418C201.369 280.89 198.499 282.737 194.028 286.993C193.195 287.562 191.754 290.528 192.309 290.769C192.471 290.84 193.015 290.047 193.388 289.657C193.461 289.618 193.547 289.574 193.604 289.489C196.421 287.169 199.211 284.826 202.133 282.631C206.909 279.06 212.168 276.185 217.751 274.091C222.033 272.583 226.403 271.338 230.836 270.362C234.731 269.4 238.546 268.106 242.59 267.8C244.768 267.725 246.935 267.451 249.063 266.98C254.409 265.571 259.351 263.154 264.323 260.823C270.18 258.052 276.008 255.226 281.856 252.422C291.76 247.713 301.284 242.243 310.343 236.063C316.636 231.696 322.98 227.428 329.319 223.046C330.709 222.052 332.168 221.248 333.28 219.901L333.273 219.888ZM114.027 227.608C113.905 227.88 113.84 228.174 113.838 228.473C113.836 228.771 113.896 229.067 114.015 229.341C114.33 230.27 114.679 231.189 114.914 232.144C116.174 237.472 118.202 242.59 120.936 247.335C122.58 250.146 124.376 252.861 126.103 255.621C128.33 259.189 131.064 262.398 133.383 265.871C134.408 267.252 135.501 268.58 136.66 269.85C138.275 271.817 139.869 273.803 141.493 275.773C141.816 276.166 142.4 276.743 142.756 276.471C143.216 276.113 142.59 275.573 142.377 275.107C142.343 275.02 142.3 274.938 142.249 274.861C140.316 272.303 138.134 269.985 136.429 267.19C135.145 265.112 133.446 263.283 131.959 261.336C129.381 257.904 126.621 254.6 124.8 250.647C123.28 247.388 121.46 244.271 120.011 240.983C118.369 237.311 116.671 233.653 115.302 229.862C115.02 229.039 114.588 228.274 114.027 227.608ZM222.236 264.202C222.68 265.423 222.471 265.783 221.359 266.029C220.847 266.144 220.312 266.106 219.821 265.92C219.273 265.723 218.734 265.498 218.186 265.3C217.638 265.103 215.873 265.472 215.88 265.797C215.908 266.939 215.126 266.458 214.656 266.438C214.325 266.387 213.987 266.416 213.671 266.524C210.739 267.793 207.943 269.354 205.325 271.185C202.203 273.601 198.955 275.849 195.595 277.922C194.614 278.506 193.447 278.781 192.634 279.566C191.167 280.838 189.534 281.903 187.78 282.734C187.132 283.074 186.477 283.417 185.86 283.818C185.646 283.93 185.074 284.12 185.53 284.514C185.886 284.82 186.216 285.718 186.822 285.119C188.949 283.223 191.498 282.044 193.789 280.446C196.08 278.848 198.367 277.587 200.722 276.26C206.211 273.174 211.932 270.545 217.604 267.824C218.843 267.211 220.157 266.766 221.514 266.502C223.07 266.227 224.612 265.895 226.367 265.523L222.236 264.202ZM132.985 272.244C133.017 272.079 133.033 271.911 133.034 271.742C132.833 270.74 132.349 269.817 131.64 269.081C128.032 264.65 124.812 259.917 122.015 254.934C118.889 249.25 115.581 243.662 113.34 237.539C113.259 237.242 113.109 236.968 112.902 236.739C112.696 236.511 112.439 236.334 112.152 236.223C112.021 236.49 111.945 236.78 111.931 237.077C111.916 237.373 111.961 237.67 112.065 237.949C112.615 239.772 113.258 241.566 113.991 243.323C116.9 250.738 121.065 257.424 125.734 263.822C127.704 266.525 130.303 268.719 132.124 271.554C132.313 271.886 132.621 272.133 132.985 272.244ZM120.165 271.013C120.062 270.521 119.824 270.066 119.477 269.701C117.024 266.869 114.85 263.805 112.986 260.554C109.365 254.731 106.302 248.579 103.838 242.18C103.624 241.599 103.218 241.109 102.688 240.79C102.091 240.423 101.823 240.626 101.659 241.266C101.558 242.127 101.76 242.996 102.229 243.725C105.248 250.39 108.862 256.768 113.029 262.781C114.769 265.269 116.393 267.848 118.483 270.082C118.68 270.348 118.933 270.57 119.223 270.731C119.513 270.892 119.834 270.988 120.165 271.013ZM93.5281 244.595C93.0528 243.688 92.1485 242.974 91.8326 243.264C91.2484 243.742 91.262 244.438 91.4269 245.125C91.4338 245.187 91.4475 245.248 91.4675 245.307C91.9172 246.741 92.4789 248.137 93.1474 249.482C94.4475 251.786 95.72 254.096 97.0446 256.387C97.979 258.007 98.9623 259.602 99.9701 261.183C100.318 261.728 100.851 262.597 101.45 262.252C101.952 261.989 101.4 261.083 101.098 260.522C99.2134 257.103 97.3749 253.667 95.7228 250.126C94.875 248.33 94.1419 246.483 93.5281 244.595ZM103.167 257.235C103.77 258.379 104.443 259.485 105.182 260.547C106.42 262.38 107.857 264.069 109.467 265.585C109.813 265.903 110.351 266.364 110.73 266.001C111.109 265.638 110.703 265.07 110.411 264.676C109.915 264.014 109.347 263.405 108.846 262.746C106.495 259.475 104.357 256.056 102.447 252.51C102.194 252.026 101.768 251.303 101.334 251.531C100.899 251.759 101.134 252.534 101.341 253.035C101.913 254.423 102.552 255.823 103.164 257.229L103.167 257.235ZM131.679 338.683C131.654 339.195 131.813 339.699 132.127 340.104C135.578 344.817 139.79 348.922 144.588 352.25C145.04 352.582 145.598 352.735 146.155 352.68C146.648 352.625 146.864 352.41 146.609 351.88C146.266 351.295 145.767 350.818 145.169 350.501C140.448 347.309 135.996 343.813 132.481 339.262C132.298 338.973 132.011 338.765 131.679 338.683ZM118.074 261.006C118.159 260.514 118.072 260.008 117.83 259.572C115.878 255.468 113.921 251.365 111.96 247.262C111.638 246.649 111.173 245.76 110.6 246.021C110.027 246.282 110.179 247.273 110.464 247.952C110.93 249.02 111.436 250.076 111.886 251.113C113.252 254.258 115.202 257.057 116.981 259.961C117.201 260.435 117.592 260.808 118.074 261.006ZM133.42 277.439C133.242 277.099 133.009 276.79 132.731 276.526C129.635 273.458 126.733 270.2 124.042 266.771C123.683 266.267 123.184 265.879 122.607 265.656C122.075 265.458 121.877 265.601 121.9 266.167C122.008 266.902 122.363 267.578 122.905 268.086C125.682 271.421 128.962 274.289 131.948 277.413C132.193 277.647 132.464 277.851 132.757 278.02C132.992 278.155 133.305 278.351 133.527 278.164C133.749 277.977 133.452 277.649 133.42 277.439ZM96.5627 237.404C96.205 236.974 95.9739 236.384 95.5028 236.482C95.0317 236.581 94.908 237.208 94.8681 237.698C94.8492 238.034 94.8787 238.371 94.9556 238.699C95.7001 241.996 96.6012 245.236 98.7842 247.944C99.1676 248.423 99.6183 249.179 100.163 248.878C100.603 248.648 100.198 247.829 99.9494 247.295C98.89 245.184 98.0451 242.972 97.4276 240.693C97.1583 239.569 96.8334 238.442 96.5627 237.404ZM171.551 308.798C171.656 309.351 171.924 309.861 172.319 310.263C176 313.984 179.846 317.485 184.761 319.544C185.146 319.736 185.574 319.825 186.003 319.8C186.731 319.7 186.858 319.407 186.506 318.81C186.173 318.323 185.672 317.976 185.099 317.836C180.33 316.177 176.501 313.081 172.94 309.617C172.598 309.177 172.102 308.884 171.551 308.798ZM89.542 252.621C90.0383 253.618 90.5983 254.583 91.2184 255.509C91.5385 255.911 92.0072 256.478 92.4527 256.183C92.8983 255.887 92.4597 255.273 92.2317 254.837C91.5895 253.611 90.9027 252.479 90.3499 251.245C88.8483 248.125 87.2182 245.072 86.7595 241.531C86.7159 241.097 86.5208 240.693 86.2086 240.389C85.862 240.055 85.643 240.084 85.5066 240.538C85.324 241.131 85.3321 241.766 85.5297 242.354C86.6353 245.863 87.9758 249.292 89.542 252.621ZM341.606 203.632C343.047 202.052 343.876 200.008 343.945 197.868C343.94 195.626 343.759 193.388 343.403 191.175C343.241 189.822 342.319 189.18 341.265 188.388C341.291 188.872 341.381 189.35 341.534 189.81C342.63 191.783 342.353 193.92 342.332 196.025C342.281 198.576 342.038 201.119 341.606 203.632ZM339.893 163.269C340.454 162.03 340.911 160.939 340.69 159.727C340.221 157.193 339.296 154.766 337.959 152.562C337.663 151.959 337.207 151.449 336.641 151.089C336.581 152.105 336.296 153.035 336.798 153.874C337.778 155.644 338.509 157.541 338.97 159.51C339.281 160.699 339.321 161.952 339.893 163.269ZM182.049 321.886C181.762 321.368 181.301 320.967 180.747 320.756C178.041 319.4 175.274 318.153 173.076 315.937C172.888 315.776 172.669 315.657 172.432 315.587C172.276 315.528 172.012 315.455 171.921 315.534C171.733 315.695 171.879 315.931 171.967 316.128C172.197 316.526 172.49 316.884 172.834 317.189C175.047 319.522 177.951 320.853 180.615 322.544C180.891 322.689 181.199 322.764 181.51 322.763C182.204 322.821 182.377 322.527 182.049 321.886ZM335.806 174.942C339.594 174.52 341.128 171.42 341.208 168.206C340.62 169.431 339.741 170.493 338.647 171.297C337.267 172.208 336.603 173.532 335.815 174.96L335.806 174.942ZM177.364 324.989C175.916 323.741 174.26 322.757 172.472 322.082C172.164 321.97 171.667 321.855 171.487 322.254C171.306 322.654 171.587 322.983 171.861 323.222C173.247 324.429 174.823 325.396 176.526 326.084C176.703 326.132 176.886 326.149 177.068 326.136C177.764 326.154 177.844 325.815 177.374 325.007L177.364 324.989ZM150.171 347.928C149.982 347.524 149.677 347.186 149.295 346.957C148.349 346.327 147.418 345.682 146.452 345.087C145.948 344.765 145.233 344.248 144.813 344.773C144.394 345.297 144.902 346 145.399 346.443C146.391 347.324 147.505 348.056 148.706 348.617C149.019 348.742 149.356 348.795 149.692 348.772C150.273 348.765 150.516 348.497 150.171 347.928ZM78.6149 248.109C78.5201 248.314 78.4739 248.538 78.4799 248.764C78.4859 248.99 78.544 249.212 78.6496 249.411C79.5111 252.009 80.6578 254.503 82.0688 256.848C82.4042 257.399 82.9671 258.205 83.4803 257.89C83.9936 257.574 83.4793 256.726 83.1104 256.201C81.9326 254.517 80.9221 252.723 80.0935 250.843C79.6765 249.913 79.4831 248.873 78.6149 248.109ZM185.221 311.889C185.244 312.275 183.99 312.159 184.707 312.783C186.6 314.432 188.603 315.977 191.242 316.251C191.456 316.272 191.77 316.514 191.858 316.147C191.927 315.99 191.942 315.815 191.901 315.649C191.86 315.482 191.766 315.334 191.633 315.226C191.561 315.178 191.453 315.18 191.372 315.144C189.388 314.245 187.183 313.713 185.743 311.842C185.584 311.659 185.441 311.742 185.221 311.889ZM145.146 339.496C145.159 339.688 145.212 339.874 145.301 340.044C145.39 340.214 145.513 340.364 145.663 340.484C147.826 342.529 150.319 344.193 153.037 345.403C153.479 345.593 154.192 345.853 154.36 345.413C154.528 344.974 153.805 344.712 153.369 344.549C150.778 343.507 148.389 342.019 146.309 340.153C146.007 339.808 145.597 339.577 145.146 339.496ZM254.272 187.145C254.552 186.538 254.723 185.885 254.775 185.218C254.866 184.811 254.727 184.665 254.295 184.688C253.659 184.755 253.013 184.742 252.381 184.815C252.084 184.846 251.617 184.668 251.552 185.155C251.393 185.867 251.334 186.597 251.378 187.325C251.398 187.362 251.535 187.43 251.609 187.423L254.272 187.145ZM255.204 179.766C255.125 179.362 254.91 179.459 254.744 179.484C254.009 179.571 253.23 179.706 252.477 179.788C252.085 179.829 252 180.038 251.954 180.382C251.786 182.087 251.771 182.088 253.44 181.893L254.713 181.734C254.898 181.715 255.121 181.724 255.148 181.506C255.182 180.871 255.179 180.24 255.204 179.766ZM245.073 175.837C245.013 175.931 244.907 176.026 244.906 176.128C244.865 176.736 244.671 177.423 244.894 177.923C245.077 178.273 245.775 177.923 246.245 177.927C246.641 177.921 247.035 177.882 247.424 177.809C247.692 177.77 248.152 177.904 248.084 177.417C248.001 176.812 248.27 175.866 247.636 175.698C246.862 175.486 245.956 175.766 245.073 175.837ZM254.743 176.937C254.837 176.833 254.981 176.75 254.982 176.663C255.023 176.054 254.898 175.444 254.62 174.9C254.37 174.421 253.905 174.86 253.543 174.854C253.422 174.864 253.302 174.892 253.189 174.938C251.635 175.276 251.608 175.313 251.867 176.881C251.902 177.097 251.883 177.357 252.197 177.317C253.06 177.193 253.905 177.063 254.743 176.937ZM206.664 250.287C207.976 251.6 209.081 250.911 210.171 250.013L210.25 249.971C210.505 249.744 210.991 249.583 210.515 249.137C210.2 248.849 210.014 248.18 209.355 248.619C208.423 249.178 207.51 249.742 206.664 250.287ZM253.568 189.882C250.858 189.785 250.672 189.922 250.44 192.129C252.918 192.081 253.138 191.935 253.543 189.894L253.568 189.882ZM142.32 342.485C141.786 341.674 141.035 341.03 140.154 340.627C139.942 340.535 139.676 340.385 139.466 340.581C139.257 340.776 139.368 341.062 139.437 341.284C139.603 341.796 139.887 342.263 140.265 342.647C140.644 343.031 141.106 343.321 141.616 343.494C141.906 343.616 142.318 343.791 142.549 343.474C142.781 343.157 142.495 342.893 142.32 342.485ZM212.249 253.073C213.339 252.502 213.339 252.502 212.551 251.579C212.412 251.417 212.266 251.259 212.139 251.091C211.92 250.807 211.686 250.836 211.424 251.005C210.839 251.308 210.31 251.707 209.857 252.185C209.857 252.185 209.883 252.234 209.899 252.264C210.125 252.889 211.659 253.405 212.249 253.073ZM135.294 331.32C134.867 330.531 134.211 329.891 133.413 329.485C132.939 329.295 132.722 329.417 132.779 329.957C132.845 330.411 133.002 330.848 133.241 331.24C133.48 331.631 133.795 331.971 134.168 332.238C134.536 332.537 135.073 332.834 135.421 332.559C135.768 332.283 135.408 331.745 135.294 331.32ZM244.9 171.725C244.541 172.186 244.844 172.793 244.852 173.36C244.859 173.582 246.684 173.611 247.15 173.281C247.769 172.839 247.226 172.233 247.193 171.695C247.197 171.42 245.679 171.395 244.906 171.737L244.9 171.725ZM145.96 280.504C145.997 281.735 148.011 284.329 149.262 284.751C149.333 283.636 147.258 280.957 145.96 280.504ZM233.358 264.455C231.33 264.307 229.462 262.973 227.149 263.621C228.005 263.865 228.803 264.279 229.495 264.838C229.546 264.936 229.784 264.898 229.932 264.883L233.358 264.455ZM341.578 210.116C339.945 211.644 337.988 212.778 336.424 214.378C337.403 213.983 338.26 213.417 339.245 213.049C340.683 212.577 340.976 211.26 341.625 210.131L341.578 210.116ZM251.688 194.468C249.333 194.514 248.973 194.765 248.735 196.499C251.057 196.376 250.817 196.588 251.688 194.468ZM246.375 167.944C246.171 167.465 245.407 167.272 244.749 167.639C244.092 168.007 244.417 168.837 244.63 169.155C245.013 169.736 245.758 169.267 246.261 169.082C247.073 168.86 246.218 168.284 246.393 167.934L246.375 167.944ZM215.21 259.663C215.775 259.492 215.761 259.226 215.254 258.914C215.003 258.748 214.782 258.52 214.535 258.345C214.287 258.17 212.74 258.582 212.608 258.955C212.555 259.092 212.646 259.162 212.756 259.237C213.076 259.552 213.485 259.761 213.927 259.836C214.369 259.91 214.824 259.847 215.228 259.654L215.21 259.663ZM214.928 263.592C213.914 262.326 213.157 262.356 211.794 263.671C212.899 264.53 213.929 264.35 214.952 263.58L214.928 263.592ZM245.436 164.975C245.585 164.695 245.66 164.382 245.655 164.065C245.65 163.748 245.564 163.437 245.407 163.162C245.134 162.641 244.394 163.044 244.085 163.229C243.422 163.631 243.9 164.365 244.082 164.832C244.323 165.425 244.932 164.817 245.436 164.975ZM220.537 260.17C221.632 261.323 222.801 262.273 224.799 261.68C223.125 261.432 222.173 259.899 220.549 260.164L220.537 260.17ZM111.004 230.637C110.921 230.477 110.834 230.312 110.72 230.168C110.606 230.025 110.385 229.633 110.111 229.706C109.837 229.779 109.873 230.174 109.875 230.431C109.876 230.843 109.964 231.25 110.131 231.626C110.299 232.003 110.543 232.34 110.848 232.617C111.176 232.93 111.381 232.846 111.41 232.393C111.436 231.782 111.296 231.175 111.004 230.637ZM166.669 312.417L166.743 312.558C167.019 313.086 168.352 313.575 168.648 313.217C169.125 312.639 168.202 312.544 168.123 312.109C168.062 311.936 167.95 311.785 167.802 311.676C167.506 311.409 167.132 311.081 166.759 311.323C166.387 311.565 166.592 312.075 166.669 312.417ZM244.769 150.448C244.355 150.391 243.934 150.457 243.558 150.637C242.725 150.909 242.961 151.731 243.063 152.194C243.164 152.656 243.772 152.283 244.142 152.245C244.513 152.208 244.944 150.872 244.781 150.442L244.769 150.448ZM213.674 254.17C212.866 254.593 212.866 254.593 213.521 255.173C213.699 255.349 213.892 255.509 214.099 255.651C214.562 255.924 214.877 255.47 215.278 255.385C215.315 255.381 215.352 255.369 215.384 255.35C215.417 255.33 215.445 255.304 215.466 255.273C215.487 255.241 215.502 255.206 215.508 255.168C215.515 255.131 215.513 255.093 215.503 255.056C215.442 254.877 215.347 254.712 215.221 254.57C215.096 254.428 214.944 254.312 214.774 254.23C214.603 254.147 214.418 254.1 214.23 254.089C214.041 254.079 213.852 254.107 213.674 254.17ZM100.65 235.841C100.393 235.499 100.127 234.842 99.7076 235.069C99.1568 235.358 99.2231 236.065 99.506 236.62C99.734 237.055 100.132 237.621 100.581 237.346C101.03 237.072 100.862 236.379 100.65 235.841ZM81.9712 243.617C81.8438 243.896 81.7763 244.199 81.773 244.506C81.7698 244.813 81.8308 245.118 81.9522 245.4C82.0737 245.683 82.2528 245.936 82.478 246.145C82.7033 246.354 82.9697 246.514 83.2602 246.614C83.2962 246.048 83.1982 245.482 82.9742 244.961C82.7502 244.44 82.4066 243.98 81.9712 243.617ZM216.374 257.241C217.595 258.5 218.159 258.728 219.001 258.31C217.033 256.474 217.362 256.669 216.384 257.259L216.374 257.241ZM252.631 172.308C252.876 172.18 253.215 172.143 252.921 171.805C252.627 171.467 252.182 170.989 251.791 170.6C251.624 170.43 251.298 170.389 251.291 170.659C251.227 171.234 251.302 171.816 251.51 172.357C251.751 172.817 252.258 172.222 252.631 172.308ZM219.616 262.566C218.29 261.003 217.767 260.793 216.669 261.407C217.612 261.866 218.412 262.471 219.616 262.566ZM244.467 159.506C244.3 158.874 243.888 159.027 243.589 159.184C242.941 159.437 243.249 160.026 243.413 160.339C243.619 160.895 244.175 160.541 244.475 160.415C245.002 160.17 244.391 159.764 244.467 159.506ZM243.888 155.527C243.742 155.143 243.443 155.213 243.26 155.325C242.703 155.617 243.035 156.177 243.044 156.61C243.052 157.043 243.434 156.835 243.594 156.767C244.262 156.48 243.682 155.893 243.888 155.527Z" fill="#634DBC"/>
<path d="M198.134 80.5477C197.223 82.7831 197.629 85.2422 196.719 87.5395C196.505 87.3475 196.337 87.1104 196.227 86.8452C196.116 86.5801 196.066 86.2937 196.08 86.0069C196.019 84.347 196.106 82.6852 196.342 81.0414C196.408 80.6162 196.423 80.1239 196.739 79.8335C197.461 79.1581 197.007 78.6774 196.618 78.115C196.012 77.2998 195.085 76.676 194.969 75.5021C196.03 75.5169 196.504 76.3624 197.261 77.0047C197.183 76.2979 197.214 75.5834 197.353 74.8863C197.524 73.5308 197.669 72.213 196.439 71.1615C196.207 70.974 196.042 70.7163 195.967 70.4271C195.893 70.1379 195.914 69.8325 196.028 69.5566C196.369 69.0026 196.931 69.7166 197.545 69.6683C197.507 68.524 197.469 67.3642 197.425 66.223C197.409 65.8798 197.1 65.706 196.901 65.4898C195.447 63.9899 193.901 62.5813 192.274 61.2723C191.957 61.0555 191.694 60.7687 191.505 60.4341C191.316 60.0994 191.206 59.7259 191.185 59.3424C193.427 60.6448 195.208 62.4074 197.255 63.8587C197.329 63.1571 197.325 62.4492 197.242 61.7484C197.204 61.164 197.3 60.5788 197.524 60.0381C197.797 59.4421 198.079 59.4896 198.419 59.9755C198.748 60.4265 198.95 60.957 199.006 61.5121C199.088 62.5783 199.255 63.6553 199.235 64.7202C199.216 65.7851 199.711 66.2837 200.624 66.8365C200.548 65.6031 200.986 64.444 200.039 63.4708C199.943 63.3463 199.891 63.1924 199.894 63.0348C199.896 62.8772 199.953 62.7252 200.053 62.6041C200.308 62.0972 200.359 61.5113 200.194 60.9675C199.623 57.3602 199.3 53.7794 198.083 50.354C197.007 47.3087 195.602 44.3901 193.891 41.6506C193.515 41.1305 193.295 40.514 193.256 39.8734C193.515 39.8933 193.766 39.9724 193.989 40.1047C194.213 40.2369 194.403 40.4187 194.545 40.636C195.408 41.8703 196.189 43.1609 196.88 44.4991C197.96 46.2775 199.095 48.027 200.101 49.8439C201.122 51.7095 201.86 53.7164 202.292 55.7985C202.371 56.3614 202.568 56.9013 202.871 57.3824C203.174 57.8634 203.576 58.2747 204.05 58.5889C204.282 58.4671 204.132 58.2408 204.11 58.0493C203.386 53.5598 201.779 49.2574 199.383 45.3914C196.433 40.3419 192.698 35.7944 188.318 31.9201C187.879 31.5334 187.537 31.0487 187.32 30.5053C187.145 30.0815 187.29 29.9272 187.721 29.9905C188.296 30.0948 188.831 30.3548 189.269 30.7423C194.45 34.826 198.627 39.7635 202.543 45.0802C206.697 50.7175 207.837 57.1523 208.516 63.7502C208.82 66.6691 208.366 69.5399 208.052 72.4546C207.297 79.3818 205.421 86.091 204.424 92.9576C204.128 95.4931 204.315 98.0623 204.974 100.53C205.532 102.862 205.882 105.242 206.551 107.517C206.876 108.659 207.738 109.426 208.283 110.406C209.14 112.18 210.087 113.908 211.12 115.585C211.206 115.713 211.266 115.857 211.295 116.009C211.383 116.4 211.758 116.892 211.361 117.177C210.965 117.463 210.464 117.163 210.109 116.857C209.871 116.662 209.67 116.426 209.517 116.159C208.535 114.283 207.298 112.563 206.163 110.782C205.021 108.81 204.125 106.705 203.496 104.514C202.727 102.473 202.181 100.353 201.87 98.1937C201.584 95.3983 200.889 92.5669 201.674 89.7025C202.025 88.3932 201.051 87.2783 200.641 86.0633C200.519 86.1275 200.445 86.1659 200.427 86.1755C199.875 90.5428 199.513 94.9284 200.182 99.3044C200.781 102.448 201.789 105.501 203.182 108.382C203.894 110.284 204.827 112.095 205.962 113.778C206.317 114.251 206.507 114.827 206.501 115.418C206.5 116.145 206.171 116.278 205.572 115.998C205.099 115.797 204.687 115.474 204.379 115.061C201.548 111.287 199.558 106.949 198.545 102.342C198.384 101.717 198.274 101.079 198.217 100.436C197.998 94.7609 197.719 89.0625 198.834 83.4471C199.058 82.3847 198.201 81.5678 198.134 80.5477ZM199.42 80.3511C199.812 78.4346 200.816 76.4945 198.75 74.7248C198.672 75.6638 198.267 76.5451 197.606 77.2151C197.359 77.43 197.642 77.6725 197.773 77.8465C198.372 78.634 198.816 79.511 199.42 80.3511ZM204.427 71.0876C204.89 68.8603 204.623 67.8594 203.431 67.2652C203.269 68.6391 202.892 70.0633 204.427 71.0876ZM201.779 80.5373C200.916 82.5521 200.986 83.2966 202.184 84.9429C202.453 84.2261 202.557 83.4574 202.487 82.6943C202.417 81.9313 202.175 81.1938 201.779 80.5373ZM199.467 68.6772C198.885 70.6931 199.082 71.7695 200.228 72.4822C200.121 71.1317 200.921 69.6967 199.492 68.6643L199.467 68.6772ZM203.374 61.3492C203.367 62.9152 202.938 64.5075 204.646 65.3709C204.95 63.852 204.351 62.6189 203.398 61.3364L203.374 61.3492ZM202.852 74.217C202.131 75.4463 202.647 76.3715 203.37 77.3209C204.076 76.0918 203.548 75.1575 202.877 74.2042L202.852 74.217Z" fill="#634DBC"/>
<path d="M169.886 167.098C170.258 167.62 170.439 168.254 170.397 168.893C170.527 173.341 170.385 177.806 170.231 182.262C170.214 182.795 170.105 183.258 170.895 183.305C170.996 183.31 171.096 183.337 171.185 183.385C171.275 183.432 171.354 183.499 171.415 183.581C171.476 183.662 171.519 183.756 171.54 183.856C171.561 183.955 171.559 184.058 171.536 184.157C171.36 184.64 170.924 184.478 170.518 184.284C170.406 184.233 170.302 184.17 170.196 184.117C169.797 185.498 169.833 185.776 171.088 186.384C173.172 187.386 175.107 188.638 177.275 189.441C177.841 189.644 178.776 189.983 178.593 190.469C178.411 190.955 177.459 190.774 176.871 190.59C175.389 190.085 173.925 189.539 172.456 188.996C171.756 188.672 171.015 188.444 170.254 188.321C170.2 188.51 170.218 188.712 170.303 188.889C170.389 189.066 170.536 189.206 170.718 189.281C172.084 190.214 173.53 191.025 175.038 191.706C175.475 191.867 175.873 192.12 176.205 192.447C176.382 192.635 176.707 192.824 176.565 193.133C176.422 193.442 176.087 193.383 175.825 193.404C174.695 193.48 173.783 192.825 172.783 192.465C172.447 192.345 172.062 191.773 171.781 192.264C171.604 192.567 172.226 192.726 172.498 192.919C175.131 194.624 177.944 196.033 180.884 197.121C181.204 197.229 181.516 197.358 181.819 197.507C182.172 197.704 182.791 197.873 182.669 198.296C182.548 198.719 181.896 198.607 181.499 198.518C178.561 197.856 175.721 196.811 173.054 195.41C172.298 195.024 171.556 194.561 170.821 194.126C170.599 193.964 170.325 193.888 170.051 193.913C169.777 193.937 169.521 194.06 169.331 194.258C166.182 196.689 163.28 199.474 159.683 201.288C159.34 201.487 158.973 201.642 158.592 201.75C158.272 201.824 157.763 202.044 157.628 201.622C157.493 201.201 157.3 200.669 157.954 200.295C159.966 199.058 161.841 197.612 163.549 195.981C164.804 194.862 165.789 193.474 166.432 191.92C167.076 190.365 167.359 188.685 167.263 187.004C167.234 186.359 167.278 185.713 167.392 185.077C168.14 181.561 168.45 177.968 169.095 174.435C169.427 172.621 169.562 170.777 169.498 168.934C169.413 168.296 169.55 167.648 169.886 167.098Z" fill="#634DBC"/>
<path d="M235.442 126.386C235.524 125.218 235.957 124.554 237.039 124.417C238.52 124.266 240.027 124.165 241.047 125.591C242.278 127.247 243.222 129.098 243.837 131.068C244.327 132.564 245.097 133.953 246.106 135.161C246.261 135.425 246.513 135.618 246.809 135.697C247.105 135.776 247.419 135.736 247.685 135.584C245.607 133.016 244.842 129.784 243.134 127.029C242.971 126.735 242.854 126.416 242.788 126.086C242.691 125.707 242.502 125.197 242.887 124.995C243.273 124.793 243.648 125.151 243.901 125.44C245.015 126.64 245.976 127.974 246.761 129.411C247.717 131.132 248.886 132.724 250.242 134.151C250.559 134.444 250.812 134.8 250.986 135.196C251.16 135.591 251.25 136.019 251.251 136.451C251.255 136.636 251.24 136.832 251.406 136.955C252.284 137.574 251.618 137.852 251.125 138.087C250.571 138.351 249.972 138.511 249.36 138.558C248.508 138.63 244.756 138.837 243.373 136.733C242.136 134.783 241.241 132.636 240.726 130.384C240.343 129.185 239.852 128.022 239.258 126.911C239.176 126.711 239.033 126.542 238.85 126.428C238.667 126.314 238.453 126.26 238.238 126.274C237.316 126.256 236.393 126.013 235.442 126.386Z" fill="#634DBC"/>
<path d="M173.911 107.728C173.823 107.182 173.889 106.623 174.102 106.113C177.124 96.0682 178.378 85.7 179.523 75.3183C180.18 69.3754 180.336 63.387 179.99 57.4165C179.949 56.7581 180.026 55.788 180.588 55.7438C181.282 55.6848 181.471 56.6252 181.561 57.2889C181.841 59.3905 181.963 61.51 181.926 63.6295C181.873 69.5899 181.438 75.5404 180.626 81.4443C179.328 90.0462 177.671 98.5712 174.535 106.73C174.432 107.118 174.214 107.466 173.911 107.728Z" fill="#634DBC"/>
<path d="M268.741 131.602L265.227 133.217C264.329 133.599 263.487 134.1 262.724 134.707C261.802 135.495 260.573 135.724 259.417 136.033C258.944 136.154 258.488 136.334 258.061 136.571C257.238 137.026 256.297 137.225 255.36 137.143C254.422 137.061 253.53 136.701 252.796 136.11C250.941 134.667 249.789 132.646 248.408 130.814C247.651 129.803 247.011 128.711 246.499 127.556C246.214 126.924 245.827 125.931 246.409 125.627C246.99 125.322 247.719 126.058 248.121 126.707C249.027 128.169 249.879 129.692 250.84 131.095C251.7 132.348 253.07 132.998 254.366 133.686C255.103 134.081 255.852 134.424 256.716 134.018C256.946 133.92 257.204 133.913 257.439 133.999C259.103 134.689 260.529 133.779 261.991 133.278C264.255 132.507 266.178 131.086 268.223 129.913C270.846 128.398 273.603 127.095 275.957 125.127C276.535 124.653 277.507 124.214 277.955 124.862C278.404 125.51 277.601 126.181 277.023 126.655C274.45 128.6 271.673 130.259 268.741 131.602Z" fill="#634DBC"/>
<path d="M194.532 209.552C194.297 209.769 194.016 209.93 193.71 210.024C193.405 210.118 193.082 210.142 192.765 210.095C191.876 210.047 190.992 209.936 190.118 209.762C186.698 209.039 183.219 208.632 179.725 208.549C180.486 209.22 181.45 209.612 182.462 209.663C183.712 209.818 184.942 210.109 186.13 210.531C186.771 210.758 187.688 211.168 187.48 211.785C187.273 212.401 186.31 212.022 185.752 211.776C184.941 211.419 184.111 211.62 183.299 211.56C181.357 211.474 179.479 210.83 177.89 209.706C176.162 208.432 174.348 207.278 172.462 206.252C172.077 206.039 172.156 205.966 172.409 205.615C173.496 204.101 174.81 204.584 176.067 205.153C178.585 206.256 181.278 206.901 184.021 207.057C184.971 207.134 185.908 207.334 186.806 207.653C188.849 208.343 190.96 208.809 193.103 209.043C193.622 209.054 194.123 209.233 194.532 209.552Z" fill="#634DBC"/>
<path d="M170.196 154.825C169.95 154.468 169.837 154.035 169.876 153.603C169.929 145.559 168.999 137.545 168.892 129.507C168.797 128.011 168.792 126.51 168.879 125.014C168.949 124.195 169.147 123.115 169.958 123.143C170.577 123.163 170.578 124.327 170.608 125.069C170.698 129.709 170.789 134.35 170.88 138.99C170.97 143.63 171.041 148.382 170.716 153.077C170.668 154.117 170.672 154.185 170.196 154.825Z" fill="#634DBC"/>
<path d="M179.233 51.7423C178.842 51.4658 178.55 51.0707 178.401 50.6155C177.906 49.0682 177.288 47.5632 176.551 46.1154C175.853 44.5745 176.305 43.1892 177.075 41.9343C177.391 41.4067 177.56 40.8041 177.565 40.1888C177.571 39.5735 177.412 38.9676 177.106 38.4336C176.156 36.096 174.942 33.8744 173.489 31.8118C173.146 31.4132 172.925 30.924 172.853 30.4029C172.829 30.165 172.713 29.8824 172.941 29.7081C173.169 29.5337 173.402 29.7399 173.618 29.8381C174.172 30.1739 174.641 30.6349 174.986 31.1842C176.9 33.2723 178.393 35.7119 179.38 38.3676C179.894 39.7363 179.847 41.2524 179.249 42.5849C178.784 43.5056 178.507 44.5099 178.435 45.5394C178.362 46.5688 178.494 47.6027 178.825 48.5808C179.236 49.5807 179.377 50.6713 179.233 51.7423Z" fill="#634DBC"/>
<path d="M189.37 202.497C189.131 202.719 188.841 202.878 188.526 202.962C188.211 203.045 187.88 203.05 187.562 202.976C183.01 202.275 178.558 201.026 174.304 199.255C171.772 198.08 168.893 197.898 166.237 198.746C165.792 198.893 165.121 199.19 164.888 198.671C164.655 198.152 165.179 197.738 165.662 197.484C166.505 196.887 167.394 196.359 168.321 195.904C168.97 195.645 169.672 195.545 170.368 195.613C171.064 195.68 171.735 195.913 172.323 196.293C175.543 198.085 178.963 199.491 182.511 200.48C184.184 201.011 185.893 201.422 187.624 201.709C188.279 201.763 188.896 202.042 189.37 202.497Z" fill="#634DBC"/>
<path d="M219.599 209.252C219.874 208.994 220.204 208.804 220.564 208.693C220.924 208.583 221.304 208.557 221.676 208.617C225.541 208.639 229.406 208.667 233.271 208.7C235.449 208.737 237.627 208.655 239.796 208.455C240.827 208.352 242.091 208.815 242.178 209.309C242.265 209.802 241.042 210.521 239.942 210.566C238.067 210.634 236.196 210.606 234.33 210.497C230.069 210.245 225.812 210 221.56 209.764C220.871 209.783 220.191 209.605 219.599 209.252Z" fill="#634DBC"/>
<path d="M226.936 110.012C226.355 110.786 225.659 111.466 224.873 112.03C222.241 114.045 219.251 115.542 216.062 116.442C215.648 116.567 215.212 116.599 214.785 116.537C214.357 116.475 213.949 116.319 213.587 116.082C213.31 115.908 213.095 115.651 212.972 115.347C212.85 115.044 212.826 114.709 212.905 114.392C212.961 114.021 213.145 113.682 213.426 113.433C213.706 113.185 214.065 113.043 214.44 113.033C215.566 112.902 216.702 112.877 217.833 112.959C219.286 113.037 220.73 112.688 221.987 111.956C223.448 111.261 224.835 110.394 226.458 110.067C226.572 110.062 226.704 110.032 226.936 110.012Z" fill="#634DBC"/>
<path d="M220.706 212.766C220.142 213.226 219.423 213.451 218.697 213.396C216.465 213.425 214.329 212.786 212.141 212.51C208.564 212.039 204.978 211.909 201.45 211.218C200.382 210.996 199.331 210.836 198.283 210.533C197.73 210.385 196.987 210.025 197.127 209.443C197.267 208.862 198.061 209.009 198.604 209.092C199.751 209.272 200.9 209.499 202.051 209.716C206.755 210.611 211.572 210.769 216.227 211.987C217.073 212.134 217.932 212.192 218.79 212.16C219.476 212.155 220.147 212.367 220.706 212.766Z" fill="#634DBC"/>
<path d="M200.629 112.532C201.295 112.859 201.817 113.42 202.095 114.109C203.606 117.031 205.482 119.75 207.675 122.202C207.844 122.419 208.037 122.617 208.25 122.792C209.246 123.489 208.888 124.622 209.132 125.549C209.219 125.878 208.808 125.913 208.52 125.869C207.84 125.811 207.203 125.509 206.726 125.02C204.966 123.418 203.936 121.317 202.749 119.29C201.729 117.55 201.544 115.499 200.616 113.727C200.529 113.539 200.485 113.335 200.487 113.128C200.489 112.921 200.538 112.717 200.629 112.532Z" fill="#634DBC"/>
<path d="M232.525 204.982C233.031 204.763 233.574 204.643 234.126 204.628C236.539 204.411 238.955 204.497 241.369 204.459C241.801 204.435 242.232 204.521 242.623 204.709C242.991 204.906 243.519 205.02 243.566 205.496C243.612 205.972 243.115 206.334 242.703 206.589C242.222 206.867 241.67 206.998 241.115 206.967L233.956 206.881C233.432 206.887 232.917 206.742 232.473 206.462C232.17 206.269 231.712 206.08 231.751 205.708C231.79 205.335 232.173 205.174 232.525 204.982Z" fill="#634DBC"/>
<path d="M239.118 213.654C238.672 213.882 238.188 214.027 237.689 214.082C233.992 214.573 230.29 214.34 226.592 214.175C226.501 214.172 226.411 214.159 226.322 214.137C225.766 213.967 224.982 213.87 225.042 213.182C225.1 212.652 225.849 212.861 226.297 212.853C230.153 212.854 234.006 212.661 237.842 212.275C238.147 212.238 238.455 212.245 238.758 212.296C239.177 212.365 239.753 212.438 239.832 212.858C239.912 213.277 239.328 213.458 239.118 213.654Z" fill="#634DBC"/>
<path d="M297.337 97.6547C297.949 98.8615 298.448 100.123 298.826 101.422C299.021 102.031 299.206 102.965 298.604 103.171C298.002 103.377 297.581 102.543 297.365 101.937C296.574 99.6379 295.439 97.4715 294 95.5119C293.501 94.8587 292.89 94.288 292.347 93.6666C292.186 93.4815 292.044 93.2809 291.924 93.0677C291.808 92.847 291.66 92.5649 291.786 92.3584C291.912 92.1519 292.236 92.2791 292.472 92.3274C293.071 92.4779 293.615 92.7978 294.039 93.249C295.383 94.517 296.499 96.0074 297.337 97.6547Z" fill="#634DBC"/>
<path d="M160.949 203.555C160.991 203.327 161.081 203.11 161.212 202.919C161.342 202.728 161.512 202.567 161.709 202.445C162.667 201.674 163.767 201.098 164.947 200.749C166.066 200.444 167.097 199.866 168.272 199.742C168.817 199.677 169.369 199.733 169.89 199.906C170.41 200.079 170.887 200.364 171.285 200.743C171.543 200.983 171.783 201.263 171.179 201.33C171.105 201.368 169.558 202.092 168.839 202.313C168.442 202.434 167.943 202.211 167.484 202.139C165.967 201.822 164.386 202.117 163.086 202.959C162.796 203.21 162.454 203.393 162.084 203.496C161.715 203.599 161.327 203.619 160.949 203.555Z" fill="#634DBC"/>
<path d="M236.376 103.778L238.415 102.711C238.88 102.47 239.403 102.361 239.926 102.395C240.347 102.409 240.474 102.577 240.222 102.959C240.005 103.332 239.7 103.644 239.334 103.87C237.081 105.183 234.834 106.508 232.578 107.814C231.903 108.207 230.883 108.702 230.507 108.118C230.131 107.534 231.105 106.938 231.716 106.555C233.215 105.541 234.771 104.614 236.376 103.778Z" fill="#634DBC"/>
<path d="M208.926 208.263C208.505 208.624 207.959 208.806 207.406 208.771C206.454 208.797 205.503 208.71 204.572 208.513C201.92 207.997 199.243 207.623 196.552 207.393C195.813 207.385 195.085 207.211 194.421 206.883C194.04 206.661 193.924 206.456 194.395 206.178C194.875 205.902 195.433 205.793 195.981 205.871C198.057 206.088 200.117 206.439 202.148 206.923C204.114 207.385 206.041 208.056 208.099 208.04C208.384 208.077 208.662 208.152 208.926 208.263Z" fill="#634DBC"/>
<path d="M224.164 133.832C223.493 134.109 222.775 134.254 222.048 134.261C220.241 134.321 218.432 134.264 216.632 134.09C216.263 134.069 215.903 133.966 215.578 133.79C215.334 133.637 214.899 133.536 214.973 133.201C215.047 132.865 215.448 132.827 215.744 132.797C216.908 132.726 218.073 132.702 219.231 132.635C220.614 132.624 221.989 132.429 223.319 132.056C223.377 132.033 223.437 132.018 223.498 132.009C224.13 131.951 224.982 131.732 225.206 132.427C225.43 133.122 224.642 133.465 224.164 133.832Z" fill="#634DBC"/>
<path d="M197.119 200.985C196.725 201.199 196.277 201.295 195.829 201.263C192.973 201.151 190.129 200.812 187.326 200.247C186.681 200.168 186.088 199.853 185.661 199.361C185.404 199.035 185.463 198.864 185.874 198.844C186.118 198.824 186.365 198.834 186.607 198.874C189.467 199.54 192.407 199.524 195.295 199.691C195.914 199.671 196.528 199.816 197.074 200.11C197.557 200.436 197.751 200.717 197.119 200.985Z" fill="#634DBC"/>
<path d="M291.822 112.068C291.937 111.75 292.117 111.46 292.351 111.217C292.584 110.973 292.867 110.781 293.179 110.653C294.876 109.679 296.656 108.833 298.005 107.344C298.278 107.045 298.518 106.834 298.296 106.411C298.255 106.295 298.236 106.172 298.24 106.05C298.162 105.395 298.161 104.411 298.676 104.321C299.391 104.197 299.773 105.09 299.935 105.771C300.156 106.655 299.766 107.281 299.147 108.02C297.676 109.783 295.657 110.559 293.738 111.556C293.16 111.903 292.496 112.08 291.822 112.068Z" fill="#634DBC"/>
<path d="M203.956 213.413C203.474 213.707 202.906 213.826 202.346 213.749C198.863 213.472 195.366 213.319 191.917 212.719C191.427 212.659 190.959 212.484 190.549 212.209C190.358 212.067 190.068 211.929 190.118 211.653C190.168 211.377 190.496 211.377 190.749 211.369C191.114 211.353 191.479 211.377 191.839 211.439C195.347 212.18 198.956 212.399 202.494 212.945C202.991 213.044 203.522 213.016 203.956 213.413Z" fill="#634DBC"/>
<path d="M173.598 201.258C174.104 201.154 174.631 201.222 175.095 201.45C176.814 202.336 178.616 203.048 180.476 203.578C180.904 203.697 181.568 203.951 181.498 204.339C181.429 204.727 180.709 204.753 180.24 204.811C180.027 204.818 179.813 204.793 179.608 204.735C177.857 204.371 176.14 203.981 174.416 203.595C174.181 203.527 173.955 203.434 173.74 203.316C173.63 203.26 173.528 203.19 173.436 203.108C173.378 202.487 173.433 201.86 173.598 201.258Z" fill="#634DBC"/>
<path d="M191.852 198.181C191.446 198.327 191.01 198.373 190.581 198.316C188.779 198.171 187.005 197.787 185.303 197.174C184.606 196.93 183.613 196.449 183.811 195.815C184.009 195.18 185.102 195.435 185.787 195.655C187.417 196.205 189.104 196.563 190.816 196.724C191.247 196.751 191.665 196.883 192.032 197.11C192.258 197.258 192.6 197.376 192.56 197.686C192.519 197.996 192.266 197.988 191.852 198.181Z" fill="#634DBC"/>
<path d="M227.625 205.782C227.157 205.968 226.659 206.068 226.156 206.075C223.946 206.084 221.739 205.884 219.565 205.48C218.939 205.386 218.022 205.155 218.106 204.525C218.19 203.896 219.116 203.996 219.736 204.109C222.009 204.468 224.303 204.678 226.603 204.739C226.943 204.772 227.275 204.862 227.585 205.006C227.769 205.074 228.042 205.15 228.044 205.391C228.045 205.632 227.768 205.699 227.625 205.782Z" fill="#634DBC"/>
<path d="M232.286 189.887C232.114 189.957 231.936 190.011 231.754 190.048C230.323 190.206 228.88 190.21 227.448 190.061C226.906 190.009 226.141 189.8 226.106 189.287C226.071 188.774 226.825 188.395 227.376 188.317C228.981 188.073 230.615 188.102 232.21 188.403C232.58 188.483 233.102 188.616 233.089 189.083C233.077 189.551 232.667 189.632 232.286 189.887Z" fill="#634DBC"/>
<path d="M222.964 184.777C222.65 184.971 222.283 185.062 221.915 185.037C220.09 184.844 218.262 184.661 216.443 184.434C215.774 184.347 214.795 184.102 214.881 183.463C214.968 182.824 215.969 183.127 216.582 183.166C218.229 183.257 219.873 183.372 221.516 183.488C221.977 183.476 222.436 183.564 222.86 183.745C223.119 183.883 223.501 183.972 223.487 184.331C223.472 184.69 223.107 184.678 222.964 184.777Z" fill="#634DBC"/>
<path d="M206.299 205.288C206.076 205.467 205.818 205.598 205.542 205.673C205.265 205.748 204.977 205.765 204.693 205.722C202.57 205.42 200.464 205.093 198.334 204.748C197.822 204.665 197.09 204.4 197.127 203.935C197.165 203.47 197.98 203.402 198.451 203.484C200.887 203.95 203.309 204.479 205.737 205.004C205.935 205.076 206.123 205.171 206.299 205.288Z" fill="#634DBC"/>
<path d="M194.33 49.2802C195.354 49.7444 195.675 50.701 195.97 51.5467C196.408 52.7859 196.635 54.097 197.362 55.2319C197.419 55.3026 197.462 55.3839 197.487 55.471C197.585 56.0294 197.673 56.7643 197.18 56.9837C196.806 57.1792 196.36 56.5065 196.2 56.0669C195.508 54.1639 194.867 52.2413 194.236 50.3217C194.181 50.1507 194.161 49.9702 194.177 49.7912C194.193 49.6121 194.245 49.4383 194.33 49.2802Z" fill="#634DBC"/>
<path d="M222.413 197.753C222.257 197.867 222.078 197.944 221.889 197.981C221.7 198.018 221.504 198.014 221.317 197.968C219.954 197.51 218.532 197.685 217.138 197.555C215.857 197.444 214.588 197.223 213.344 196.894C213.114 196.827 212.822 196.745 212.869 196.432C212.915 196.119 213.237 196.168 213.47 196.211C216.132 196.692 218.837 196.525 221.54 196.726C221.812 196.749 222.08 196.805 222.338 196.894C222.553 196.977 222.845 197.059 222.844 197.356C222.844 197.653 222.541 197.655 222.413 197.753Z" fill="#634DBC"/>
<path d="M219.227 123.409C217.999 123.67 216.566 123.913 215.168 123.106C214.906 122.946 214.614 122.732 214.688 122.396C214.762 122.061 215.086 122.039 215.357 121.991C216.656 121.803 217.975 121.787 219.279 121.945C219.638 121.975 220.196 122.058 220.221 122.506C220.245 122.955 219.778 123.09 219.227 123.409Z" fill="#634DBC"/>
<path d="M232.769 167.937C231.933 168.209 231.052 168.312 230.175 168.241C229.165 168.335 228.146 168.25 227.165 167.989C226.857 167.877 226.419 167.786 226.412 167.415C226.405 167.044 226.883 167.02 227.184 166.909C227.629 166.797 228.092 166.775 228.546 166.844C229.92 166.906 231.3 166.964 232.656 167.036C232.9 167.056 233.272 167.111 233.3 167.432C233.328 167.754 232.992 167.781 232.769 167.937Z" fill="#634DBC"/>
<path d="M221.773 125.857C221.524 126.226 221.145 126.486 220.712 126.585C219.124 126.935 217.473 126.881 215.91 126.428C215.528 126.324 214.934 126.158 215.027 125.68C215.12 125.201 215.726 125.376 216.098 125.416C217.494 125.574 218.903 125.595 220.304 125.479C220.819 125.465 221.328 125.596 221.773 125.857Z" fill="#634DBC"/>
<path d="M228.397 159.992C227.29 160.275 226.229 160.588 225.14 160.088C224.616 159.847 224.45 159.544 225.024 159.211C225.587 158.871 226.218 158.662 226.873 158.599C227.527 158.536 228.187 158.622 228.805 158.849C228.966 158.905 229.213 159.002 229.179 159.192C229.095 159.626 228.661 159.752 228.397 159.992Z" fill="#634DBC"/>
<path d="M225.898 148.699C225.433 148.921 224.924 149.036 224.408 149.036C223.893 149.036 223.383 148.92 222.918 148.697C222.28 148.343 222.342 147.999 222.941 147.685C223.796 147.263 224.76 147.113 225.703 147.254C226.112 147.305 226.701 147.387 226.771 147.804C226.841 148.22 226.276 148.438 225.898 148.699Z" fill="#634DBC"/>
<path d="M187.062 205.417C186.485 205.629 185.86 205.67 185.26 205.535C184.66 205.401 184.111 205.096 183.678 204.659C183.254 204.146 183.45 203.895 184.001 203.786C184.544 203.672 185.104 203.668 185.649 203.775C186.194 203.881 186.712 204.096 187.173 204.406C187.789 204.794 187.742 205.077 187.062 205.417Z" fill="#634DBC"/>
<path d="M217.74 201.311C216.332 202.314 212.489 201.991 211.219 200.773C213.407 200.594 215.61 200.776 217.74 201.311Z" fill="#634DBC"/>
<path d="M211.243 121.076C211.402 121.5 211.734 122.014 211.415 122.282C211.095 122.551 210.603 122.223 210.259 121.982C209.607 121.572 209.098 120.97 208.803 120.26C208.676 119.943 208.463 119.492 208.771 119.245C209.078 118.998 209.421 119.295 209.708 119.457C210.333 119.876 210.857 120.429 211.243 121.076Z" fill="#634DBC"/>
<path d="M220.766 188.623C221.136 188.395 221.576 188.309 222.005 188.381C222.569 188.476 223.353 188.573 223.345 189.242C223.336 189.91 222.578 190.026 221.992 190.13C221.596 190.189 221.19 190.13 220.827 189.959C220.515 189.825 220.122 189.672 220.103 189.322C220.084 188.973 220.467 188.78 220.766 188.623Z" fill="#634DBC"/>
<path d="M175.835 185.858C175.33 186.034 174.782 186.048 174.268 185.897C173.754 185.746 173.3 185.438 172.968 185.016C172.71 184.628 172.759 184.407 173.243 184.349C173.729 184.276 174.225 184.313 174.695 184.458C175.165 184.603 175.597 184.851 175.958 185.185C176.38 185.573 176.142 185.745 175.835 185.858Z" fill="#634DBC"/>
<path d="M225.503 197.174C225.71 197.048 225.942 196.965 226.183 196.933C226.424 196.901 226.669 196.92 226.903 196.988C227.379 197.137 228.073 197.242 228.02 197.84C227.967 198.439 227.302 198.42 226.796 198.482C226.335 198.543 225.868 198.427 225.488 198.159C225.272 198.014 224.966 197.862 225 197.555C225.034 197.248 225.371 197.251 225.503 197.174Z" fill="#634DBC"/>
<path d="M220.313 201.354C220.601 201.177 220.938 201.1 221.274 201.132C221.887 201.217 222.539 201.344 222.765 201.999C222.89 202.371 221.765 202.844 221.054 202.708C220.789 202.65 220.535 202.551 220.3 202.415C220.059 202.283 219.787 202.106 219.797 201.812C219.806 201.518 220.17 201.452 220.313 201.354Z" fill="#634DBC"/>
<path d="M215.094 193.876C214.714 194.044 214.293 194.094 213.884 194.02C213.475 193.946 213.098 193.751 212.801 193.459C212.711 193.288 212.647 193.165 212.786 192.983C213.109 192.727 213.501 192.573 213.913 192.541C214.324 192.509 214.736 192.601 215.095 192.805C215.335 192.937 215.635 193.061 215.637 193.364C215.64 193.668 215.271 193.752 215.094 193.876Z" fill="#634DBC"/>
<path d="M244.148 101.551C243.585 101.682 242.827 102.111 242.503 101.507C242.239 101.004 242.916 100.509 243.39 100.222C243.863 99.9348 244.727 99.6623 245.025 100.217C245.323 100.772 244.614 101.175 244.148 101.551Z" fill="#634DBC"/>
<path d="M171.602 180.903C171.397 180.511 171.567 180.359 171.94 180.312C172.334 180.248 172.738 180.291 173.11 180.438C173.482 180.584 173.807 180.828 174.052 181.144C174.363 181.528 174.318 181.786 173.798 181.91C173.374 181.985 172.936 181.929 172.544 181.749C172.151 181.57 171.823 181.275 171.602 180.903Z" fill="#634DBC"/>
<path d="M254.543 199.77C254.421 200.327 254.154 200.842 253.767 201.261C253.381 201.68 252.89 201.989 252.345 202.155C252.205 202.229 251.984 202.344 251.847 202.127C251.71 201.91 251.862 201.768 251.967 201.627C252.25 201.16 252.624 200.756 253.067 200.437C253.509 200.118 254.011 199.891 254.543 199.77Z" fill="#634DBC"/>
<path d="M189.793 205.432C190.056 205.276 190.357 205.197 190.663 205.203C191.115 205.248 191.764 205.22 191.829 205.702C191.894 206.183 191.256 206.424 190.791 206.55C190.52 206.594 190.242 206.574 189.98 206.491C189.682 206.428 189.324 206.311 189.259 205.993C189.195 205.675 189.66 205.596 189.793 205.432Z" fill="#634DBC"/>
<path d="M225.635 175.463C224.974 175.809 224.158 175.62 223.91 175.148C223.663 174.676 224.039 174.604 224.33 174.459C224.598 174.301 224.914 174.245 225.22 174.302C225.526 174.358 225.801 174.523 225.996 174.766C226.303 175.16 225.793 175.318 225.635 175.463Z" fill="#634DBC"/>
<path d="M198.601 107.438C199.44 107.967 199.543 108.804 199.575 109.67C199.581 109.8 199.616 110.016 199.415 110.035C199.265 110.035 199.12 109.981 199.007 109.882C198.686 109.572 198.473 109.167 198.4 108.727C198.327 108.286 198.397 107.835 198.601 107.438Z" fill="#634DBC"/>
<path d="M194.903 67.1848C194.97 67.4776 195.317 67.9757 194.846 68.0895C194.234 68.2306 193.76 67.744 193.505 67.1824C193.367 66.9187 193.104 66.416 193.513 66.3033C194.112 66.1223 194.603 66.5683 194.903 67.1848Z" fill="#634DBC"/>
<path d="M217.364 179.983C217.27 180.03 217.167 180.058 217.062 180.064C216.957 180.069 216.851 180.053 216.753 180.016C216.654 179.979 216.564 179.921 216.489 179.848C216.413 179.774 216.354 179.685 216.314 179.587C216.26 179.497 216.226 179.396 216.214 179.292C216.202 179.187 216.213 179.082 216.246 178.982C216.279 178.882 216.333 178.791 216.405 178.714C216.477 178.637 216.565 178.577 216.662 178.538C216.752 178.478 216.854 178.438 216.961 178.422C217.069 178.406 217.178 178.413 217.282 178.443C217.386 178.473 217.483 178.526 217.565 178.597C217.646 178.668 217.712 178.756 217.756 178.855C217.815 178.953 217.852 179.063 217.864 179.176C217.876 179.289 217.863 179.404 217.825 179.512C217.788 179.62 217.727 179.718 217.647 179.799C217.568 179.88 217.471 179.943 217.364 179.983Z" fill="#634DBC"/>
<path d="M209.542 196.721C209.013 196.709 208.351 197.025 208.011 196.242C207.876 195.984 207.816 195.735 208.206 195.601C208.694 195.431 209.916 195.814 210.005 196.221C210.093 196.628 209.786 196.593 209.542 196.721Z" fill="#634DBC"/>
<path d="M181.235 194.023C181.405 194.348 181.437 194.543 181.159 194.712C180.878 194.841 180.561 194.866 180.263 194.783C179.966 194.7 179.707 194.514 179.533 194.258C179.392 193.989 179.437 193.777 179.728 193.664C179.982 193.541 180.271 193.509 180.545 193.575C180.82 193.64 181.064 193.799 181.235 194.023Z" fill="#634DBC"/>
<path d="M196.6 197.64C196.773 197.971 196.556 198.108 196.336 198.208C196.089 198.342 195.805 198.388 195.53 198.339C195.254 198.291 195.002 198.151 194.815 197.942C194.566 197.674 194.85 197.486 195.068 197.396C195.316 197.271 195.598 197.227 195.873 197.271C196.148 197.315 196.402 197.444 196.6 197.64Z" fill="#634DBC"/>
<path d="M171.036 118.055C171.16 118.358 171.186 118.691 171.113 119.009C171.039 119.327 170.869 119.615 170.626 119.832C170.435 120.018 170.283 120.012 170.145 119.717C170.05 119.413 170.049 119.087 170.143 118.783C170.237 118.478 170.421 118.209 170.671 118.012C170.888 117.875 170.991 117.954 171.036 118.055Z" fill="#634DBC"/>
<path d="M217.862 193.277C218.053 193.184 218.27 193.162 218.476 193.215C218.682 193.267 218.863 193.39 218.986 193.563C219.142 193.786 218.907 193.949 218.711 194.036C218.524 194.141 218.304 194.172 218.094 194.123C217.885 194.073 217.701 193.947 217.581 193.768C217.422 193.539 217.669 193.402 217.862 193.277Z" fill="#634DBC"/>
<path d="M217.823 189.243C217.858 189.287 217.881 189.339 217.89 189.395C217.898 189.451 217.891 189.508 217.87 189.561C217.849 189.613 217.815 189.659 217.77 189.693C217.726 189.728 217.673 189.75 217.617 189.757C217.424 189.849 217.208 189.883 216.996 189.856C216.784 189.829 216.584 189.741 216.42 189.602C216.203 189.381 216.481 189.227 216.662 189.125C216.84 189.012 217.052 188.962 217.262 188.983C217.473 189.005 217.67 189.096 217.823 189.243Z" fill="#634DBC"/>
<path d="M255.4 155.123C255.908 155.332 256.341 155.691 256.641 156.152C258.42 158.39 260.565 160.31 262.984 161.83C264.139 162.482 265.406 162.91 266.719 163.093C267.476 163.247 268.163 163.64 268.679 164.215C269.147 164.751 269.011 165.072 268.461 165.376C268.229 165.528 267.968 165.632 267.695 165.681C267.422 165.73 267.142 165.723 266.871 165.662C265.177 165.182 263.403 165.236 261.69 164.884C259.07 164.349 256.506 163.786 254.502 161.734C252.802 159.987 251.628 157.797 251.114 155.414C251.096 155.326 251.088 155.235 251.091 155.145C251.099 154.61 251.121 153.879 251.617 153.783C252.113 153.688 252.22 154.428 252.346 154.862C252.968 157.141 254.429 159.101 256.435 160.346C256.664 160.484 256.875 160.694 257.183 160.658C257.492 160.621 257.943 160.619 258.086 160.326C258.229 160.032 257.848 159.872 257.68 159.671C257.131 158.935 256.524 158.237 255.981 157.498C255.696 157.181 255.493 156.798 255.392 156.383C255.29 155.969 255.293 155.536 255.4 155.123Z" fill="#634DBC"/>
<path d="M280.856 162.267C281.153 161.711 281.631 161.273 282.211 161.026C286.85 158.76 291.131 155.87 295.569 153.248C299.747 150.802 303.669 148.029 308.066 146.015C308.741 145.635 309.527 145.499 310.291 145.631C310.834 145.761 311.003 146.039 310.772 146.551C310.521 147.085 310.095 147.517 309.566 147.777C302.105 151.536 295.074 156.07 287.606 159.817C286.058 160.628 284.461 161.348 282.89 162.116C282.582 162.286 282.241 162.388 281.89 162.414C281.539 162.44 281.186 162.39 280.856 162.267Z" fill="#634DBC"/>
<path d="M300.941 147.348C301.029 147.099 301.172 146.873 301.36 146.687C301.547 146.501 301.774 146.359 302.024 146.273C305.295 144.849 307.902 142.53 310.433 140.111C310.713 139.765 311.068 139.488 311.471 139.3C311.873 139.112 312.314 139.018 312.759 139.026C313.232 139.067 313.406 139.265 313.323 139.73C313.204 140.401 312.871 141.014 312.374 141.477C310.083 143.685 307.303 145.11 304.434 146.378L302.828 147.063C302.251 147.375 301.584 147.476 300.941 147.348Z" fill="#634DBC"/>
<path d="M314.457 122.776C315.117 124.274 316.018 125.31 316.464 126.608C317.03 128.179 316.944 128.88 316.011 129.673C315.64 129.993 315.452 129.888 315.19 129.595C314.884 129.205 314.7 128.734 314.66 128.24C314.43 126.602 313.95 125.009 313.238 123.516C312.889 122.898 312.716 122.197 312.738 121.489C312.792 120.952 313.009 120.948 313.379 121.223C313.856 121.648 314.226 122.18 314.457 122.776Z" fill="#634DBC"/>
<path d="M316.046 137.679C315.495 137.921 315.114 138.222 314.747 137.937C314.602 137.797 314.498 137.62 314.444 137.426C314.39 137.232 314.389 137.027 314.441 136.832C314.444 136.519 314.52 136.211 314.664 135.934C315.35 134.959 315.913 133.903 316.341 132.79C316.543 132.223 316.915 132.263 317.33 132.623C317.64 132.856 317.874 133.175 318.002 133.541C318.13 133.907 318.145 134.303 318.047 134.678C317.727 135.871 317.024 136.926 316.046 137.679Z" fill="#634DBC"/>
<path d="M276.141 164.792C275.21 165.068 274.064 165.575 272.817 165.041C272.006 164.684 271.92 164.385 272.631 163.927C273.933 163.115 275.49 162.815 277.001 163.083C277.587 163.159 277.598 163.552 277.262 163.923C276.972 164.307 276.586 164.607 276.141 164.792Z" fill="#634DBC"/>
<path d="M253.129 148.062C253.673 149.465 253.995 150.943 254.083 152.445C254.083 152.625 254.06 152.832 253.873 152.922C253.686 153.012 253.593 152.85 253.483 152.759C252.58 151.959 252.302 149.135 253.129 148.062Z" fill="#634DBC"/>
<path d="M321.07 157.783C323.428 162.802 324.156 168.431 323.153 173.881C322.509 177.255 320.792 180.328 318.257 182.641C316.411 184.317 314.131 185.439 311.676 185.877C307.514 186.791 303.325 187.594 299.153 188.444C298.913 188.504 298.666 188.533 298.419 188.531C298.041 188.51 297.491 188.681 297.359 188.235C297.226 187.789 297.667 187.542 297.961 187.271C298.524 186.846 299.186 186.572 299.884 186.475C304.274 185.324 308.67 184.217 313.062 183.057C314.311 182.738 315.517 182.272 316.655 181.668C317.267 181.347 317.587 180.468 318.07 179.903C319.567 178.205 320.447 176.051 320.57 173.789C320.814 170.475 320.557 167.144 319.808 163.906C319.399 161.979 318.722 160.119 317.796 158.381C317.356 157.628 317.194 156.745 317.339 155.886C317.477 155.032 317.905 154.808 318.717 155.078C319.282 155.25 319.768 155.614 320.091 156.108C320.455 156.683 320.782 157.278 321.07 157.783Z" fill="#634DBC"/>
<path d="M269.702 185.376C268.507 182.977 267.597 180.445 266.991 177.834C266.898 177.416 266.859 176.987 266.877 176.558C266.895 176.221 266.881 175.689 267.289 175.647C267.696 175.606 267.863 176.058 268.011 176.386C268.167 176.753 268.29 177.133 268.38 177.521C269.39 181.28 271.44 184.678 274.293 187.323C274.87 187.792 275.262 188.451 275.399 189.182C275.512 190.052 275.206 190.376 274.317 190.287C273.547 190.188 272.841 189.806 272.336 189.215C271.287 188.062 270.401 186.77 269.702 185.376Z" fill="#634DBC"/>
<path d="M288.105 191.34C285.71 192.343 283.058 192.561 280.53 191.963C280.015 191.858 279.212 191.576 279.295 191.095C279.378 190.613 280.195 190.623 280.76 190.734C282.701 191.067 284.697 190.836 286.509 190.066C287.1 189.726 287.79 189.602 288.462 189.715C289.264 189.92 289.358 190.129 288.785 190.718C288.575 190.943 288.347 191.151 288.105 191.34Z" fill="#634DBC"/>
<path d="M293.402 189.542C292.896 189.752 292.338 189.802 292.004 189.313C291.67 188.824 292.118 188.519 292.504 188.317C293.042 188.035 293.627 188.034 293.944 188.61C294.16 189.067 293.726 189.325 293.402 189.542Z" fill="#634DBC"/>
<path d="M309.782 216.004C310.488 215.196 311.364 214.555 312.348 214.128C313.381 213.658 314.637 213.539 315.502 212.883C317.178 211.615 319.194 211.457 321.033 210.814C322.35 210.351 322.696 209.521 323.086 208.481C324.007 205.889 323.921 203.223 323.612 200.549C323.435 198.127 322.916 195.742 322.07 193.465C321.838 192.887 321.808 192.247 321.985 191.65C322.172 190.92 322.532 190.371 323.412 190.653C323.733 190.758 323.926 190.516 324.189 190.512C324.574 190.506 324.953 190.612 325.281 190.815C325.609 191.019 325.871 191.312 326.038 191.66C327.108 193.397 327.682 195.394 327.697 197.433C327.688 199.828 327.871 202.232 327.085 204.558C326.586 206.362 325.987 208.137 325.29 209.874C324.861 210.747 324.158 211.455 323.289 211.89C322.07 212.573 320.763 213.084 319.405 213.409C319.195 213.506 318.996 213.626 318.812 213.767C319.432 213.891 320.072 213.869 320.681 213.702C322.891 213.052 325.079 212.344 326.577 210.395C327.058 209.88 327.453 209.291 327.746 208.65C329.093 204.982 329.846 201.122 329.977 197.215C329.994 195.401 329.697 193.598 329.097 191.886C328.713 191.002 328.673 190.006 328.984 189.094C329.023 188.891 329.111 188.701 329.242 188.54C329.373 188.38 329.541 188.255 329.733 188.177C329.924 188.099 330.132 188.069 330.337 188.091C330.543 188.113 330.74 188.186 330.91 188.304C331.338 188.517 331.715 188.82 332.016 189.192C332.318 189.564 332.536 189.997 332.655 190.46C333.941 193.981 334.065 197.821 333.012 201.415C332.388 203.632 331.626 205.808 330.73 207.93C329.273 211.358 326.578 213.285 323.305 214.601C321.895 215.118 320.401 215.371 318.899 215.346C316.353 215.289 313.811 215.54 311.326 216.094C310.745 216.25 310.646 216.224 309.782 216.004Z" fill="#634DBC"/>
<path d="M287.635 208.923L287.548 208.758C287.208 208.108 286.878 207.21 287.423 206.807C287.874 206.477 288.377 207.331 288.726 207.805C290.913 210.383 293.485 212.606 296.352 214.397C296.985 214.766 297.493 215.316 297.811 215.977C298.057 216.535 297.853 216.861 297.312 217.019C296.913 217.14 296.491 217.165 296.08 217.09C295.67 217.016 295.283 216.845 294.951 216.592C292.109 214.454 289.637 211.863 287.635 208.923Z" fill="#634DBC"/>
</svg>
