<svg width="50" height="12" viewBox="0 0 50 12" fill="none" xmlns="http://www.w3.org/2000/svg">
<path d="M46.6163 5.37089C45.0222 6.7635 43.4871 8.0935 41.9581 9.42825C41.652 9.69302 41.4363 9.88021 41.1064 10.2749C40.8583 10.5654 40.3453 11.1928 40.709 11.3896C41.0267 11.5205 41.2694 11.5726 41.8455 11.1634C43.328 10.0993 44.6435 8.82457 45.9555 7.56686C47.1132 6.45547 47.9793 5.59049 48.9465 4.54728C49.3982 4.06005 49.3081 3.65221 48.7885 3.34271C48.3222 3.0651 47.8485 2.77186 47.3376 2.58813C45.4994 1.91552 43.6504 1.29391 41.799 0.65055C41.5695 0.569193 41.3956 0.491861 41.1082 0.434358C40.7593 0.368077 40.5093 0.300338 40.3748 0.620691C40.2438 0.924046 40.6161 1.19699 40.8311 1.29671C42.6093 2.16994 46.3082 3.90947 46.4835 4.04731C45.3449 4.45024 44.2992 4.84697 43.2306 5.18593C35.7774 7.51103 28.2291 9.28552 20.3768 9.24506C14.1611 9.21316 8.0659 8.44348 2.1065 6.73C1.75389 6.6311 1.38806 6.56143 1.03432 6.50127C0.556213 6.41269 0.290764 6.4517 0.22485 6.6972C0.162994 7.17386 0.471032 7.317 0.706639 7.45275C1.17303 7.73035 1.70563 7.91135 2.22132 8.08896C9.14496 10.3923 16.2984 11.0229 23.5767 10.7111C31.0469 10.3916 38.1592 8.41289 45.1363 5.82243C45.4993 5.67182 46.4305 5.38331 46.6163 5.37089Z" fill="white"/>
</svg>
