<svg width="6" height="7" viewBox="0 0 6 7" fill="none" xmlns="http://www.w3.org/2000/svg">
<path d="M1.44 6.88622C1.68 7.07034 1.84 7.03352 2 6.75733L2.944 5.08181H3.056L4 6.75733C4.16 7.03352 4.32 7.07034 4.56 6.88622L5.392 6.24179C5.616 6.05766 5.648 5.91037 5.488 5.65259L4.72 4.38214V4.23484H5.6C5.888 4.23484 6 4.10596 6 3.77453V2.66979C6 2.33837 5.888 2.20948 5.6 2.20948H3.92V0.46031C3.92 0.128887 3.808 0 3.52 0H2.48C2.192 0 2.08 0.128887 2.08 0.46031V2.20948H0.4C0.112 2.20948 0 2.33837 0 2.66979V3.77453C0 4.10596 0.112 4.23484 0.4 4.23484H1.28V4.38214L0.512 5.65259C0.352 5.91037 0.384 6.05766 0.608 6.24179L1.44 6.88622Z" fill="#C2E978"/>
</svg>
