<svg width="57" height="56" viewBox="0 0 57 56" fill="none" xmlns="http://www.w3.org/2000/svg">
<path d="M49.6764 27.9141H45.7907L47.9042 25.5447C48.596 24.7581 48.4918 23.4692 47.7051 22.7868C46.9185 22.095 45.6296 22.1992 44.9472 22.9858L43.4687 24.6444V20.8155C43.4687 19.7351 42.5779 18.8442 41.4974 18.8442C40.417 18.8442 39.5261 19.7351 39.5261 20.8155V29.0609L37.1568 31.7145V27.8193C37.1568 26.7389 36.2659 25.848 35.1855 25.848C34.1051 25.848 33.2142 26.7389 33.2142 27.8193V36.1405L30.4847 39.2017C30.2573 37.7706 29.9635 34.226 29.9635 33.8375C29.8687 32.16 29.6697 30.2834 30.1625 29.004C30.3615 28.4164 31.5462 24.2748 32.1338 23.3839C33.0057 22.1329 35.2045 21.5453 37.2611 19.1475C38.531 17.6596 39.1376 16.0863 39.0333 14.6078C38.9385 13.5274 38.0477 12.7313 36.9578 12.8356C35.8679 12.9398 35.0813 13.8212 35.1855 14.9111C35.1855 15.3092 35.0339 15.9252 33.9345 16.8824C32.7024 16.2759 33.726 13.7738 31.1387 10.0776C30.5226 9.20572 29.3664 8.89297 28.4755 9.49005C27.5846 10.0871 27.2908 11.2623 27.8879 12.248C30.1341 15.1007 28.6177 17.072 30.9112 19.2138C30.2383 19.6688 29.518 20.2185 28.9209 20.9861C28.1912 20.2374 27.7931 18.6642 27.5941 17.5743C27.3003 16.1906 27.0065 14.7121 26.2104 13.4326C25.6228 12.447 24.4381 12.1532 23.5473 12.7408C22.5616 13.3284 22.2678 14.5131 22.8554 15.4039C23.68 16.7213 23.8695 21.858 26.7032 24.578C26.9023 25.0709 26.9023 25.6585 26.7032 26.1513C26.599 26.4167 25.1679 30.2645 25.9166 34.0365C26.0114 34.4345 26.3052 38.5193 26.5516 40.1589L23.0639 36.2352V28.0183C23.0639 26.9379 22.173 26.047 21.0926 26.047C20.0122 26.047 19.1213 26.9379 19.1213 28.0183V31.7998L16.951 29.3641V21.1093C16.951 20.0289 16.0601 19.138 14.9797 19.138C13.8993 19.138 13.0084 20.0289 13.0084 21.1093V24.9287L11.6247 23.3744C10.8381 22.4835 9.65341 22.4835 8.86679 23.1754C7.97592 23.962 7.97592 25.1467 8.66777 25.9333L10.6106 28.1036H6.97131C5.89089 28.1036 5.00002 28.9945 5.00002 30.0749C5.00002 31.1554 5.89089 32.0462 6.97131 32.0462H14.1173L16.7615 35.0032H13.0842C12.0038 35.0032 11.1129 35.8941 11.1129 36.9745C11.1129 38.0549 12.0038 38.9458 13.0842 38.9458H20.306L22.3057 41.1824C21.159 41.789 20.1544 42.8031 19.5952 44.073C19.1024 45.0587 19.5004 46.1486 20.4861 46.6414C20.6851 46.7362 22.2489 47.2669 22.9502 45.8548C23.244 45.2672 23.7368 44.7744 24.3339 44.5753C27.632 43.7224 32.7119 44.2815 37.1568 45.6558C38.2372 45.9496 39.3271 45.362 39.6209 44.3763C39.9147 43.2959 39.3271 42.206 38.3415 41.9122C36.882 41.4478 35.5551 41.0877 34.2757 40.8223L36.029 38.8605H43.2792C44.3596 38.8605 45.2505 37.9696 45.3547 36.8892C45.3547 35.8088 44.4639 34.9179 43.3834 34.9179H39.5546L42.2841 31.8567H49.5911C50.6716 31.8567 51.6667 30.9658 51.6667 29.8854C51.6477 28.805 50.7569 27.9141 49.6764 27.9141Z" fill="#C2E978"/>
</svg>
