<svg width="57" height="56" viewBox="0 0 57 56" fill="none" xmlns="http://www.w3.org/2000/svg">
<path d="M32.8837 20.7628C34.567 20.7628 36.0506 23.1403 36.45 23.9297C36.9635 25.2896 39.5408 25.3086 40.0163 24.0248C40.4157 23.1308 41.8993 20.8579 43.5826 20.8579C44.6763 20.8579 45.5608 19.9639 45.5608 18.8797C45.5608 17.7861 44.6668 16.9016 43.5826 16.9016C41.2241 16.9016 39.4362 18.2996 38.2569 19.6691C37.0777 18.2616 35.2802 16.797 32.8837 16.797C31.79 16.797 30.9055 17.691 30.9055 18.7751C30.896 19.8783 31.79 20.7628 32.8837 20.7628Z" fill="#C2E978"/>
<path d="M13.6643 16.0077C15.3476 16.0077 16.8312 18.3853 17.2307 19.1746C17.9154 20.6202 20.1693 20.5536 20.797 19.2697C21.1964 18.3758 22.68 16.1028 24.3633 16.1028C25.457 16.1028 26.3414 15.2089 26.3414 14.1247C26.3414 13.0311 25.4475 12.1466 24.3633 12.1466C22.0048 12.1466 20.2169 13.5446 19.0376 14.9141C17.8583 13.5066 16.0609 12.042 13.6643 12.042C12.5707 12.042 11.6862 12.9359 11.6862 14.0201C11.6767 15.1233 12.5707 16.0077 13.6643 16.0077Z" fill="#C2E978"/>
<path d="M50.0218 4.71899H7.32099C6.22732 4.71899 5.33336 5.60344 5.33336 6.69712V49.3028C5.33336 50.3965 6.22732 51.281 7.31148 51.281H49.9172C51.0109 51.281 51.8953 50.387 52 49.398V6.69712C52.0095 5.60344 51.1155 4.71899 50.0218 4.71899ZM48.0437 8.58014V42.0371L44.4774 34.6381C42.3946 30.3775 39.5226 28 36.3461 28C33.3695 28 30.6971 29.9781 28.719 33.649C26.7408 29.9876 24.059 28 21.0918 28C17.9249 28 15.0433 30.3775 12.9701 34.6381L9.20401 42.446V8.58014H48.0437ZM46.1607 47.4198H11.049L16.2416 36.3214C17.6301 33.5444 19.3134 31.9657 20.9016 31.9657C22.5849 31.9657 24.2682 33.5539 25.5616 36.3214C26.0561 37.5102 27.2449 38.2044 28.5383 38.2044C29.8221 38.2044 30.9158 37.5102 31.515 36.3214C32.9035 33.5444 34.5868 31.9657 36.175 31.9657C37.8583 31.9657 39.5416 33.5539 40.835 36.3214L46.1607 47.4198Z" fill="#C2E978"/>
</svg>
