<svg width="24" height="24" viewBox="0 0 24 24" fill="none" xmlns="http://www.w3.org/2000/svg">
<path opacity="0.1" fill-rule="evenodd" clip-rule="evenodd" d="M2.58337 2.58279C4.5698 0.596612 7.69461 0 12.0006 0C16.3065 0 19.4311 0.596604 21.4173 2.58285C23.4034 4.56908 24 7.69379 24 12C24 16.3132 23.3775 19.4353 21.3795 21.4196C19.3832 23.4021 16.2629 24 12.0006 24C7.73821 24 4.61772 23.4021 2.62111 21.4196C0.622768 19.4354 0 16.3133 0 12C0 7.69371 0.596908 4.569 2.58337 2.58279Z" fill="#C2E978"/>
<path d="M10.2496 14.5C10.4096 14.6 10.5296 14.58 10.6496 14.4L11.9496 12.4H12.0496L13.3496 14.4C13.4696 14.58 13.5896 14.6 13.7496 14.5L14.4496 14.02C14.6496 13.88 14.6696 13.78 14.5296 13.58L13.4096 11.9V11.8H15.0496C15.2496 11.8 15.3496 11.7 15.3496 11.5V10.7C15.3496 10.5 15.2496 10.4 15.0496 10.4H12.7496V8.3C12.7496 8.1 12.6496 8 12.4496 8H11.5496C11.3496 8 11.2496 8.1 11.2496 8.3V10.4H8.94961C8.74961 10.4 8.64961 10.5 8.64961 10.7V11.5C8.64961 11.7 8.74961 11.8 8.94961 11.8H10.5896V11.9L9.46961 13.58C9.32961 13.78 9.34961 13.88 9.54961 14.02L10.2496 14.5Z" fill="#C2E978"/>
</svg>
