<svg width="56" height="56" viewBox="0 0 56 56" fill="none" xmlns="http://www.w3.org/2000/svg">
<path fill-rule="evenodd" clip-rule="evenodd" d="M5.25 17.5C5.25 11.3789 10.2122 6.41669 16.3333 6.41669H39.6667C45.7878 6.41669 50.75 11.3789 50.75 17.5V26.8334C50.75 32.9545 45.7878 37.9167 39.6667 37.9167H16.3333C10.2122 37.9167 5.25 32.9545 5.25 26.8334V17.5ZM16.3333 9.91669C12.1452 9.91669 8.75 13.3119 8.75 17.5V26.8334C8.75 31.0215 12.1452 34.4167 16.3333 34.4167H39.6667C43.8548 34.4167 47.25 31.0215 47.25 26.8334V17.5C47.25 13.3119 43.8548 9.91669 39.6667 9.91669H16.3333Z" fill="#C2E978"/>
<path fill-rule="evenodd" clip-rule="evenodd" d="M5.25 26.8334V32.6667C5.25 38.7879 10.2122 43.75 16.3333 43.75H39.6667C45.7878 43.75 50.75 38.7879 50.75 32.6667V26.8334C50.75 30.2552 49.1993 33.3148 46.7624 35.3479C45.6793 38.2128 42.9109 40.25 39.6667 40.25H16.3333C13.0891 40.25 10.3207 38.2128 9.23761 35.3479C6.80066 33.3148 5.25 30.2552 5.25 26.8334Z" fill="#C2E978"/>
<path fill-rule="evenodd" clip-rule="evenodd" d="M5.25 32.6667V38.5C5.25 44.6212 10.2122 49.5834 16.3333 49.5834H39.6667C45.7878 49.5834 50.75 44.6212 50.75 38.5V32.6667C50.75 36.0885 49.1993 39.1481 46.7624 41.1812C45.6793 44.0461 42.9109 46.0834 39.6667 46.0834H16.3333C13.0891 46.0834 10.3207 44.0461 9.23761 41.1812C6.80066 39.1481 5.25 36.0885 5.25 32.6667Z" fill="#C2E978"/>
<path fill-rule="evenodd" clip-rule="evenodd" d="M24.3586 15.6267C25.3376 14.7574 26.6683 14.3462 28.1651 14.377C29.0308 14.3949 29.9822 14.5158 30.8861 14.9347C31.8271 15.3707 32.6088 16.0795 33.1886 17.0907C33.6693 17.9292 33.3793 18.9986 32.5409 19.4793C31.7024 19.96 30.633 19.67 30.1523 18.8316C29.9173 18.4217 29.6699 18.2286 29.4146 18.1103C29.1223 17.9748 28.7103 17.889 28.0929 17.8763C27.2699 17.8593 26.8621 18.0844 26.6825 18.2438C26.5087 18.3982 26.402 18.6168 26.402 18.9212C26.402 19.3548 26.5284 19.675 26.7316 19.8826C26.9194 20.0744 27.3984 20.4011 28.5876 20.4011C29.6584 20.4011 30.943 20.5978 31.9953 21.3844C33.1414 22.2411 33.7133 23.5672 33.7133 25.1719C33.7133 26.6766 32.9226 27.9292 31.907 28.7541C30.8891 29.5809 29.5409 30.0774 28.129 30.0774C26.792 30.0774 25.5909 29.7159 24.586 28.9922C23.5952 28.2788 22.9015 27.2906 22.4302 26.199C22.047 25.3117 22.4557 24.2818 23.343 23.8986C24.2303 23.5155 25.2602 23.9242 25.6434 24.8115C25.9272 25.4688 26.2697 25.8916 26.6312 26.152C26.9787 26.4022 27.4461 26.5774 28.129 26.5774C28.7371 26.5774 29.3061 26.3576 29.7003 26.0374C30.0968 25.7153 30.2133 25.3902 30.2133 25.1719C30.2133 24.4422 29.9935 24.2579 29.8998 24.1878C29.7123 24.0476 29.309 23.9011 28.5876 23.9011C26.7406 23.9011 25.2518 23.3739 24.2309 22.3313C23.2253 21.3043 22.902 20.0096 22.902 18.9212C22.902 17.7037 23.3739 16.5011 24.3586 15.6267Z" fill="#C2E978"/>
<path fill-rule="evenodd" clip-rule="evenodd" d="M28 11.7214C28.6444 11.7214 29.1667 12.2437 29.1667 12.888V15.8182C29.1667 16.4625 28.6444 16.9848 28 16.9848C27.3557 16.9848 26.8334 16.4625 26.8334 15.8182V12.888C26.8334 12.2437 27.3557 11.7214 28 11.7214Z" fill="#C2E978"/>
<path fill-rule="evenodd" clip-rule="evenodd" d="M28.0557 27.3486C28.7 27.3486 29.2224 27.871 29.2224 28.5153V31.4454C29.2224 32.0897 28.7 32.6121 28.0557 32.6121C27.4114 32.6121 26.889 32.0897 26.889 31.4454V28.5153C26.889 27.871 27.4114 27.3486 28.0557 27.3486Z" fill="#C2E978"/>
</svg>
