<svg width="57" height="56" viewBox="0 0 57 56" fill="none" xmlns="http://www.w3.org/2000/svg">
<path d="M51.9408 24.8524C51.6256 22.1594 50.3269 20.1922 47.7581 19.1799C48.8372 16.105 48.3215 13.2783 46.106 10.7095C43.3557 8.15972 40.3571 7.74909 37.1103 9.32477C35.9166 6.93737 33.6247 5.2471 31.0367 4.75052C27.4748 4.33034 24.8868 5.50494 23.0724 7.93053C21.6782 7.03287 19.8828 6.53629 17.992 6.44079C16.3972 6.3453 15.089 6.62224 14.0098 7.33845C10.2187 9.84999 11.6225 14.2046 11.823 14.9017C10.4288 14.9972 8.63344 15.1023 7.24875 16.296C5.95001 17.3942 2.70315 23.3531 9.93218 28.0419C9.73164 30.1333 10.4288 32.2246 11.823 33.9149C13.3032 35.8821 15.6237 37.1809 19.3863 37.2955C20.4845 37.2 21.2771 36.3023 21.1816 35.2041C21.0861 34.1059 20.1884 33.3133 19.0902 33.4088C15.2608 33.4852 12.9594 30.7254 13.8189 27.4403C14.1913 26.323 13.5897 24.7378 12.0235 24.7569C10.0086 24.776 8.14641 21.0803 9.4356 19.4855C10.4001 18.8743 13.0549 19.2181 15.0126 18.5879C15.5091 18.3873 16.741 17.5279 16.1108 15.9044C14.898 13.6316 14.5542 11.8172 15.8147 10.824C18.5077 10.0505 20.4272 11.0246 22.0888 12.6194C23.5308 14.1664 25.412 13.4884 25.6699 11.6262C25.794 10.7381 26.367 10.0314 26.7681 9.7354C29.7667 7.4244 33.8061 9.659 34.0353 13.4215C33.9398 15.045 36.7283 16.3055 37.8169 14.0232C39.0775 12.0464 41.293 11.9413 43.1647 13.5457C44.9696 15.5988 44.6353 17.8334 42.8878 20.1922C41.6081 22.1403 43.795 23.9834 45.3802 23.0762C45.7813 22.7801 46.5739 22.8756 47.0705 23.2767C49.4006 25.8646 47.4047 30.3625 42.8878 29.3502C41.8946 28.9491 40.7964 29.5508 40.3953 30.5439C39.9942 31.5371 40.5959 32.6353 41.589 33.0364C46.8031 34.4688 52.1031 31.5084 51.9408 24.8524Z" fill="#C2E978"/>
<path d="M38.7051 20.8704C37.9125 20.1733 36.6137 20.3738 36.0217 21.2715L30.7503 28.5291V20.7749C30.7503 19.6767 29.8526 18.7886 28.764 18.7886C27.6753 18.7886 26.7777 19.6862 26.7777 20.7749V23.678L22.9769 19.4761C22.1843 18.6835 20.9906 18.6835 20.1885 19.3806C19.3959 20.1733 19.3959 21.367 20.093 22.1691L26.7586 29.5796V49.3472C26.7586 50.4454 27.6562 51.3335 28.7449 51.3335C29.8335 51.3335 30.7312 50.4359 30.7312 49.3472V35.1183L39.0966 23.5729C39.7938 22.7612 39.6028 21.4625 38.7051 20.8704Z" fill="#C2E978"/>
</svg>
