<svg width="57" height="56" viewBox="0 0 57 56" fill="none" xmlns="http://www.w3.org/2000/svg">
<path fill-rule="evenodd" clip-rule="evenodd" d="M21.2008 7.58322C21.305 7.58327 21.4105 7.58331 21.5175 7.58331H35.149C35.2559 7.58331 35.3615 7.58327 35.4656 7.58322C37.8617 7.58215 39.5234 7.5814 41.0433 8.16519C41.5026 8.34164 41.9463 8.55654 42.3696 8.80759C43.7698 9.63815 44.7994 10.9425 46.2841 12.8232C46.3486 12.9049 46.414 12.9878 46.4803 13.0717L46.5373 13.1438C47.8894 14.855 48.9856 16.2423 49.7598 17.456C50.5634 18.7156 51.1152 19.9287 51.2593 21.3139C51.3379 22.0686 51.3179 22.8303 51.1999 23.5798C50.9833 24.9556 50.3686 26.138 49.5001 27.3537C48.6632 28.5252 47.4958 29.8531 46.0559 31.491L40.0715 38.2982C37.6992 40.9968 35.7955 43.1623 34.0818 44.6355C32.3085 46.1599 30.5105 47.148 28.3332 47.148C26.156 47.148 24.3579 46.1599 22.5847 44.6355C20.8709 43.1623 18.9673 40.9968 16.5949 38.2981L10.6106 31.491C9.17062 29.8531 8.00321 28.5252 7.16635 27.3537C6.29786 26.138 5.68311 24.9556 5.46655 23.5798C5.34856 22.8303 5.32858 22.0686 5.40709 21.3139C5.5512 19.9287 6.10309 18.7156 6.90663 17.456C7.6809 16.2423 8.77709 14.855 10.1292 13.1438L10.1861 13.0717C10.2524 12.9878 10.3178 12.9049 10.3824 12.8232C11.867 10.9425 12.8966 9.63815 14.2969 8.80759C14.7201 8.55654 15.1638 8.34164 15.6232 8.16519C17.143 7.5814 18.8047 7.58215 21.2008 7.58322ZM21.5175 11.0833C18.6789 11.0833 17.7161 11.1106 16.8782 11.4324C16.6026 11.5383 16.3364 11.6672 16.0824 11.8179C15.3105 12.2758 14.6921 13.0144 12.9323 15.2416C11.5098 17.042 10.5252 18.2914 9.85735 19.3384C9.2079 20.3564 8.95446 21.0401 8.8883 21.676C8.8412 22.1288 8.85319 22.5859 8.92398 23.0356C9.02339 23.6671 9.31235 24.3366 10.0143 25.3192C10.7362 26.3297 11.7849 27.5258 13.2999 29.2491L19.133 35.8842C21.6171 38.7099 23.3608 40.6872 24.8663 41.9814C26.334 43.2431 27.3439 43.648 28.3332 43.648C29.3225 43.648 30.3324 43.2431 31.8002 41.9814C33.3056 40.6872 35.0494 38.7099 37.5335 35.8842L43.3665 29.2491C44.8816 27.5257 45.9303 26.3297 46.6522 25.3192C47.3541 24.3366 47.6431 23.6671 47.7425 23.0356C47.8133 22.5859 47.8252 22.1288 47.7781 21.676C47.712 21.0401 47.4585 20.3564 46.8091 19.3384C46.1412 18.2914 45.1567 17.042 43.7341 15.2416C41.9743 13.0144 41.356 12.2758 40.584 11.8179C40.3301 11.6673 40.0639 11.5383 39.7882 11.4324C38.9504 11.1106 37.9875 11.0833 35.149 11.0833H21.5175Z" fill="#C2E978"/>
<path fill-rule="evenodd" clip-rule="evenodd" d="M5.58334 22.1666C5.58334 21.2001 6.36685 20.4166 7.33334 20.4166H49.3333C50.2998 20.4166 51.0833 21.2001 51.0833 22.1666C51.0833 23.1331 50.2998 23.9166 49.3333 23.9166H7.33334C6.36685 23.9166 5.58334 23.1331 5.58334 22.1666Z" fill="#C2E978"/>
<path fill-rule="evenodd" clip-rule="evenodd" d="M28.2226 8.01185C29.038 8.53074 29.2784 9.61239 28.7595 10.4278L21.0463 22.5485L28.6751 44.6285C28.9907 45.542 28.506 46.5384 27.5925 46.8541C26.679 47.1697 25.6826 46.685 25.367 45.7715L17.4623 22.8931C17.2881 22.3887 17.3535 21.8323 17.64 21.3821L25.8067 8.54873C26.3255 7.73333 27.4072 7.49296 28.2226 8.01185Z" fill="#C2E978"/>
<path fill-rule="evenodd" clip-rule="evenodd" d="M28.4545 8.01185C27.6391 8.53074 27.3988 9.61239 27.9176 10.4278L35.6308 22.5485L28.002 44.6285C27.6864 45.542 28.1711 46.5384 29.0846 46.8541C29.9981 47.1697 30.9945 46.685 31.3102 45.7715L39.2148 22.8931C39.3891 22.3887 39.3236 21.8323 39.0371 21.3821L30.8705 8.54873C30.3516 7.73333 29.2699 7.49296 28.4545 8.01185Z" fill="#C2E978"/>
</svg>
