<svg width="56" height="56" viewBox="0 0 56 56" fill="none" xmlns="http://www.w3.org/2000/svg">
<path fill-rule="evenodd" clip-rule="evenodd" d="M12.6961 12.695C10.0639 15.3268 8.86694 19.8725 8.86694 28C8.86694 36.1141 10.1044 40.6647 12.7588 43.3004C15.4165 45.9393 19.9707 47.1333 28.0013 47.1333C36.032 47.1333 40.5856 45.9393 43.2427 43.3005C45.8967 40.6649 47.1336 36.1143 47.1336 28C47.1336 19.8724 45.9371 15.3267 43.3054 12.6949C40.6738 10.0631 36.1284 8.86663 28.0013 8.86663C19.8743 8.86663 15.3283 10.0631 12.6961 12.695ZM10.0564 10.055C13.8416 6.27018 19.7961 5.1333 28.0013 5.1333C36.2066 5.1333 42.1606 6.27016 45.9454 10.0551C49.7301 13.8399 50.8669 19.7942 50.8669 28C50.8669 36.219 49.6808 42.1684 45.8735 45.9495C42.0693 49.7273 36.1235 50.8666 28.0013 50.8666C19.8792 50.8666 13.9329 49.7273 10.1283 45.9496C6.32032 42.1685 5.13361 36.2191 5.13361 28C5.13361 19.7941 6.27105 13.8398 10.0564 10.055Z" fill="#7E839A"/>
<path fill-rule="evenodd" clip-rule="evenodd" d="M36.3202 22.4801C37.0492 23.2091 37.0492 24.391 36.3202 25.1199L26.9869 34.4533C26.2579 35.1823 25.076 35.1823 24.347 34.4533L19.6803 29.7866C18.9514 29.0576 18.9514 27.8757 19.6803 27.1467C20.4093 26.4178 21.5912 26.4178 22.3202 27.1467L25.6669 30.4935L33.6803 22.4801C34.4093 21.7511 35.5912 21.7511 36.3202 22.4801Z" fill="#7E839A"/>
</svg>
