<svg width="56" height="56" viewBox="0 0 56 56" fill="none" xmlns="http://www.w3.org/2000/svg">
<path fill-rule="evenodd" clip-rule="evenodd" d="M28.0003 40.1333C29.0312 40.1333 29.8669 40.969 29.8669 42V51.3333C29.8669 52.3642 29.0312 53.2 28.0003 53.2C26.9693 53.2 26.1336 52.3642 26.1336 51.3333V42C26.1336 40.969 26.9693 40.1333 28.0003 40.1333Z" fill="#7E839A"/>
<path fill-rule="evenodd" clip-rule="evenodd" d="M20.3003 51.3332C20.3003 50.3023 21.136 49.4666 22.1669 49.4666H33.8336C34.8645 49.4666 35.7003 50.3023 35.7003 51.3332C35.7003 52.3642 34.8645 53.1999 33.8336 53.1999H22.1669C21.136 53.1999 20.3003 52.3642 20.3003 51.3332Z" fill="#7E839A"/>
<path fill-rule="evenodd" clip-rule="evenodd" d="M12.5711 12.0799C10.0427 14.1866 8.86694 17.7974 8.86694 24.5C8.86694 31.1866 10.081 34.8039 12.6335 36.916C15.3047 39.1262 19.9295 40.1333 28.0013 40.1333C36.0733 40.1333 40.6974 39.1262 43.368 36.9161C45.92 34.8041 47.1336 31.1868 47.1336 24.5C47.1336 17.7972 45.9583 14.1865 43.4304 12.0798C40.7856 9.87572 36.1692 8.86663 28.0013 8.86663C19.8336 8.86663 15.2165 9.8757 12.5711 12.0799ZM10.1813 9.21171C13.9534 6.06867 19.8369 5.1333 28.0013 5.1333C36.1658 5.1333 42.0488 6.06866 45.8204 9.21181C49.7089 12.4524 50.8669 17.5917 50.8669 24.5C50.8669 31.4243 49.6575 36.557 45.7482 39.7922C41.9576 42.9293 36.0822 43.8666 28.0013 43.8666C19.9204 43.8666 14.0447 42.9293 10.2535 39.7923C6.34366 36.5571 5.13361 31.4245 5.13361 24.5C5.13361 17.5915 6.29221 12.4522 10.1813 9.21171Z" fill="#7E839A"/>
</svg>
