<svg width="1368" height="395" viewBox="0 0 1368 395" fill="none" xmlns="http://www.w3.org/2000/svg">
<g opacity="0.2" clip-path="url(#clip0_179_2371)">
<path d="M1085.58 231.265C1086.68 229.954 1088.53 229.307 1090.81 229.427C1094.83 229.654 1097.91 231.547 1098.27 234.133C1098.62 236.719 1096.14 238.876 1092.07 239.43C1089.88 239.732 1087.89 239.238 1086.43 237.977C1085.76 237.405 1085.23 236.676 1084.9 235.855C1084.75 235.469 1084.64 235.063 1084.6 234.65C1084.52 234.048 1084.56 233.437 1084.73 232.855C1084.9 232.273 1085.19 231.731 1085.58 231.265Z" fill="#5C6481"/>
<path d="M1093.52 226.404C1092.4 225.81 1091.53 224.849 1091.04 223.683L1090.9 223.316C1090.47 222.029 1090.56 220.624 1091.15 219.402C1091.97 217.7 1093.68 216.521 1096.01 216.052C1100.1 215.188 1103.66 216.444 1104.61 219.112C1105.56 221.781 1103.54 224.734 1099.57 226.462C1097.42 227.373 1095.26 227.348 1093.52 226.404" fill="#5C6481"/>
<path d="M1083.12 197.988C1084.67 200.057 1084 203.577 1081.41 206.476C1079.94 208.113 1078.21 208.907 1076.56 208.695C1075.97 208.612 1075.4 208.406 1074.89 208.092C1074.38 207.778 1073.94 207.362 1073.6 206.87C1073.36 206.533 1073.16 206.166 1073.01 205.779C1072.69 204.96 1072.57 204.078 1072.65 203.203C1072.74 202.245 1073.04 201.318 1073.53 200.483C1074.01 199.649 1074.66 198.927 1075.45 198.365C1078.52 196.088 1081.56 195.908 1083.12 197.983" fill="#5C6481"/>
<path d="M1085.71 210.794L1085.55 210.432C1085.08 209.266 1085.01 207.977 1085.34 206.765C1085.87 204.873 1087.29 203.365 1089.35 202.521C1093.14 200.896 1096.58 201.478 1097.92 203.977C1099.25 206.476 1097.82 209.898 1094.39 212.295C1092.46 213.625 1090.4 214.015 1088.64 213.398C1087.36 212.948 1086.31 212.017 1085.71 210.804" fill="#5C6481"/>
<path d="M1074.11 211.219C1076.08 212.651 1078.43 213.487 1080.87 213.628C1085.25 213.877 1086.71 216.983 1086.96 217.595C1087.21 218.206 1088.38 221.431 1085.33 224.689C1085.3 224.712 1082.62 227.533 1081.94 231.112C1081.39 234.016 1079.39 237.216 1075.46 237.229C1074.43 237.23 1073.42 236.964 1072.53 236.457C1070.03 235.062 1069.22 232.281 1068.96 230.216V230.204L1068.54 226.369C1068.4 225.391 1068.05 224.453 1067.51 223.623L1065.33 220.455C1064.82 219.72 1064.41 218.927 1064.1 218.094C1063.34 216.082 1063.53 214.487 1063.9 213.408C1064.2 212.459 1064.75 211.609 1065.49 210.947C1068.96 207.876 1072.95 210.382 1074.12 211.246" fill="#5C6481"/>
<path d="M1159.21 218.875C1160.96 218.81 1162.71 217.724 1164.09 215.832C1166.53 212.462 1166.87 208.817 1165 206.987C1163.14 205.158 1159.94 205.872 1156.95 208.66C1155.34 210.19 1154.47 212.088 1154.5 213.992C1154.51 214.874 1154.73 215.742 1155.15 216.519C1155.35 216.883 1155.6 217.219 1155.9 217.517C1156.32 217.962 1156.84 218.312 1157.41 218.545C1157.98 218.778 1158.6 218.889 1159.21 218.87" fill="#5C6481"/>
<path d="M1168.28 215.463C1168.05 216.711 1168.26 218.001 1168.88 219.107L1169.1 219.445C1169.48 220.009 1169.98 220.487 1170.56 220.851C1171.14 221.215 1171.79 221.456 1172.47 221.559C1174.4 221.883 1176.55 221.15 1178.44 219.445C1181.83 216.449 1182.98 212.737 1181.29 210.438C1179.6 208.138 1175.91 208.191 1172.06 210.48C1169.99 211.711 1168.64 213.453 1168.28 215.473" fill="#5C6481"/>
<path d="M1184.85 240.811C1184.19 238.267 1180.73 236.884 1176.44 237.356C1174 237.623 1172.11 238.582 1171.08 240.102C1170.71 240.615 1170.46 241.197 1170.34 241.812C1170.22 242.427 1170.23 243.061 1170.37 243.672C1170.46 244.078 1170.61 244.469 1170.81 244.835C1171.25 245.609 1171.89 246.254 1172.66 246.708C1174.32 247.734 1176.5 247.918 1178.8 247.227C1183.05 245.979 1185.49 243.352 1184.85 240.821" fill="#5C6481"/>
<path d="M1175.89 231.175L1176.08 231.527C1176.74 232.628 1177.78 233.45 1179 233.838C1180.95 234.475 1183.25 234.15 1185.43 232.84C1189.47 230.416 1191.3 227.061 1190 224.527C1188.7 221.993 1184.83 221.391 1180.56 222.967C1178.16 223.87 1176.45 225.336 1175.76 227.191C1175.51 227.831 1175.39 228.515 1175.42 229.201C1175.44 229.888 1175.6 230.562 1175.89 231.185" fill="#5C6481"/>
<path d="M1167.19 240.551C1167.66 236.505 1170.11 233.561 1170.13 233.526L1170.15 233.514C1173.04 229.724 1171.47 226.671 1171.13 226.112C1170.79 225.553 1168.94 222.657 1164.27 223.132C1164.24 223.132 1160.16 223.586 1156.88 221.831C1154.21 220.413 1150.45 219.954 1147.73 222.902C1147.03 223.68 1146.53 224.625 1146.3 225.648C1145.61 228.474 1147.11 230.933 1148.52 232.505L1151.15 235.361C1151.8 236.109 1152.26 236.996 1152.51 237.953L1153.34 241.73V241.747C1153.53 242.622 1153.83 243.468 1154.24 244.266C1155.24 246.161 1156.61 247.057 1157.75 247.466C1158.76 247.834 1159.86 247.935 1160.92 247.761C1166.07 246.95 1167.03 242.019 1167.18 240.549" fill="#5C6481"/>
<path d="M1208.02 162.597C1208.69 161.037 1210.3 159.931 1212.5 159.404C1216.4 158.488 1219.9 159.476 1220.98 161.843C1222.05 164.21 1220.26 166.971 1216.53 168.648C1214.51 169.552 1212.44 169.607 1210.71 168.818C1209.9 168.448 1209.2 167.892 1208.65 167.198C1208.4 166.868 1208.18 166.507 1208.02 166.124C1207.78 165.568 1207.65 164.968 1207.65 164.361C1207.65 163.754 1207.78 163.153 1208.02 162.597Z" fill="#5C6481"/>
<path d="M1214.23 155.759C1212.99 155.494 1211.88 154.813 1211.08 153.83L1210.85 153.518C1210.07 152.411 1209.76 151.045 1209.98 149.711C1210.28 147.861 1211.56 146.241 1213.63 145.15C1217.3 143.195 1221.02 143.377 1222.72 145.672C1224.42 147.966 1223.33 151.361 1220.03 154.109C1218.23 155.585 1216.18 156.191 1214.23 155.759Z" fill="#5C6481"/>
<path d="M1196.19 131.442C1198.26 133.005 1198.62 136.505 1197.02 139.997C1196.11 141.974 1194.68 143.175 1193.07 143.41C1192.48 143.49 1191.88 143.446 1191.31 143.281C1190.74 143.116 1190.21 142.833 1189.76 142.451C1189.43 142.191 1189.14 141.894 1188.88 141.565C1188.35 140.868 1187.98 140.062 1187.81 139.206C1187.62 138.276 1187.63 137.316 1187.85 136.391C1188.06 135.467 1188.48 134.599 1189.06 133.849C1191.28 130.853 1194.11 129.872 1196.18 131.442" fill="#5C6481"/>
<path d="M1202.34 142.958L1202.07 142.653C1201.29 141.678 1200.85 140.473 1200.82 139.223C1200.78 137.284 1201.67 135.444 1203.37 134.053C1206.51 131.482 1209.92 131.058 1211.92 133.077C1213.92 135.097 1213.57 138.771 1211 141.997C1209.54 143.802 1207.72 144.76 1205.85 144.653C1204.5 144.561 1203.24 143.954 1202.33 142.958" fill="#5C6481"/>
<path d="M1191.47 146.485C1193.73 147.329 1196.19 147.502 1198.55 146.985H1198.56C1202.82 146.061 1205.07 148.595 1205.46 149.124C1205.86 149.653 1207.93 152.422 1205.93 156.364C1205.9 156.384 1204.16 159.829 1204.49 163.443C1204.79 166.384 1203.74 169.986 1199.99 171.065C1199.01 171.34 1197.97 171.353 1196.99 171.105C1194.21 170.423 1192.67 167.957 1191.87 166.042C1191.87 166.017 1191.14 164.107 1190.41 162.47C1190.01 161.571 1189.42 160.768 1188.68 160.113L1185.74 157.617C1185.06 157.035 1184.44 156.379 1183.91 155.66C1182.64 153.912 1182.39 152.362 1182.43 151.231C1182.46 150.248 1182.74 149.289 1183.26 148.45C1185.68 144.616 1190.14 145.971 1191.5 146.488" fill="#5C6481"/>
<path d="M1274.81 129.495C1276.49 128.928 1277.82 127.373 1278.57 125.156C1279.9 121.227 1279.15 117.649 1276.83 116.441C1274.52 115.233 1271.66 116.846 1269.64 120.4C1268.55 122.335 1268.26 124.38 1268.86 126.207C1269.13 127.048 1269.6 127.81 1270.24 128.426C1270.53 128.72 1270.87 128.972 1271.24 129.175C1271.78 129.476 1272.37 129.66 1272.99 129.716C1273.6 129.773 1274.22 129.7 1274.8 129.502" fill="#5C6481"/>
<path d="M1282.47 123.596C1282.62 124.857 1283.2 126.028 1284.12 126.904L1284.43 127.153C1284.96 127.577 1285.58 127.888 1286.24 128.067C1286.9 128.247 1287.59 128.291 1288.27 128.197C1290.21 127.947 1292.02 126.619 1293.34 124.452C1295.68 120.635 1295.66 116.743 1293.4 115.043C1291.13 113.343 1287.62 114.432 1284.61 117.719C1282.99 119.502 1282.22 121.561 1282.47 123.573" fill="#5C6481"/>
<path d="M1305.75 142.996C1304.37 140.749 1300.67 140.429 1296.74 142.112C1294.49 143.063 1292.98 144.543 1292.43 146.271C1292.24 146.868 1292.18 147.499 1292.25 148.122C1292.32 148.746 1292.52 149.347 1292.84 149.888C1293.04 150.251 1293.3 150.581 1293.6 150.867C1294.25 151.477 1295.04 151.908 1295.91 152.115C1297.79 152.594 1299.95 152.145 1301.92 150.829C1305.58 148.395 1307.11 145.215 1305.75 142.988" fill="#5C6481"/>
<path d="M1294.38 136.38L1294.66 136.659C1295.6 137.519 1296.83 138.005 1298.11 138.025C1300.16 138.082 1302.25 137.101 1303.92 135.231C1307.06 131.789 1307.78 128.074 1305.82 126.032C1303.85 123.99 1299.98 124.499 1296.38 127.208C1294.36 128.743 1293.17 130.648 1293.06 132.608C1293.01 133.293 1293.1 133.98 1293.33 134.628C1293.56 135.276 1293.91 135.872 1294.38 136.38Z" fill="#5C6481"/>
<path d="M1288.88 147.851C1288.1 143.831 1289.58 140.332 1289.58 140.292V140.274C1291.21 135.811 1288.81 133.362 1288.33 132.915C1287.85 132.468 1285.22 130.259 1280.91 132.078C1280.89 132.096 1277.11 133.699 1273.47 132.99C1270.51 132.425 1266.77 133.087 1265.06 136.714C1264.62 137.659 1264.42 138.703 1264.49 139.745C1264.68 142.651 1266.85 144.57 1268.65 145.644L1272 147.598C1272.84 148.12 1273.55 148.828 1274.06 149.668L1275.99 153.036C1276.43 153.818 1276.97 154.54 1277.6 155.185C1279.1 156.718 1280.69 157.147 1281.89 157.202C1282.97 157.253 1284.05 157.033 1285.02 156.56C1289.67 154.244 1289.16 149.289 1288.86 147.823" fill="#5C6481"/>
<path d="M1306.14 61.7655C1306.43 60.0729 1307.71 58.5726 1309.76 57.5216C1313.36 55.6593 1316.99 55.7741 1318.6 57.8387C1320.2 59.9032 1319.12 63.0012 1315.9 65.535C1314.16 66.9055 1312.17 67.4797 1310.28 67.1302C1309.41 66.9804 1308.59 66.6205 1307.89 66.0817C1307.56 65.8242 1307.26 65.5265 1307.01 65.1955C1306.63 64.715 1306.37 64.1631 1306.22 63.5743C1306.07 62.9855 1306.04 62.3723 1306.14 61.773" fill="#5C6481"/>
<path d="M1310.6 53.5149C1309.33 53.5665 1308.09 53.1793 1307.08 52.419L1306.77 52.1693C1305.75 51.2651 1305.12 49.9962 1305.03 48.637C1304.91 46.7447 1305.83 44.82 1307.64 43.2248C1310.84 40.3864 1314.57 39.6899 1316.71 41.5597C1318.86 43.4295 1318.53 47.0268 1315.9 50.5068C1314.48 52.3865 1312.6 53.4575 1310.6 53.5199" fill="#5C6481"/>
<path d="M1287.35 34.078C1289.75 35.089 1290.87 38.4966 1290.04 42.4059C1289.57 44.6077 1288.45 46.1929 1286.91 46.8744C1286.35 47.1081 1285.75 47.2247 1285.15 47.2169C1284.55 47.2092 1283.95 47.0773 1283.4 46.8295C1283.02 46.6638 1282.66 46.4489 1282.34 46.1904C1281.64 45.645 1281.09 44.9436 1280.72 44.1434C1279.91 42.4433 1279.93 40.4213 1280.76 38.4591C1282.32 34.8519 1284.96 33.0669 1287.36 34.078" fill="#5C6481"/>
<path d="M1295.98 43.9263L1295.65 43.6917C1294.65 42.9237 1293.94 41.8351 1293.65 40.6086C1293.18 38.6839 1293.68 36.6144 1295.09 34.7896C1297.68 31.3795 1301.03 30.0989 1303.42 31.6216C1305.81 33.1444 1306.21 36.9015 1304.35 40.7484C1303.31 42.9003 1301.7 44.3157 1299.84 44.6852C1298.51 44.9553 1297.12 44.6861 1295.98 43.9363" fill="#5C6481"/>
<path d="M1286.04 50.3495C1288.5 50.5494 1290.96 50.0563 1293.15 48.9266L1293.17 48.9141C1297.14 46.8696 1299.96 48.8043 1300.46 49.2187C1300.97 49.6331 1303.63 51.8224 1302.61 56.2086C1302.61 56.2435 1301.69 60.053 1302.93 63.498C1303.94 66.3064 1303.81 70.041 1300.46 72.093C1299.58 72.6272 1298.57 72.9161 1297.55 72.9293C1294.68 73.0217 1292.54 71.0595 1291.26 69.397L1288.92 66.3164C1288.3 65.5533 1287.52 64.9332 1286.64 64.499L1283.12 62.8889C1282.3 62.5163 1281.54 62.0487 1280.84 61.4959C1279.15 60.1503 1278.51 58.6875 1278.27 57.5641C1278.05 56.5836 1278.1 55.5624 1278.41 54.6059C1279.83 50.1124 1284.63 50.2272 1286.06 50.362" fill="#5C6481"/>
<path d="M1365.27 16.4437C1366.83 15.6948 1367.94 14.0372 1368.4 11.7805C1369.21 7.78627 1368.09 4.34376 1365.65 3.38765C1363.21 2.43153 1360.55 4.32878 1358.97 8.10581C1358.13 10.1528 1358.13 12.2198 1358.97 13.9374C1359.35 14.7352 1359.92 15.4279 1360.63 15.9544C1360.97 16.2047 1361.34 16.408 1361.73 16.5586C1362.29 16.7883 1362.9 16.8968 1363.51 16.877C1364.12 16.8572 1364.72 16.7096 1365.27 16.4437Z" fill="#5C6481"/>
<path d="M1381.72 32.6827C1380.88 30.3378 1380.71 27.807 1381.24 25.3733C1382.17 20.9472 1379.51 18.7778 1378.98 18.4034C1378.46 18.0289 1375.6 16.0967 1371.62 18.3035C1371.59 18.321 1368.15 20.3006 1364.47 20.051C1361.47 19.8438 1357.89 20.9896 1356.77 24.7941C1356.49 25.7894 1356.47 26.8369 1356.71 27.8422C1357.36 30.6506 1359.81 32.1909 1361.76 32.9872L1365.35 34.4252C1366.26 34.8158 1367.06 35.4054 1367.71 36.1502L1370.16 39.1458C1370.74 39.8407 1371.39 40.4628 1372.11 40.9981C1373.85 42.2638 1375.45 42.4835 1376.62 42.4011C1377.65 42.3272 1378.65 41.9911 1379.51 41.425C1383.57 38.7139 1382.23 34.0657 1381.72 32.6877" fill="#5C6481"/>
<path d="M7.37607 383.699C7.75151 381.989 9.11312 380.478 11.2306 379.48C14.9851 377.712 18.6169 378.015 20.1011 380.166C21.5854 382.318 20.3314 385.356 17.0225 387.763C15.2404 389.073 13.213 389.578 11.3357 389.193C10.4661 389.027 9.65105 388.648 8.96294 388.092C8.64025 387.828 8.35335 387.522 8.10943 387.184C7.74731 386.686 7.49478 386.117 7.3684 385.514C7.24202 384.912 7.24463 384.29 7.37607 383.689" fill="#5C6481"/>
<path d="M12.3238 375.453C11.0508 375.458 9.81661 375.016 8.83718 374.205L8.54433 373.938C8.05964 373.456 7.67693 372.883 7.41893 372.251C7.16094 371.619 7.03295 370.942 7.04256 370.26C7.04256 368.311 8.16889 366.381 10.1337 364.806C13.6554 362.06 17.5024 361.561 19.4898 363.615C21.4771 365.67 20.7963 369.277 17.8854 372.639C16.3285 374.472 14.3462 375.448 12.3238 375.45" fill="#5C6481"/>
<path d="M-1.82041 365.178L-2.13078 364.928C-3.09755 364.088 -3.73138 362.931 -3.91789 361.666C-4.23076 359.659 -3.47987 357.507 -1.86296 355.634C1.17563 352.14 4.77488 350.946 7.04256 352.656C9.31024 354.366 9.29522 358.268 7.04256 362.142C5.77606 364.337 4.01649 365.717 2.0792 366.057C1.4056 366.18 0.713998 366.167 0.0457048 366.017C-0.622589 365.868 -1.25386 365.586 -1.8104 365.188" fill="#5C6481"/>
<path d="M-12.4902 371.851C-8.44045 372.178 -5.12403 370.353 -5.09149 370.353C-0.889023 368.253 1.86423 370.335 2.35481 370.76C2.84539 371.184 5.35836 373.506 4.08686 377.984C4.08686 378.022 2.92048 381.906 4.05933 385.429C4.9654 388.297 4.73513 392.069 1.30607 394.138C0.418039 394.679 -0.595169 394.981 -1.6349 395.015C-4.53333 395.137 -6.68087 393.187 -7.94736 391.52H-7.96489L-10.2751 388.414C-10.8901 387.644 -11.669 387.02 -12.5553 386.587L-16.1095 385.027C-16.9301 384.669 -17.7021 384.209 -18.4072 383.659C-20.0942 382.316 -20.715 380.808 -20.9102 379.642C-21.1041 378.583 -21.0116 377.491 -20.6424 376.479C-18.9303 371.706 -13.977 371.736 -12.4902 371.851Z" fill="#5C6481"/>
<path d="M71.1088 345.047C72.7633 344.623 74.1124 343.225 74.9759 341.123C76.4777 337.428 76.0572 333.821 73.8746 332.386C71.692 330.95 68.6709 332.293 66.4433 335.718C65.2394 337.571 64.8514 339.593 65.3745 341.43C65.6112 342.284 66.0528 343.067 66.6611 343.712C66.9455 344.014 67.2697 344.276 67.6247 344.491C68.1356 344.818 68.709 345.036 69.3087 345.131C69.9085 345.226 70.5214 345.196 71.1088 345.042" fill="#5C6481"/>
<path d="M78.8679 339.985C78.9361 341.244 79.4343 342.442 80.2796 343.38L80.5574 343.659C81.5328 344.602 82.8408 345.125 84.1992 345.115C86.0689 345.095 87.8861 344.084 89.2877 342.209C91.7907 338.896 92.1811 335.202 90.1763 333.172C88.1714 331.143 84.6222 331.674 81.3934 334.53C79.6413 336.06 78.7427 337.988 78.8679 339.985Z" fill="#5C6481"/>
<path d="M100.159 361.516C98.9298 359.229 95.5133 358.333 91.7939 359.384C89.7039 359.986 88.2772 361.204 87.7891 362.752C87.619 363.322 87.5698 363.922 87.6448 364.512C87.7198 365.103 87.9172 365.671 88.2247 366.182C88.428 366.543 88.6751 366.879 88.9605 367.18C89.573 367.812 90.3185 368.301 91.1431 368.611C92.0382 368.935 92.9924 369.065 93.942 368.993C94.8916 368.92 95.8147 368.646 96.6496 368.189C99.9661 366.441 101.385 363.805 100.154 361.518" fill="#5C6481"/>
<path d="M89.6961 353.68L89.9464 353.984C90.7904 354.913 91.9217 355.534 93.1602 355.747C95.0775 356.081 97.0398 355.482 98.6817 354.022C101.713 351.311 102.664 348.031 100.972 345.739C99.2799 343.447 95.5856 343.243 91.9863 345.285C89.984 346.445 88.7325 348.08 88.5648 349.95C88.4347 351.292 88.8383 352.632 89.6886 353.68" fill="#5C6481"/>
<path d="M84.4798 363.87C84.0017 361.505 84.2164 359.052 85.0981 356.806V356.791C86.6749 352.741 84.5174 350.13 84.0543 349.646C83.5913 349.162 81.1734 346.71 76.9484 348.068C76.9134 348.088 73.2415 349.289 69.7049 348.385C66.824 347.636 63.1121 348.136 61.4451 351.648C61.0108 352.573 60.8377 353.598 60.9445 354.614C61.1748 357.457 63.3649 359.357 65.1445 360.458H65.157L68.4534 362.455C69.2849 362.987 69.9911 363.692 70.5233 364.522L72.5132 367.822C72.9817 368.585 73.5351 369.292 74.1626 369.931C75.6819 371.449 77.1962 371.956 78.325 372.083C79.3044 372.203 80.2981 372.07 81.2109 371.696C85.4184 369.906 84.7677 365.246 84.4798 363.845" fill="#5C6481"/>
<path d="M114.362 284.378C115.208 282.835 116.958 281.757 119.283 281.365C123.396 280.706 126.81 282.009 127.616 284.493C128.422 286.977 126.364 289.523 122.525 290.941C120.44 291.705 118.36 291.632 116.65 290.759C115.85 290.365 115.162 289.778 114.648 289.051C114.412 288.705 114.221 288.331 114.08 287.938C113.87 287.359 113.785 286.742 113.832 286.129C113.879 285.515 114.055 284.918 114.35 284.378" fill="#5C6481"/>
<path d="M121.494 277.792C120.265 277.453 119.199 276.685 118.49 275.628L118.275 275.288C117.945 274.69 117.741 274.032 117.674 273.352C117.608 272.673 117.68 271.987 117.887 271.337C118.46 269.444 120.1 267.887 122.467 266.941C126.652 265.243 130.529 265.919 131.818 268.438C133.107 270.957 131.418 274.22 127.659 276.656C125.621 277.957 123.444 278.366 121.501 277.8" fill="#5C6481"/>
<path d="M106.135 251.69C108.138 253.39 107.82 257.132 105.467 260.744C104.138 262.799 102.426 264.082 100.599 264.337C99.9759 264.429 99.3408 264.391 98.7337 264.225C98.1266 264.059 97.5607 263.769 97.072 263.373C96.7449 263.112 96.4575 262.805 96.2184 262.462C95.7202 261.724 95.4234 260.868 95.3574 259.981C95.1947 258.038 96.0157 256.006 97.6626 254.239C100.706 250.994 104.17 249.995 106.135 251.683" fill="#5C6481"/>
<path d="M110.778 263.987L110.553 263.66C109.855 262.584 109.582 261.288 109.787 260.023C110.067 257.973 111.414 256.091 113.574 254.731C117.539 252.184 121.388 252.089 123.065 254.361C124.742 256.633 123.566 260.352 120.244 263.485C118.37 265.233 116.275 266.082 114.302 265.889C113.617 265.824 112.952 265.621 112.347 265.295C111.742 264.968 111.208 264.523 110.778 263.987Z" fill="#5C6481"/>
<path d="M98.4413 267.592C100.9 268.424 103.534 268.596 106.08 268.091H106.1C110.798 267.18 112.858 269.971 113.204 270.503C113.549 271.035 115.304 273.998 112.803 277.967C112.781 278.002 110.551 281.43 110.673 285.147C110.753 288.172 109.484 291.722 105.622 292.86C104.612 293.144 103.546 293.169 102.524 292.933C99.6853 292.304 98.1285 289.862 97.34 287.918V287.903L95.9309 284.29C95.5519 283.378 94.9629 282.567 94.2113 281.924L91.1778 279.51C90.4774 278.949 89.8501 278.303 89.3106 277.588C88.0391 275.86 87.8563 274.217 87.9965 273.024C88.1214 271.949 88.5185 270.923 89.1504 270.044C92.199 265.777 97.0722 267.113 98.4539 267.607" fill="#5C6481"/>
<path d="M186.721 265.802C188.433 265.872 190.155 264.951 191.589 263.184C194.12 260.051 194.793 256.526 193.116 254.516C191.439 252.507 188.158 252.906 185.019 255.515C183.309 256.918 182.353 258.76 182.318 260.667C182.293 261.551 182.48 262.428 182.861 263.226C183.051 263.599 183.285 263.949 183.557 264.267C183.951 264.725 184.435 265.098 184.979 265.361C185.524 265.625 186.116 265.774 186.721 265.8" fill="#5C6481"/>
<path d="M195.649 263.221C195.341 264.442 195.463 265.731 195.994 266.873L196.177 267.225C196.845 268.41 197.948 269.29 199.253 269.679C201.06 270.226 203.088 269.747 204.998 268.351C208.394 265.912 209.851 262.455 208.502 259.946C207.153 257.437 203.611 256.95 199.666 258.728C197.549 259.689 196.117 261.292 195.639 263.221" fill="#5C6481"/>
<path d="M209.733 290.02C209.233 287.489 206.176 285.591 202.302 285.559C200.117 285.531 198.365 286.263 197.436 287.618C197.104 288.115 196.879 288.676 196.774 289.264C196.669 289.852 196.688 290.455 196.828 291.036C196.921 291.44 197.061 291.832 197.243 292.204C197.639 292.987 198.207 293.67 198.905 294.201C200.387 295.35 202.314 295.761 204.342 295.392C208.054 294.691 210.221 292.546 209.733 290.015" fill="#5C6481"/>
<path d="M201.981 279.473L202.129 279.84C202.682 280.971 203.589 281.892 204.714 282.463C206.466 283.35 208.534 283.332 210.541 282.391C214.296 280.676 216.185 277.755 215.224 275.089C214.263 272.423 210.771 271.167 206.714 272.078C204.432 272.618 202.767 273.861 202.039 275.573C201.508 276.814 201.492 278.215 201.994 279.468" fill="#5C6481"/>
<path d="M193.932 287.723C194.179 285.312 195.12 283.025 196.64 281.135H196.653C199.381 277.727 198.067 274.567 197.764 273.983C197.461 273.399 195.892 270.353 191.427 270.405C191.384 270.39 187.519 270.5 184.398 268.588C181.865 267.02 178.166 266.394 175.528 269.275C174.845 270.029 174.373 270.95 174.159 271.943C173.535 274.742 175.067 277.186 176.441 278.781L179.002 281.654C179.637 282.41 180.1 283.294 180.361 284.245L181.29 287.99C181.512 288.854 181.829 289.691 182.236 290.486C183.237 292.389 184.528 293.307 185.58 293.759C186.482 294.173 187.478 294.34 188.466 294.243C193.011 293.764 193.782 289.123 193.927 287.693" fill="#5C6481"/>
<path d="M245.315 219.684C246.519 218.416 248.474 217.827 250.799 218.049C254.931 218.479 257.89 220.605 258.058 223.219C258.225 225.833 255.555 227.753 251.485 228.132C249.277 228.337 247.282 227.738 245.873 226.439C245.216 225.844 244.713 225.098 244.409 224.265C244.271 223.87 244.187 223.457 244.159 223.039C244.109 222.429 244.188 221.815 244.391 221.237C244.594 220.659 244.917 220.13 245.338 219.684" fill="#5C6481"/>
<path d="M253.825 215.178C252.73 214.524 251.9 213.507 251.48 212.305L251.367 211.928C251.202 211.268 251.172 210.581 251.278 209.909C251.384 209.237 251.625 208.594 251.985 208.016C253.009 206.361 254.944 205.235 257.444 204.938C261.875 204.394 265.401 205.952 266.047 208.72C266.693 211.488 264.265 214.254 260.04 215.63C257.76 216.379 255.562 216.229 253.83 215.178" fill="#5C6481"/>
<path d="M245.601 186.053C247.075 188.207 245.891 191.727 242.755 194.585C241.003 196.221 239.051 196.994 237.249 196.76C236.629 196.679 236.034 196.471 235.499 196.149C234.965 195.827 234.504 195.397 234.145 194.888C233.908 194.545 233.717 194.173 233.577 193.782C233.281 192.942 233.215 192.039 233.384 191.165C233.702 189.266 234.981 187.526 236.968 186.275C240.638 183.953 244.129 183.911 245.598 186.053" fill="#5C6481"/>
<path d="M247.01 199.089L246.867 198.72C246.476 197.507 246.533 196.195 247.027 195.02C247.811 193.13 249.545 191.652 251.905 190.889C256.291 189.486 259.957 190.312 261.024 192.933C262.09 195.554 260.085 198.902 256.155 201.046C253.94 202.24 251.728 202.559 249.898 201.84C249.258 201.597 248.672 201.229 248.176 200.757C247.68 200.286 247.284 199.72 247.01 199.094" fill="#5C6481"/>
<path d="M234.385 199.301C236.497 200.761 238.961 201.633 241.523 201.825H241.536C246.244 202.177 247.505 205.382 247.701 206.006C247.896 206.63 248.855 209.908 245.448 213.091C245.423 213.109 242.419 215.86 241.558 219.437C240.86 222.38 238.715 225.498 234.703 225.511C233.658 225.53 232.628 225.272 231.717 224.762C229.159 223.389 228.325 220.613 228.093 218.521V218.506L227.712 214.649C227.584 213.672 227.233 212.738 226.686 211.918L224.433 208.757C223.91 208.03 223.483 207.239 223.162 206.403C222.411 204.394 222.649 202.781 223.099 201.66C223.497 200.667 224.135 199.788 224.956 199.101C228.941 195.898 233.201 198.432 234.397 199.286" fill="#5C6481"/>
<path d="M319.951 218.85C321.603 219.302 323.493 218.775 325.287 217.352C328.463 214.856 329.888 211.551 328.689 209.227C327.49 206.902 324.218 206.57 320.569 208.443C318.599 209.441 317.255 211.007 316.787 212.859C316.567 213.716 316.555 214.613 316.755 215.475C316.852 215.88 317.002 216.271 317.203 216.636C317.484 217.173 317.874 217.646 318.348 218.025C318.822 218.405 319.369 218.682 319.956 218.84" fill="#5C6481"/>
<path d="M329.246 218.298C328.674 219.419 328.508 220.702 328.778 221.93L328.881 222.312C329.266 223.619 330.148 224.724 331.339 225.391C332.991 226.314 335.078 226.279 337.243 225.351C341.108 223.708 343.28 220.645 342.524 217.901C341.768 215.158 338.425 213.922 334.169 214.786C331.889 215.27 330.135 216.518 329.239 218.298" fill="#5C6481"/>
<path d="M337.091 247.524C337.164 244.932 334.588 242.439 330.801 241.532C328.656 241.033 326.782 241.373 325.545 242.483C325.108 242.893 324.762 243.388 324.527 243.938C324.292 244.488 324.174 245.081 324.181 245.679C324.178 246.094 324.225 246.508 324.321 246.912C324.535 247.764 324.94 248.556 325.505 249.229C326.707 250.672 328.509 251.523 330.581 251.595C334.401 251.698 337.004 250.097 337.089 247.516" fill="#5C6481"/>
<path d="M331.845 235.538L331.918 235.928C332.195 237.156 332.877 238.255 333.855 239.051C335.374 240.299 337.397 240.726 339.577 240.244C343.626 239.408 346.112 236.954 345.766 234.135C345.421 231.317 342.28 229.352 338.092 229.357C335.742 229.357 333.837 230.233 332.741 231.741C331.957 232.842 331.635 234.204 331.845 235.538Z" fill="#5C6481"/>
<path d="M322.088 241.825C322.879 239.527 324.316 237.505 326.228 236H326.245C329.687 233.269 329.096 229.897 328.934 229.26C328.771 228.624 327.905 225.311 323.532 224.39C323.492 224.39 319.675 223.606 317.054 221.067C314.937 219.005 311.46 217.542 308.227 219.769C307.386 220.358 306.716 221.157 306.284 222.086C305.033 224.659 305.964 227.395 306.953 229.253L308.797 232.635C309.253 233.512 309.51 234.477 309.548 235.464L309.591 239.311C309.604 240.207 309.722 241.098 309.944 241.967C310.487 244.041 311.55 245.23 312.474 245.906C313.27 246.507 314.21 246.889 315.2 247.015C319.808 247.546 321.625 243.195 322.088 241.82" fill="#5C6481"/>
<path d="M387.375 186.854C388.851 185.906 390.911 185.796 393.131 186.555C397.063 187.918 399.439 190.711 398.963 193.27C398.488 195.829 395.459 197.09 391.402 196.515C389.209 196.201 387.397 195.132 386.331 193.56C385.825 192.835 385.509 191.996 385.41 191.118C385.365 190.703 385.374 190.283 385.437 189.87C385.53 189.261 385.751 188.678 386.085 188.159C386.419 187.64 386.858 187.198 387.375 186.859" fill="#5C6481"/>
<path d="M396.776 184.47C395.863 183.585 395.294 182.405 395.169 181.14L395.149 180.743C395.143 180.061 395.278 179.386 395.544 178.757C395.81 178.129 396.202 177.562 396.696 177.091C398.1 175.716 400.273 175.094 402.803 175.399C407.309 175.898 410.377 178.307 410.312 181.14C410.247 183.974 407.201 186.041 402.738 186.383C400.32 186.55 398.213 185.911 396.776 184.47Z" fill="#5C6481"/>
<path d="M395.755 154.239C396.688 156.698 394.638 159.811 390.856 161.878C388.711 163.059 386.601 163.361 384.884 162.714C384.294 162.498 383.755 162.162 383.302 161.728C382.849 161.293 382.491 160.77 382.251 160.19C382.091 159.805 381.989 159.399 381.948 158.985C381.86 158.096 382.008 157.2 382.376 156.386C383.155 154.593 384.847 153.206 387.132 152.452C391.339 151.034 394.833 151.808 395.767 154.239" fill="#5C6481"/>
<path d="M393.968 167.248L393.923 166.853C393.823 165.574 394.204 164.303 394.991 163.288C396.213 161.648 398.29 160.592 400.831 160.44C405.534 160.098 408.965 161.806 409.356 164.622C409.746 167.437 406.915 170.149 402.518 171.314C400.035 171.941 397.792 171.716 396.155 170.595C395.584 170.212 395.097 169.717 394.723 169.141C394.349 168.565 394.095 167.919 393.978 167.243" fill="#5C6481"/>
<path d="M381.443 164.549C384.156 167.592 387.86 168.613 387.895 168.623H387.913C392.461 170.071 392.919 173.464 392.986 174.115C393.054 174.767 393.172 178.202 389.077 180.483C389.042 180.483 385.448 182.45 383.778 185.768C382.404 188.454 379.591 190.973 375.661 190.122C374.637 189.89 373.689 189.401 372.908 188.701C370.718 186.774 370.537 183.913 370.78 181.826V181.809L371.281 177.979C371.385 176.998 371.257 176.005 370.908 175.081L369.406 171.504V171.491C369.066 170.664 368.828 169.798 368.7 168.913C368.42 166.781 369.038 165.255 369.729 164.289C370.35 163.406 371.187 162.695 372.159 162.222C376.842 159.948 380.467 163.438 381.435 164.541" fill="#5C6481"/>
<path d="M459.733 205.03C461.195 205.921 463.147 205.899 465.24 205.075C468.954 203.577 471.262 200.784 470.784 198.228C470.306 195.671 467.24 194.443 463.223 195.197C461.045 195.616 459.323 196.757 458.367 198.402C457.91 199.159 457.647 200.016 457.601 200.899C457.585 201.318 457.622 201.737 457.711 202.147C457.833 202.74 458.074 203.302 458.421 203.799C458.767 204.296 459.211 204.717 459.726 205.038" fill="#5C6481"/>
<path d="M468.762 207.077C467.899 207.999 467.38 209.189 467.293 210.447V210.844C467.294 212.197 467.823 213.497 468.769 214.467C470.076 215.802 472.061 216.401 474.391 216.099C478.516 215.615 481.472 213.321 481.535 210.477C481.597 207.634 478.759 205.462 474.466 205.11C472.153 204.938 470.131 205.609 468.774 207.077" fill="#5C6481"/>
<path d="M467.983 237.316C468.774 234.852 467.067 231.759 463.728 229.827C461.853 228.726 459.994 228.579 458.529 229.295C458.003 229.569 457.539 229.949 457.168 230.411C456.796 230.873 456.524 231.407 456.369 231.979C456.258 232.38 456.189 232.791 456.164 233.207C456.139 234.082 456.305 234.953 456.65 235.758C457.028 236.632 457.592 237.413 458.304 238.046C459.015 238.68 459.857 239.152 460.77 239.428C464.306 240.616 467.185 239.782 467.983 237.323" fill="#5C6481"/>
<path d="M466.386 224.362L466.343 224.752C466.265 226.003 466.604 227.245 467.307 228.284C468.391 229.897 470.18 230.9 472.368 231.06C476.415 231.372 479.456 229.754 479.932 226.956C480.408 224.158 478.007 221.364 474.043 220.183C471.812 219.542 469.762 219.809 468.303 220.96C467.246 221.803 466.559 223.023 466.386 224.362Z" fill="#5C6481"/>
<path d="M455.461 227.695C456.824 225.707 458.737 224.158 460.967 223.236H460.982C464.987 221.564 465.375 218.194 465.395 217.527C465.415 216.86 465.528 213.42 461.618 211.328C461.586 211.328 458.174 209.511 456.362 206.348C454.905 203.784 451.979 201.425 448.28 202.694C447.318 203.031 446.46 203.612 445.792 204.381C443.912 206.52 444.07 209.431 444.51 211.461V211.476L445.366 215.22C445.552 216.189 445.534 217.185 445.311 218.146L444.333 221.866V221.881C444.107 222.746 443.984 223.635 443.967 224.529C443.927 226.671 444.621 228.094 445.306 229C445.889 229.793 446.672 230.416 447.577 230.805C451.757 232.553 454.64 228.891 455.458 227.69" fill="#5C6481"/>
<path d="M533.495 193.911C535.189 193.412 537.177 193.926 539.071 195.304C542.418 197.761 543.87 201.119 542.661 203.423C541.452 205.727 538.2 206.066 534.486 204.306C532.484 203.348 531.072 201.843 530.516 200C530.252 199.155 530.199 198.259 530.361 197.389C530.442 196.981 530.576 196.585 530.759 196.211C531.027 195.657 531.409 195.166 531.88 194.769C532.352 194.373 532.902 194.081 533.495 193.911Z" fill="#5C6481"/>
<path d="M543.167 194.368C542.559 193.249 542.364 191.952 542.616 190.704L542.714 190.327C542.907 189.672 543.233 189.064 543.671 188.539C544.109 188.015 544.651 187.586 545.262 187.279C546.999 186.37 549.246 186.422 551.559 187.438C555.676 189.213 557.902 192.396 557.028 195.097C556.154 197.798 552.655 198.894 548.288 197.931C545.942 197.407 544.123 196.158 543.167 194.368Z" fill="#5C6481"/>
<path d="M551.054 165.163C551.217 167.787 548.374 170.181 544.169 171.057C541.786 171.556 539.703 171.204 538.262 170.109C537.761 169.731 537.345 169.252 537.043 168.703C536.741 168.154 536.56 167.547 536.51 166.923C536.474 166.506 536.496 166.086 536.577 165.675C536.755 164.8 537.157 163.986 537.746 163.313C538.998 161.848 541.037 160.987 543.405 160.942C547.815 160.829 550.897 162.557 551.059 165.156" fill="#5C6481"/>
<path d="M545.55 177.091L545.618 176.704C545.9 175.457 546.628 174.356 547.665 173.606C549.31 172.375 551.585 171.996 554.03 172.567C558.578 173.591 561.304 176.22 560.871 178.998C560.425 181.822 556.971 183.604 552.461 183.449C549.928 183.347 547.855 182.451 546.629 180.928C546.2 180.393 545.884 179.778 545.699 179.119C545.513 178.46 545.463 177.77 545.55 177.091Z" fill="#5C6481"/>
<path d="M534.444 170.848C536.116 174.575 539.35 176.607 539.377 176.634H539.392C543.289 179.348 542.736 182.72 542.586 183.359C542.436 183.999 541.585 187.311 537.004 188.292C536.964 188.292 532.96 189.134 530.382 191.787C528.279 193.949 524.843 195.559 521.346 193.56C520.44 193.035 519.68 192.294 519.133 191.403C517.616 188.921 518.29 186.118 519.146 184.201V184.186L520.77 180.673C521.158 179.769 521.33 178.787 521.271 177.805C521.156 176.02 520.908 173.966 520.9 173.946C520.821 173.052 520.853 172.153 520.993 171.267C521.353 169.153 522.4 167.894 523.343 167.155C524.202 166.503 525.21 166.074 526.277 165.907C531.423 165.141 533.851 169.492 534.444 170.855" fill="#5C6481"/>
<path d="M598.119 231.44C599.335 232.663 601.253 233.152 603.53 232.85C607.535 232.313 610.458 230.132 610.581 227.525C610.704 224.919 608.038 223.007 603.948 222.767C601.741 222.647 599.778 223.319 598.427 224.682C597.796 225.3 597.329 226.065 597.07 226.909C596.946 227.308 596.874 227.722 596.857 228.139C596.828 228.746 596.924 229.351 597.14 229.919C597.355 230.487 597.685 231.004 598.109 231.44" fill="#5C6481"/>
<path d="M606.528 235.638C605.459 236.319 604.662 237.35 604.275 238.554L604.172 238.934C603.854 240.259 604.074 241.656 604.783 242.821C605.784 244.446 607.634 245.497 610.039 245.759C614.294 246.258 617.746 244.68 618.419 241.922C619.093 239.163 616.76 236.412 612.612 235.067C610.36 234.343 608.21 234.538 606.54 235.638" fill="#5C6481"/>
<path d="M598.682 264.861C600.068 262.659 599.015 259.217 596.086 256.506C594.434 254.973 592.612 254.314 590.945 254.639C590.355 254.766 589.797 255.014 589.306 255.366C588.816 255.718 588.403 256.168 588.094 256.686C587.876 257.04 587.703 257.42 587.579 257.817C587.328 258.661 587.28 259.552 587.439 260.418C587.764 262.288 588.94 263.938 590.75 265.056C594.106 267.128 597.293 267.053 598.682 264.861Z" fill="#5C6481"/>
<path d="M600.07 251.855L599.942 252.23C599.566 253.435 599.615 254.733 600.082 255.907C600.806 257.747 602.413 259.152 604.615 259.851C608.697 261.152 612.174 260.273 613.258 257.664C614.342 255.056 612.507 251.743 608.752 249.658C606.658 248.498 604.535 248.265 602.798 249.029C601.549 249.576 600.565 250.591 600.06 251.855" fill="#5C6481"/>
<path d="M588.233 252.292C590.128 250.716 592.434 249.709 594.881 249.389C599.313 248.782 600.507 245.592 600.698 244.957C600.888 244.323 601.781 241.006 598.422 237.993C598.402 237.973 595.441 235.381 594.48 231.846C593.697 228.968 591.437 225.985 587.509 226.222C586.485 226.298 585.498 226.637 584.644 227.206C582.241 228.781 581.62 231.612 581.527 233.696V233.711L581.382 237.561C581.308 238.543 581.027 239.499 580.559 240.367L578.612 243.692V243.704C578.159 244.478 577.798 245.301 577.538 246.158C576.942 248.213 577.25 249.785 577.708 250.844C578.095 251.771 578.719 252.581 579.518 253.193C583.272 256.039 587.134 253.208 588.238 252.282" fill="#5C6481"/>
<path d="M672.629 234.67C674.333 234.391 676.193 235.105 677.885 236.685C680.841 239.488 681.915 242.961 680.471 245.13C679.026 247.299 675.742 247.292 672.296 245.098C670.421 243.914 669.225 242.217 668.927 240.334C668.776 239.463 668.843 238.568 669.122 237.728C669.258 237.333 669.441 236.956 669.668 236.605C670.002 236.095 670.439 235.66 670.951 235.327C671.463 234.994 672.039 234.77 672.641 234.67" fill="#5C6481"/>
<path d="M681.957 236.183C681.492 235.005 681.452 233.702 681.844 232.498L681.987 232.131C682.247 231.507 682.627 230.941 683.107 230.464C683.587 229.987 684.156 229.609 684.783 229.353C686.562 228.624 688.688 228.886 690.79 230.072C694.529 232.194 696.389 235.484 695.295 238.112C694.202 240.741 690.695 241.592 686.535 240.222C684.282 239.493 682.668 238.048 681.942 236.183" fill="#5C6481"/>
<path d="M692.878 207.974C692.703 210.575 689.8 212.717 685.77 213.194C683.487 213.443 681.587 212.912 680.401 211.658C679.982 211.215 679.661 210.689 679.458 210.114C679.255 209.539 679.175 208.928 679.222 208.321C679.255 207.904 679.339 207.493 679.472 207.097C679.762 206.266 680.248 205.516 680.889 204.911C682.268 203.595 684.233 202.958 686.418 203.126C690.453 203.443 693.043 205.385 692.881 207.974" fill="#5C6481"/>
<path d="M686.298 219.28L686.408 218.898C686.82 217.705 687.629 216.688 688.701 216.017C690.398 214.956 692.543 214.769 694.75 215.518C698.858 216.883 701.143 219.632 700.47 222.375C699.796 225.119 696.347 226.717 692.092 226.197C689.692 225.898 687.822 224.829 686.856 223.189C686.509 222.608 686.281 221.964 686.185 221.294C686.089 220.624 686.128 219.942 686.298 219.287" fill="#5C6481"/>
<path d="M676.742 211.95C677.41 214.347 678.725 216.514 680.544 218.216H680.559C683.87 221.304 682.949 224.605 682.719 225.219C682.488 225.833 681.274 229.043 676.749 229.515C676.707 229.515 672.744 229.882 669.886 232.194C667.556 234.076 663.961 235.189 660.875 232.72C660.062 232.078 659.435 231.231 659.061 230.266C657.984 227.598 659.098 224.924 660.229 223.159V223.144L662.347 219.911C662.863 219.071 663.183 218.126 663.283 217.145L663.576 213.296V213.279C663.641 212.386 663.818 211.506 664.102 210.657C664.79 208.623 665.969 207.527 666.977 206.933C667.862 206.393 668.874 206.098 669.911 206.079C674.787 205.967 676.364 210.54 676.739 211.943" fill="#5C6481"/>
<path d="M735.332 275.358C736.621 276.539 738.611 276.999 740.924 276.607C745.001 275.903 747.812 273.574 747.774 270.962C747.737 268.351 744.984 266.589 740.881 266.516C738.666 266.464 736.719 267.21 735.397 268.603C734.79 269.238 734.343 270.008 734.096 270.85C733.985 271.257 733.927 271.676 733.926 272.098C733.914 272.71 734.033 273.318 734.276 273.88C734.518 274.442 734.878 274.946 735.332 275.358Z" fill="#5C6481"/>
<path d="M744.139 279.278C743.089 279.995 742.329 281.062 741.997 282.288L741.916 282.678C741.795 283.348 741.809 284.036 741.959 284.701C742.109 285.366 742.392 285.993 742.79 286.547C743.936 288.13 745.951 289.083 748.467 289.238C752.94 289.473 756.371 287.663 756.809 284.845C757.247 282.026 754.624 279.472 750.301 278.379C747.964 277.78 745.769 278.114 744.129 279.278" fill="#5C6481"/>
<path d="M737.972 308.897C739.301 306.65 737.862 303.215 734.548 300.574C732.668 299.076 730.679 298.435 728.916 298.797C728.097 298.962 727.341 299.351 726.731 299.921C726.121 300.49 725.682 301.218 725.462 302.022C725.231 302.88 725.225 303.783 725.445 304.643C725.898 306.531 727.295 308.171 729.344 309.277C733.169 311.314 736.663 311.159 737.972 308.897Z" fill="#5C6481"/>
<path d="M738.477 295.786L738.365 296.161C738.049 297.4 738.195 298.711 738.775 299.85C739.676 301.685 741.529 303.021 743.949 303.632C748.454 304.736 752.066 303.65 752.96 300.954C753.853 298.258 751.565 295.08 747.483 293.215C745.18 292.144 742.955 292.024 741.171 292.853C740.548 293.136 739.989 293.543 739.528 294.048C739.068 294.553 738.714 295.146 738.49 295.791" fill="#5C6481"/>
<path d="M725.883 296.456C727.883 294.853 730.279 293.818 732.819 293.46C737.472 292.778 738.513 289.486 738.666 288.857C738.818 288.228 739.547 284.887 735.935 281.957C735.9 281.927 732.716 279.415 731.612 275.883C730.709 273.022 728.358 270.071 724.354 270.321C723.312 270.389 722.306 270.724 721.433 271.295C718.997 272.86 718.369 275.683 718.287 277.785V277.8L718.174 281.67C718.127 282.653 717.848 283.612 717.358 284.468L715.356 287.781V287.796C714.891 288.561 714.524 289.381 714.262 290.237C713.659 292.302 714.027 293.887 714.532 294.96C714.98 295.92 715.67 296.746 716.534 297.359C720.689 300.29 724.744 297.437 725.868 296.486" fill="#5C6481"/>
<path d="M809.752 270.455C811.359 269.856 813.269 270.223 815.181 271.454C818.55 273.611 820.275 276.808 819.314 279.225C818.353 281.642 815.116 282.278 811.304 280.768C809.247 279.936 807.773 278.504 807.142 276.701C806.84 275.87 806.747 274.978 806.871 274.102C806.934 273.692 807.049 273.291 807.214 272.909C807.445 272.349 807.788 271.843 808.224 271.422C808.659 271 809.177 270.673 809.745 270.46" fill="#5C6481"/>
<path d="M819.018 270.156C818.349 269.083 818.065 267.816 818.212 266.561L818.275 266.169C818.539 264.842 819.311 263.67 820.427 262.902C821.967 261.841 824.032 261.626 826.264 262.357C830.214 263.63 832.68 266.441 832.201 269.247C831.723 272.053 828.515 273.636 824.227 273.164C821.924 272.914 820.062 271.851 819.018 270.156Z" fill="#5C6481"/>
<path d="M824.039 240.329C824.347 242.905 822.069 245.596 818.422 246.862C816.357 247.576 814.495 247.394 813.193 246.403C812.727 246.033 812.342 245.572 812.063 245.047C811.783 244.523 811.615 243.947 811.569 243.355C811.529 242.939 811.541 242.519 811.604 242.106C811.739 241.242 812.067 240.418 812.565 239.697C813.108 238.914 813.814 238.256 814.634 237.769C815.455 237.283 816.371 236.978 817.321 236.877C821.04 236.397 823.723 237.74 824.039 240.324" fill="#5C6481"/>
<path d="M819.994 252.724L820.029 252.337C820.194 251.095 820.762 249.941 821.646 249.051C823.027 247.681 824.98 247.054 827.152 247.304C831.197 247.768 833.875 249.93 833.803 252.766C833.73 255.602 830.842 257.899 826.722 258.293C824.411 258.49 822.447 257.856 821.235 256.443C820.351 255.412 819.902 254.078 819.984 252.724" fill="#5C6481"/>
<path d="M809.85 247.386C810.816 249.597 812.405 251.481 814.422 252.811H814.435C818.059 255.222 817.799 258.597 817.701 259.257C817.604 259.916 817.041 263.318 812.803 264.616C812.765 264.616 809.049 265.755 806.693 268.516C804.769 270.782 801.437 272.51 798.048 270.578C797.156 270.082 796.419 269.349 795.921 268.461C794.467 265.984 795.17 263.183 795.988 261.256L797.54 257.734C797.91 256.819 798.08 255.836 798.041 254.85L797.768 251.011V250.998C797.708 250.106 797.752 249.21 797.898 248.327C798.271 246.215 799.217 244.937 800.071 244.188C800.801 243.525 801.691 243.063 802.654 242.845C807.134 241.897 809.271 246.091 809.852 247.391" fill="#5C6481"/>
<path d="M880.118 295.29C881.692 296.073 883.75 295.966 885.875 294.95C889.629 293.123 891.664 290.102 890.898 287.606C890.132 285.109 886.974 284.203 883.007 285.247C880.869 285.816 879.197 287.066 878.308 288.766C877.896 289.549 877.678 290.419 877.673 291.303C877.674 291.725 877.733 292.145 877.848 292.551C878.008 293.144 878.293 293.696 878.685 294.17C879.076 294.643 879.565 295.028 880.118 295.297" fill="#5C6481"/>
<path d="M889.747 296.595C888.936 297.578 888.504 298.818 888.528 300.09L888.553 300.487C888.626 301.167 888.837 301.824 889.172 302.42C889.508 303.015 889.961 303.537 890.505 303.952C892.072 305.173 894.31 305.497 896.783 304.923C901.203 303.91 903.974 301.141 903.583 298.33C903.193 295.519 899.924 293.837 895.444 293.999C893.023 294.101 891.008 295.02 889.747 296.595Z" fill="#5C6481"/>
<path d="M892.224 326.764C892.872 324.23 890.472 321.334 886.467 319.732C884.195 318.821 882.047 318.733 880.418 319.582C879.853 319.864 879.353 320.26 878.95 320.745C878.547 321.231 878.25 321.794 878.077 322.4C877.958 322.805 877.903 323.227 877.915 323.649C877.932 324.537 878.18 325.406 878.636 326.17C879.619 327.85 881.459 329.038 883.819 329.532C888.192 330.456 891.591 329.283 892.229 326.771" fill="#5C6481"/>
<path d="M888.948 314.03V314.429C889 315.713 889.523 316.933 890.417 317.857C891.831 319.355 894.021 320.134 896.562 320.016C901.282 319.824 904.491 317.685 904.546 314.864C904.601 312.043 901.493 309.679 896.98 309.022C894.444 308.658 892.224 309.187 890.722 310.468C890.2 310.91 889.773 311.454 889.469 312.066C889.164 312.679 888.989 313.347 888.953 314.03" fill="#5C6481"/>
<path d="M876.756 318.159C878.292 316.069 880.351 314.417 882.728 313.371H882.748C887.123 311.429 887.189 307.959 887.161 307.324C887.161 306.648 886.886 303.28 882.543 301.448C882.506 301.428 878.704 299.915 876.654 296.795C874.979 294.273 871.898 292.099 868.078 293.377C867.092 293.732 866.208 294.323 865.505 295.1C863.536 297.249 863.676 300.127 864.156 302.182V302.197L865.095 305.956C865.308 306.919 865.29 307.918 865.04 308.872C864.594 310.62 863.964 312.569 863.951 312.594V312.609C863.703 313.467 863.562 314.351 863.531 315.243C863.488 317.395 864.281 318.843 865.08 319.736C865.804 320.545 866.722 321.158 867.748 321.516C872.699 323.264 875.92 319.372 876.759 318.171" fill="#5C6481"/>
<path d="M950.034 269.003C951.401 267.962 953.34 267.73 955.541 268.354C959.408 269.462 961.993 271.966 961.775 274.577C961.557 277.188 958.652 278.736 954.564 278.399C952.367 278.224 950.525 277.283 949.386 275.743C948.854 275.034 948.502 274.208 948.36 273.334C948.299 272.921 948.291 272.501 948.335 272.086C948.392 271.484 948.572 270.901 948.865 270.372C949.158 269.842 949.557 269.379 950.037 269.01" fill="#5C6481"/>
<path d="M958.842 265.997C957.88 265.176 957.233 264.048 957.012 262.804L956.957 262.412C956.824 261.062 957.218 259.712 958.056 258.643C959.225 257.145 961.159 256.396 963.522 256.438C967.702 256.488 970.899 258.478 971.246 261.304C971.594 264.13 968.971 266.546 964.739 267.375C962.436 267.784 960.346 267.298 958.852 265.997" fill="#5C6481"/>
<path d="M954.903 235.991C955.965 238.35 954.553 241.645 951.412 243.899C949.627 245.177 947.78 245.572 946.225 245.01C945.67 244.791 945.165 244.461 944.742 244.04C944.319 243.618 943.988 243.115 943.767 242.561C943.601 242.179 943.487 241.777 943.427 241.365C943.297 240.499 943.369 239.614 943.637 238.779C944.198 236.987 945.53 235.534 947.392 234.683C950.851 233.135 953.847 233.639 954.901 235.991" fill="#5C6481"/>
<path d="M954.653 249.059L954.575 248.667C954.366 247.43 954.575 246.159 955.169 245.052C956.09 243.305 957.792 242.149 959.984 241.767C964.037 241.018 967.266 242.331 968.027 245.055C968.787 247.778 966.635 250.822 962.77 252.409C960.598 253.29 958.515 253.211 956.923 252.229C955.779 251.508 954.962 250.371 954.646 249.059" fill="#5C6481"/>
<path d="M943.305 246.917C944.891 248.753 946.978 250.087 949.312 250.757C953.505 251.97 954.258 255.313 954.353 255.964C954.449 256.616 954.904 260.018 951.227 262.522C951.197 262.555 947.973 264.699 946.522 268.047C945.348 270.793 942.687 273.424 938.858 272.57C937.862 272.347 936.944 271.865 936.194 271.175C934.077 269.255 933.912 266.352 934.132 264.277L934.563 260.44C934.647 259.462 934.518 258.476 934.185 257.552L932.788 253.957C932.473 253.122 932.25 252.255 932.125 251.371C931.852 249.234 932.375 247.751 932.963 246.763C933.47 245.915 934.186 245.21 935.043 244.716C939.048 242.504 942.362 245.847 943.303 246.94" fill="#5C6481"/>
<path d="M1024.56 273.157C1026.28 273.506 1028.21 272.869 1029.98 271.349C1033.12 268.626 1034.31 265.191 1032.94 262.971C1031.58 260.752 1028.28 260.687 1024.73 262.722C1022.8 263.825 1021.51 265.468 1021.11 267.328C1020.92 268.192 1020.94 269.091 1021.17 269.946C1021.28 270.35 1021.44 270.738 1021.66 271.1C1021.97 271.626 1022.39 272.082 1022.89 272.438C1023.39 272.794 1023.96 273.042 1024.56 273.167" fill="#5C6481"/>
<path d="M1034.12 271.966C1033.6 273.127 1033.51 274.432 1033.85 275.655L1033.98 276.025C1034.22 276.662 1034.59 277.245 1035.06 277.737C1035.54 278.23 1036.1 278.622 1036.73 278.891C1038.52 279.654 1040.75 279.46 1042.97 278.276C1046.91 276.182 1048.91 272.884 1047.83 270.246C1046.76 267.607 1043.19 266.736 1038.93 268.046C1036.64 268.74 1034.93 270.108 1034.11 271.966" fill="#5C6481"/>
<path d="M1044.18 300.519C1044.14 297.906 1041.14 295.701 1036.94 295.155C1034.55 294.83 1032.51 295.31 1031.18 296.525C1030.72 296.946 1030.35 297.459 1030.1 298.03C1029.85 298.601 1029.72 299.219 1029.72 299.843C1029.72 300.259 1029.77 300.673 1029.89 301.074C1030.13 301.926 1030.6 302.701 1031.23 303.32C1032.6 304.693 1034.64 305.385 1036.99 305.273C1041.34 305.068 1044.22 303.111 1044.18 300.514" fill="#5C6481"/>
<path d="M1037.82 289.024L1037.92 289.408C1038.29 290.627 1039.09 291.671 1040.17 292.349C1041.89 293.445 1044.18 293.674 1046.54 292.94C1050.94 291.567 1053.47 288.794 1052.83 286.038C1052.19 283.282 1048.61 281.694 1044.17 282.188C1041.67 282.483 1039.66 283.492 1038.59 285.124C1038.21 285.688 1037.94 286.324 1037.8 286.994C1037.67 287.664 1037.67 288.355 1037.81 289.024" fill="#5C6481"/>
<path d="M1027.37 296.096C1028.25 293.69 1029.77 291.565 1031.75 289.94H1031.77C1035.42 286.944 1034.6 283.599 1034.41 282.98C1034.21 282.36 1033.1 279.135 1028.48 278.486C1028.44 278.486 1024.41 277.959 1021.63 275.523C1019.38 273.526 1015.81 272.195 1012.52 274.484C1011.66 275.073 1010.97 275.874 1010.51 276.809C1009.21 279.402 1010.13 282.148 1011.14 283.988L1013.05 287.358C1013.51 288.229 1013.77 289.194 1013.8 290.179L1013.77 294.051C1013.76 294.948 1013.86 295.843 1014.08 296.715C1014.62 298.792 1015.76 299.96 1016.75 300.629C1017.65 301.221 1018.69 301.572 1019.76 301.648C1024.87 301.992 1026.9 297.479 1027.38 296.088" fill="#5C6481"/>
</g>
<defs>
<clipPath id="clip0_179_2371">
<rect width="1419" height="395" fill="white" transform="translate(-21)"/>
</clipPath>
</defs>
</svg>
