<svg width="56" height="56" viewBox="0 0 56 56" fill="none" xmlns="http://www.w3.org/2000/svg">
<path d="M21.93 51.3333H32.5511C33.6104 51.2856 34.5074 50.9898 34.536 49.3484L33.4195 35.1202C38.649 36.4943 42.4851 33.3643 43.7734 30.1866C44.6704 27.9059 44.47 25.4247 43.2772 23.3349C46.6649 20.2049 46.1591 16.1874 45.2621 14.2025C44.3651 12.1222 41.1778 8.08557 35.0322 9.53607C33.7344 6.59691 30.5853 4.58339 27.2931 4.66927C24.1153 4.66927 21.2334 6.35834 19.7448 9.03985C15.6223 8.37186 11.9006 11.0247 10.6123 14.2025C9.52446 16.9794 10.1161 20.1571 12.101 22.4379C9.68669 25.377 10.0207 28.7933 10.9082 30.7782C11.8052 32.8585 14.9161 36.8951 21.2239 35.3587L20.0406 49.2434C19.9642 50.4649 20.6513 51.1234 21.93 51.3333ZM24.0199 47.4589L25.3464 32.7249C25.8712 32.1142 26.3006 31.4271 26.5965 30.6828C26.5965 30.5874 26.5965 30.5874 26.5965 30.5874C27.0927 30.6828 27.6843 30.7878 28.1805 30.7878C28.4764 31.408 28.8581 31.9902 29.3161 32.515L30.4708 47.4685H24.0199V47.4589ZM22.6267 11.7214C23.3042 9.6983 24.7547 8.56271 27.0927 8.4482C29.5833 8.55317 31.2533 10.1277 31.6637 12.3226C31.9213 13.8303 33.3814 14.5842 34.641 13.8112C38.7826 11.7404 41.0919 14.6033 41.5881 15.7007C42.0843 16.6931 42.5997 19.3556 39.6032 21.1591C38.4295 21.8844 38.3245 23.1154 39.107 24.2414C40.3953 25.4343 40.6911 27.2188 40.0995 28.7074C39.5078 30.3965 37.1698 32.2096 34.1448 31.1886C32.7515 30.6923 31.7591 29.6045 31.3678 28.2112C31.1674 27.2188 30.175 26.5222 29.1825 26.7226C28.2855 26.923 27.1499 26.8371 26.1002 26.2263C24.8883 25.5774 23.1897 26.4076 23.2183 27.8104C23.2183 28.3067 23.1229 28.7074 22.9225 29.0987C22.3308 30.7878 20.5368 31.8756 18.6569 31.8756C18.0652 31.8756 15.6414 31.618 14.3913 29.1941C13.1316 26.379 15.1833 24.5277 15.9754 24.0315C17.3114 23.2013 17.5117 21.579 15.9754 20.7583C14.1909 19.6705 13.3988 17.4852 14.1909 15.5957C14.7825 13.9066 17.2255 12.1031 20.0501 13.1146C21.1475 13.4868 22.2163 13.0287 22.6267 11.7214Z" fill="#7E839A"/>
</svg>
