<svg width="56" height="56" viewBox="0 0 56 56" fill="none" xmlns="http://www.w3.org/2000/svg">
<path d="M43.7354 29.626L30.8009 6.26666C30.254 5.27937 29.2144 4.66663 28.0861 4.66663C26.9639 4.66663 25.9289 5.2726 25.3799 6.25135L12.2723 29.6082C11.6706 30.6806 11.7589 32.0068 12.497 32.9898L25.3379 50.0932C25.9243 50.874 26.8435 51.3333 27.8194 51.3333H28.3517C29.3351 51.3333 30.2601 50.8672 30.8451 50.0772L33.2024 46.9583C33.8073 46.1415 33.6279 44.9883 32.8033 44.3941C31.994 43.8113 30.8664 43.9868 30.2729 44.7879L28.0847 47.6793L18.8216 35.3418L27.4659 38.5501C27.6706 38.6263 27.8853 38.664 28.1004 38.664C28.3151 38.664 28.5305 38.6259 28.7352 38.5497L36.9992 35.4793L35.104 37.9434C34.4816 38.7833 34.6917 39.9735 35.564 40.5496C36.3722 41.0833 37.4567 40.8918 38.0335 40.1135L43.514 32.9763C44.2382 31.9993 44.3247 30.6898 43.7354 29.626ZM26.2689 34.2171L18.6376 31.3848L26.2689 28.5525V34.2171ZM29.9147 28.5475L37.5507 31.3848L29.9147 34.2221V28.5475ZM38.6053 27.8875L29.9147 24.6582V12.1929L38.6053 27.8875ZM26.2689 12.1164V24.6635L17.3754 27.9644L26.2689 12.1164Z" fill="#7E839A"/>
</svg>
