<svg width="200" height="237" viewBox="0 0 200 237" fill="none" xmlns="http://www.w3.org/2000/svg">
<mask id="mask0_179_2861" style="mask-type:alpha" maskUnits="userSpaceOnUse" x="0" y="0" width="200" height="237">
<path fill-rule="evenodd" clip-rule="evenodd" d="M200 0H0V137V141H0.078538C2.17815 194.374 46.1112 237 100 237C153.889 237 197.822 194.374 199.921 141H200V137V0Z" fill="#C4C4C4"/>
</mask>
<g mask="url(#mask0_179_2861)">
<circle cx="100" cy="137" r="100" fill="url(#paint0_linear_179_2861)"/>
<path d="M165.618 173.938C166.14 175.384 165.741 176.391 164.64 177.393C163.569 178.369 162.349 179.172 161.082 179.866C158.6 181.226 155.905 182.123 153.193 182.895C153.219 182.858 153.249 182.821 153.274 182.783C154.507 180.97 154.214 178.742 153.223 176.9C152.215 175.018 150.598 173.403 148.927 172.099C147.746 171.175 146.337 170.121 144.838 169.617C144.224 166.844 143.504 164.099 142.678 161.381C142.608 161.152 142.537 160.923 142.467 160.693C142.895 160.854 143.323 161.014 143.76 161.151C144.644 161.426 145.557 161.619 146.445 161.879C148.271 162.421 150.081 163.036 151.865 163.703C154.84 164.812 157.791 166.128 160.408 167.949C162.502 169.403 164.731 171.476 165.618 173.938Z" fill="#871814"/>
<path d="M60.4909 160.686C60.4203 160.917 60.3492 161.146 60.2797 161.374C59.4528 164.091 58.733 166.836 58.1205 169.61C56.6201 170.114 55.2105 171.168 54.0306 172.092C52.3605 173.397 50.7452 175.011 49.7345 176.894C48.744 178.738 48.4532 180.966 49.6836 182.777C49.7099 182.815 49.7396 182.852 49.7654 182.889C47.0531 182.116 44.3577 181.22 41.8758 179.86C40.6085 179.166 39.3894 178.362 38.3182 177.387C37.2167 176.384 36.8178 175.378 37.34 173.931C38.2285 171.471 40.4556 169.399 42.5504 167.942C45.1668 166.121 48.1182 164.804 51.0932 163.695C52.877 163.029 54.6867 162.414 56.5114 161.871C57.4005 161.608 58.3138 161.415 59.2007 161.143C59.6349 161.008 60.0629 160.847 60.4909 160.686Z" fill="#871814"/>
<path d="M174.696 172.69C176.068 175.752 176.068 179.227 174.354 182.15C172.738 184.903 170.025 186.832 167.228 188.257C163.723 190.04 159.824 191.054 155.993 191.857C151.787 192.739 147.519 193.279 143.251 193.755C138.715 194.263 134.168 194.662 129.609 194.953C122.227 195.427 114.824 195.596 107.427 195.514C108.727 195.252 110.024 194.971 111.311 194.729C114.147 194.202 116.984 193.68 119.816 193.131C124.752 192.174 129.688 191.202 134.579 190.033C136.372 189.603 138.174 189.159 139.965 188.68C142.872 188.095 145.77 187.457 148.649 186.741C154.806 185.209 161.601 183.568 166.402 179.15C171.836 174.144 164.497 167.403 160.143 164.799C157.453 163.19 154.502 162.019 151.544 161.009C149.831 160.433 148.089 159.945 146.326 159.548C145.478 159.351 144.623 159.136 143.754 159.065C143.144 159.014 142.531 158.987 141.918 158.953C141.668 158.181 141.409 157.409 141.141 156.636C145.56 158.086 150.187 158.884 154.653 160.202C158.925 161.463 163.303 162.713 167.199 164.928C170.399 166.75 173.169 169.284 174.696 172.69Z" fill="#BE1818"/>
<path d="M95.5282 195.514C88.1328 195.594 80.729 195.426 73.3465 194.954C68.7898 194.661 64.242 194.262 59.7031 193.756C55.4362 193.28 51.1682 192.739 46.9629 191.858C43.1319 191.055 39.2314 190.041 35.7275 188.257C32.9301 186.834 30.2179 184.905 28.6016 182.15C26.8878 179.228 26.8861 175.752 28.2582 172.691C29.7854 169.285 32.5565 166.752 35.7583 164.931C39.6527 162.716 44.0328 161.466 48.3042 160.205C52.7705 158.887 57.3977 158.089 61.8159 156.64C61.5469 157.411 61.2892 158.184 61.0371 158.957C60.4253 158.991 59.813 159.018 59.2028 159.069C58.3339 159.14 57.4795 159.355 56.6296 159.551C54.8666 159.949 53.1251 160.437 51.4119 161.013C48.4554 162.021 45.5023 163.194 42.8148 164.802C38.4627 167.406 31.1188 174.147 36.5556 179.153C41.3558 183.571 48.1495 185.213 54.3084 186.744C57.1859 187.46 60.0791 188.098 62.9924 188.684C64.7852 189.163 66.5837 189.606 68.3782 190.036C73.2692 191.206 78.2056 192.178 83.1415 193.135C85.973 193.683 88.8102 194.205 91.6462 194.733C92.932 194.971 94.2284 195.253 95.5282 195.514Z" fill="#BE1818"/>
<path d="M208.228 211.844C210.861 221.302 212.362 231.07 213.875 240.763C211.02 240.667 208.163 240.624 205.303 240.609C201.839 240.537 198.374 240.503 194.907 240.506C194.848 239.816 194.761 239.125 194.709 238.452C194.662 237.841 194.608 237.23 194.551 236.62C195.237 236.302 195.888 235.688 196.352 235.276C197.181 234.54 198.008 233.631 198.385 232.574C198.741 231.574 197.45 231.113 196.787 231.643C196.05 232.231 195.472 232.988 194.701 233.548C194.561 233.648 194.415 233.739 194.265 233.823C194.173 233.017 194.071 232.21 193.959 231.403C193.808 230.298 193.805 228.957 193.226 227.979C192.879 227.39 192.119 227.598 191.89 228.153C191.457 229.2 191.652 230.601 191.653 231.716C191.653 232.892 191.68 234.062 191.723 235.237C191.766 236.413 191.822 237.585 191.891 238.758C191.925 239.336 191.943 239.922 191.973 240.507C184.956 240.523 177.939 240.613 170.934 240.619C164.583 240.626 158.231 240.643 151.881 240.67C135.079 240.686 118.277 240.703 101.475 240.723C84.6727 240.709 67.8708 240.692 51.0691 240.67C44.7169 240.647 38.3656 240.63 32.0153 240.619C25.0121 240.615 17.9932 240.525 10.9754 240.507C11.0062 239.922 11.0247 239.336 11.0589 238.758C11.13 237.585 11.1844 236.412 11.227 235.237C11.2695 234.063 11.2947 232.892 11.2964 231.716C11.2964 230.601 11.4925 229.2 11.06 228.153C10.8309 227.598 10.0706 227.39 9.72322 227.979C9.15064 228.955 9.14784 230.299 8.99601 231.403C8.88396 232.209 8.78143 233.016 8.68843 233.823C8.53899 233.739 8.39406 233.647 8.25423 233.548C7.48164 232.987 6.90345 232.233 6.16783 231.643C5.50337 231.113 4.2131 231.573 4.56998 232.573C4.94703 233.631 5.77398 234.539 6.60372 235.275C7.06593 235.686 7.71806 236.3 8.40438 236.62C8.34835 237.23 8.29233 237.84 8.24639 238.451C8.19372 239.123 8.10744 239.815 8.04862 240.505C4.58249 240.508 1.11712 240.542 -2.34751 240.608C-5.20482 240.624 -8.06213 240.667 -10.9194 240.763C-9.40675 231.07 -7.90414 221.301 -5.27093 211.843C-4.04509 207.441 -2.30157 203.24 1.07006 200.041C4.50275 196.786 8.8016 194.449 12.7492 191.89C15.1923 190.306 17.6387 188.73 20.0885 187.163C22.0993 185.874 24.1454 184.608 26.1063 183.238C29.0302 188.585 35.5399 191.524 41.1469 193.19C45.4446 194.466 49.8724 195.239 54.3074 195.843C59.0199 196.486 63.7464 197.004 68.4869 197.396C79.1043 198.296 123.848 198.296 134.465 197.396C139.203 196.996 143.93 196.479 148.647 195.844C153.082 195.24 157.509 194.467 161.806 193.19C167.413 191.524 173.924 188.585 176.846 183.238C178.807 184.608 180.855 185.871 182.866 187.163C185.317 188.735 187.764 190.311 190.208 191.891C194.155 194.45 198.453 196.787 201.885 200.041C205.257 203.239 207.002 207.441 208.228 211.844Z" fill="#BE1818"/>
<path d="M151.925 179.56C152.143 181.309 150.827 182.438 149.41 183.162C147.579 184.102 145.482 184.627 143.516 185.212C143.147 185.321 142.777 185.429 142.407 185.533C135.916 186.909 129.363 187.966 122.811 188.995C115.89 190.083 108.969 191.168 102.049 192.249C101.669 192.284 101.286 192.284 100.905 192.249C93.9848 191.166 87.0644 190.081 80.1437 188.995C73.5915 187.966 67.0387 186.909 60.5476 185.533C60.1767 185.428 59.8064 185.321 59.4366 185.212C57.4724 184.627 55.3753 184.102 53.5422 183.162C52.127 182.438 50.8098 181.309 51.0294 179.56C51.2939 177.45 53.099 175.624 54.5747 174.242C55.3743 173.493 56.2403 172.818 57.162 172.225C57.3149 172.126 57.4724 172.032 57.6287 171.938C57.2455 173.87 56.9115 175.811 56.6269 177.761C56.5205 178.5 56.8096 179.248 57.5945 179.464C58.2433 179.641 59.1895 179.24 59.296 178.496C60.6188 169.229 63.0172 159.923 66.7961 151.339C68.4769 147.522 70.6238 143.748 73.9747 141.153C77.4998 138.424 81.9724 136.954 86.2113 135.77C88.8289 135.034 91.4881 134.455 94.1748 134.036C96.5687 133.668 99.1235 133.617 101.477 132.998C103.83 133.617 106.386 133.67 108.78 134.036C111.466 134.455 114.124 135.034 116.741 135.77C120.981 136.954 125.454 138.424 128.978 141.153C132.33 143.748 134.479 147.522 136.158 151.339C139.937 159.923 142.336 169.229 143.658 178.496C143.765 179.241 144.711 179.641 145.36 179.464C146.144 179.248 146.434 178.5 146.327 177.761C146.044 175.812 145.71 173.871 145.325 171.938C145.482 172.032 145.638 172.126 145.792 172.225C146.714 172.818 147.58 173.493 148.38 174.242C149.855 175.624 151.66 177.45 151.925 179.56Z" fill="#DFBBA8"/>
<path d="M217.131 242.052C217.332 242.596 217.091 243.284 216.403 243.474C216.293 243.538 216.175 243.588 216.052 243.623C215.818 243.781 215.542 243.864 215.259 243.863C198.545 244.127 181.812 243.928 165.097 243.925C143.891 243.919 122.684 243.914 101.476 243.909C80.2698 243.914 59.0627 243.92 37.8552 243.925C21.1382 243.928 4.40782 244.127 -12.3069 243.863C-12.5892 243.864 -12.8653 243.781 -13.0996 243.623C-13.2223 243.588 -13.3401 243.538 -13.4504 243.474C-14.1367 243.287 -14.3776 242.596 -14.1787 242.052C-14.1772 241.95 -14.1684 241.849 -14.1524 241.749C-13.1854 235.715 -12.2195 229.683 -11.0435 223.688C-10.053 218.646 -9.03106 213.524 -7.40184 208.64C-5.8516 203.993 -3.44978 199.9 0.368929 196.763C2.19256 195.263 4.15851 193.961 6.13957 192.687C8.40245 191.231 10.6631 189.779 12.9473 188.359C16.9329 185.881 20.9685 183.277 25.2583 181.325C25.1065 180.884 24.9785 180.436 24.8751 179.981C24.0112 176.171 25.0992 172.178 27.2691 168.991C29.5454 165.65 32.865 163.258 36.4921 161.555C40.3976 159.721 44.5889 158.473 48.7555 157.385C53.1429 156.24 57.7196 155.069 62.2812 155.334C63.1911 152.834 64.2113 150.373 65.3935 148.007C67.4009 143.988 70.1288 140.388 73.9536 137.948C77.9611 135.392 82.7609 133.885 87.3544 132.786C89.7781 132.205 92.233 131.764 94.7072 131.463C96.9034 131.199 99.2789 130.915 101.478 131.341C103.677 130.915 106.052 131.199 108.247 131.463C110.722 131.763 113.177 132.205 115.601 132.786C120.196 133.885 124.994 135.392 129.002 137.948C132.827 140.388 135.557 143.988 137.562 148.007C138.745 150.373 139.765 152.834 140.675 155.334C145.236 155.069 149.813 156.24 154.2 157.385C158.367 158.472 162.558 159.721 166.464 161.555C170.089 163.258 173.411 165.65 175.687 168.991C177.857 172.178 178.945 176.169 178.081 179.981C177.977 180.436 177.849 180.884 177.698 181.325C181.987 183.277 186.023 185.881 190.009 188.359C192.293 189.779 194.553 191.233 196.816 192.687C198.799 193.963 200.766 195.265 202.59 196.763C206.407 199.9 208.809 203.994 210.359 208.64C211.987 213.524 213.009 218.644 214 223.688C215.177 229.683 216.141 235.718 217.105 241.751C217.121 241.851 217.13 241.951 217.131 242.052ZM213.875 240.763C212.362 231.071 210.861 221.302 208.228 211.844C207.002 207.441 205.259 203.24 201.885 200.041C198.453 196.787 194.154 194.45 190.208 191.891C187.765 190.307 185.317 188.731 182.866 187.163C180.855 185.875 178.809 184.609 176.846 183.238C173.924 188.585 167.413 191.524 161.806 193.19C157.51 194.467 153.082 195.24 148.647 195.844C143.935 196.487 139.208 197.005 134.468 197.397C123.85 198.297 79.1069 198.297 68.4894 197.397C63.753 196.996 59.0265 196.478 54.3099 195.843C49.8749 195.239 45.4472 194.466 41.1495 193.19C35.5424 191.524 29.0328 188.585 26.1088 183.238C24.1479 184.608 22.1018 185.871 20.0911 187.163C17.6402 188.734 15.1937 190.31 12.7517 191.89C8.80416 194.449 4.5053 196.786 1.07261 200.041C-2.29789 203.24 -4.04253 207.441 -5.26838 211.843C-7.90158 221.301 -9.40251 231.07 -10.9169 240.763C-8.05958 240.667 -5.20227 240.624 -2.34496 240.608C1.11855 240.537 4.58393 240.502 8.05117 240.505C8.1072 239.815 8.19628 239.125 8.24894 238.451C8.29544 237.84 8.34979 237.23 8.40694 236.62C7.72062 236.301 7.06848 235.687 6.60627 235.275C5.77653 234.539 4.94959 233.631 4.57254 232.574C4.21565 231.574 5.50592 231.113 6.17039 231.643C6.90601 232.231 7.48419 232.988 8.25679 233.548C8.39662 233.647 8.54155 233.739 8.69099 233.823C8.78511 233.016 8.88764 232.209 8.99857 231.403C9.14984 230.298 9.1532 228.957 9.73138 227.978C10.0787 227.39 10.839 227.598 11.0682 228.153C11.5007 229.199 11.3057 230.601 11.3046 231.715C11.3046 232.892 11.2783 234.061 11.2351 235.237C11.192 236.413 11.1359 237.584 11.067 238.758C11.0329 239.335 11.0144 239.921 10.9836 240.507C18.0013 240.522 25.0191 240.612 32.0234 240.619C38.373 240.625 44.7243 240.642 51.0772 240.67C67.879 240.685 84.6809 240.703 101.483 240.722C118.285 240.709 135.087 240.691 151.889 240.67C158.241 240.647 164.592 240.63 170.943 240.619C177.946 240.614 184.965 240.525 191.981 240.507C191.952 239.921 191.933 239.335 191.899 238.758C191.828 237.584 191.772 236.411 191.731 235.237C191.688 234.06 191.663 232.891 191.661 231.715C191.661 230.601 191.465 229.199 191.898 228.153C192.127 227.598 192.887 227.39 193.235 227.978C193.813 228.957 193.816 230.298 193.967 231.403C194.079 232.209 194.181 233.016 194.273 233.823C194.422 233.739 194.566 233.647 194.705 233.548C195.476 232.988 196.054 232.233 196.792 231.644C197.454 231.114 198.745 231.574 198.389 232.574C198.012 233.631 197.185 234.54 196.356 235.276C195.892 235.686 195.241 236.3 194.555 236.62C194.611 237.23 194.667 237.841 194.713 238.452C194.766 239.124 194.852 239.816 194.911 240.506C198.377 240.509 201.842 240.543 205.307 240.609C208.163 240.624 211.02 240.667 213.875 240.763V240.763ZM174.355 182.15C176.069 179.227 176.069 175.751 174.697 172.69C173.17 169.284 170.4 166.751 167.198 164.93C163.302 162.715 158.924 161.466 154.652 160.204C150.186 158.886 145.559 158.088 141.141 156.639C141.41 157.41 141.669 158.182 141.918 158.956C142.53 158.99 143.144 159.017 143.754 159.068C144.623 159.139 145.477 159.354 146.325 159.55C148.088 159.948 149.83 160.436 151.543 161.012C154.501 162.02 157.454 163.193 160.142 164.801C164.494 167.405 171.838 174.146 166.401 179.152C161.601 183.57 154.804 185.212 148.648 186.743C145.771 187.459 142.873 188.097 139.964 188.683C138.171 189.162 136.373 189.605 134.578 190.035C129.687 191.205 124.751 192.177 119.815 193.134C116.984 193.682 114.146 194.205 111.31 194.732C110.022 194.971 108.727 195.253 107.427 195.516C114.822 195.596 122.226 195.428 129.608 194.956C134.165 194.663 138.712 194.264 143.25 193.758C147.519 193.282 151.787 192.741 155.992 191.86C159.823 191.056 163.724 190.043 167.227 188.259C170.026 186.832 172.739 184.903 174.355 182.15ZM164.641 177.391C165.742 176.388 166.141 175.382 165.619 173.935C164.729 171.475 162.503 169.403 160.409 167.945C157.792 166.125 154.841 164.808 151.866 163.699C150.082 163.033 148.272 162.417 146.446 161.875C145.558 161.612 144.645 161.419 143.761 161.147C143.324 161.011 142.896 160.85 142.468 160.689C142.539 160.92 142.609 161.149 142.679 161.377C143.506 164.094 144.226 166.839 144.838 169.613C146.339 170.117 147.748 171.171 148.928 172.095C150.598 173.4 152.214 175.014 153.224 176.897C154.215 178.74 154.506 180.969 153.275 182.779C153.249 182.818 153.219 182.855 153.194 182.891C155.906 182.119 158.601 181.222 161.083 179.863C162.35 179.17 163.57 178.366 164.641 177.391ZM149.412 183.161C150.829 182.437 152.144 181.309 151.926 179.559C151.662 177.45 149.857 175.623 148.381 174.242C147.581 173.493 146.715 172.818 145.794 172.225C145.64 172.126 145.483 172.031 145.326 171.937C145.71 173.869 146.044 175.81 146.329 177.76C146.435 178.499 146.145 179.247 145.361 179.463C144.712 179.641 143.766 179.239 143.66 178.496C142.337 169.228 139.938 159.923 136.16 151.338C134.479 147.521 132.332 143.747 128.98 141.152C125.456 138.423 120.982 136.953 116.743 135.77C114.126 135.033 111.467 134.454 108.781 134.036C106.387 133.667 103.832 133.616 101.478 132.997C99.1254 133.616 96.5701 133.669 94.1761 134.036C91.4894 134.454 88.8302 135.034 86.2126 135.77C81.9737 136.953 77.5012 138.423 73.976 141.152C70.6251 143.747 68.4771 147.521 66.7975 151.338C63.0185 159.923 60.6201 169.228 59.2973 178.496C59.1909 179.241 58.2446 179.641 57.5958 179.463C56.8114 179.247 56.5218 178.499 56.6282 177.76C56.9114 175.811 57.2453 173.871 57.63 171.937C57.4737 172.031 57.3162 172.126 57.1633 172.225C56.2416 172.817 55.3756 173.492 54.576 174.242C53.1003 175.623 51.2952 177.45 51.0307 179.559C50.8111 181.309 52.1283 182.437 53.5435 183.161C55.3766 184.101 57.4737 184.626 59.4379 185.211C59.8073 185.321 60.1777 185.428 60.5489 185.532C67.0401 186.908 73.5928 187.965 80.145 188.994C87.0661 190.082 93.9866 191.167 100.906 192.249C101.287 192.283 101.67 192.283 102.051 192.249C108.971 191.166 115.891 190.081 122.812 188.994C129.364 187.965 135.917 186.908 142.408 185.532C142.779 185.427 143.149 185.32 143.517 185.211C145.483 184.626 147.58 184.101 149.412 183.161ZM73.3469 194.952C80.7294 195.426 88.132 195.595 95.5286 195.512C94.2288 195.251 92.9323 194.969 91.6449 194.728C88.8088 194.201 85.9717 193.678 83.1402 193.13C78.2043 192.173 73.2679 191.201 68.3768 190.031C66.584 189.602 64.7822 189.158 62.9911 188.679C60.0822 188.093 57.1863 187.455 54.3071 186.739C48.1482 185.208 41.3545 183.566 36.5542 179.148C31.1198 174.142 38.4591 167.401 42.8134 164.797C45.5027 163.189 48.4541 162.017 51.4106 161.008C53.1238 160.432 54.8653 159.944 56.6282 159.546C57.4781 159.35 58.3325 159.135 59.2015 159.064C59.8116 159.013 60.424 158.985 61.0358 158.952C61.2879 158.179 61.5456 157.406 61.8145 156.635C57.3964 158.084 52.7692 158.882 48.3028 160.201C44.0314 161.462 39.6513 162.712 35.757 164.926C32.5551 166.745 29.7841 169.28 28.2568 172.686C26.8848 175.748 26.8864 179.223 28.6003 182.146C30.2166 184.899 32.9288 186.828 35.7262 188.252C39.2311 190.036 43.1305 191.05 46.9616 191.853C51.1669 192.734 55.4349 193.275 59.7018 193.751C64.2403 194.26 68.7886 194.661 73.3469 194.952ZM60.2789 161.374C60.3484 161.146 60.4195 160.917 60.4901 160.686C60.0621 160.847 59.634 161.008 59.197 161.144C58.3129 161.419 57.3997 161.612 56.5078 161.872C54.683 162.415 52.8734 163.03 51.0895 163.696C48.1146 164.805 45.1631 166.122 42.5467 167.943C40.4508 169.399 38.2238 171.472 37.3364 173.932C36.8142 175.379 37.2131 176.385 38.3146 177.388C39.3858 178.363 40.6049 179.167 41.8722 179.861C44.3541 181.221 47.0495 182.117 49.7617 182.89C49.7354 182.853 49.7057 182.816 49.6799 182.778C48.4474 180.965 48.7404 178.737 49.7309 176.895C50.7394 175.013 52.3568 173.398 54.027 172.093C55.208 171.169 56.6176 170.115 58.1168 169.611C58.7324 166.839 59.4531 164.093 60.2789 161.374Z" fill="black"/>
<path d="M79.6585 164.374C79.4035 163.981 78.8427 164.154 78.8086 164.604C78.7436 165.44 78.8567 166.285 79.0853 167.112C78.5133 166.681 77.9542 166.234 77.4006 165.78C78.5816 164.85 78.8629 163.754 79.2293 162.381C79.2306 162.374 79.2291 162.367 79.2252 162.361C79.2213 162.355 79.2152 162.35 79.2082 162.348C79.2012 162.346 79.1937 162.347 79.1872 162.35C79.1808 162.354 79.1758 162.359 79.1733 162.366C78.7189 163.581 77.5216 164.258 76.5429 165.063C76.381 164.925 76.2202 164.789 76.0611 164.649C76.6777 164.172 77.1557 163.539 77.4454 162.816C77.6018 162.367 77.5726 161.908 77.6931 161.457C77.6952 161.445 77.6924 161.432 77.6855 161.421C77.6785 161.41 77.6678 161.403 77.6555 161.399C77.6431 161.396 77.6299 161.397 77.6185 161.403C77.6072 161.409 77.5984 161.419 77.5939 161.431C77.1507 162.44 76.1288 163.261 75.3081 163.976C74.8121 163.525 74.3233 163.065 73.8419 162.596C74.7321 162.247 75.2896 161.399 75.7613 160.604C75.865 160.436 75.6392 160.284 75.5002 160.402C74.7966 161 73.9875 161.439 73.3903 162.15C73.0149 161.774 72.644 161.395 72.2793 161.009C73.1326 160.357 73.6379 159.302 73.9405 158.288C73.9451 158.269 73.9437 158.25 73.9363 158.232C73.929 158.215 73.9161 158.2 73.8998 158.191C73.8834 158.181 73.8643 158.177 73.8455 158.179C73.8267 158.182 73.8091 158.19 73.7954 158.203C73.1046 158.92 72.2547 159.506 71.542 160.21C71.142 159.771 70.7485 159.326 70.3616 158.874C71.0226 158.729 71.6051 158.341 71.9936 157.787C72.1477 157.56 72.1678 157.258 72.3297 157.05C72.3807 156.982 72.2737 156.909 72.2177 156.961C72.0743 157.091 71.7992 157.121 71.6199 157.195C70.9846 157.475 70.3509 157.776 69.7912 158.189C69.4299 157.751 69.073 157.311 68.7267 156.863C69.2352 156.448 69.6965 155.978 70.1022 155.462C70.2383 155.287 70.0741 155.055 69.8657 155.155C69.2767 155.434 68.7205 155.778 68.2074 156.18C61.5112 147.347 57.5009 136.558 56.6661 125.509C56.5008 123.333 56.4683 121.147 56.2593 118.977C56.2285 118.648 55.7389 118.529 55.6475 118.896C54.941 121.722 54.8766 124.784 55.0929 127.751C54.9502 127.738 54.8064 127.757 54.6721 127.807C53.8161 128.124 53.1084 128.357 52.3387 127.668C50.4937 125.786 52.0081 123.061 52.6748 120.997C52.7444 120.873 52.7829 120.735 52.7869 120.593C53.3863 118.442 52.5504 115.707 50.3604 114.805C48.9093 114.212 47.2 114.499 46.3265 115.873C46.1456 116.158 46.5305 116.385 46.7591 116.209C48.8516 114.611 51.7341 116.539 51.4159 119.021C49.6382 118.426 48.042 119.353 47.0717 120.818C46.7221 121.26 47.144 121.826 47.6695 121.59C48.5827 121.23 49.8825 120.414 50.8176 121.014C49.4841 123.426 48.6247 126.593 50.5643 128.938C51.6428 130.245 53.8004 130.911 55.3041 129.996C55.5159 131.815 55.8139 133.625 56.196 135.414C53.5858 136.385 50.8114 135.907 48.6247 134.155C43.732 130.132 43.4351 122.497 43.6653 116.624C43.8737 113.803 44.8738 110.701 47.3171 109.026C49.0623 107.773 51.4915 107.603 53.3337 108.746C54.6704 109.897 55.5932 111.357 55.7198 113.309C55.7954 114.468 57.6191 114.472 57.5311 113.309C56.5227 103.398 65.2066 99.2105 66.4112 90.4184C66.6941 87.9382 66.3182 85.4395 66.5232 82.9525C67.5261 74.0013 72.3572 64.9543 80.4568 60.5855C82.4906 59.4947 84.6728 58.9014 86.8348 58.1545C93.1354 61.7032 99.175 66.234 106.602 66.9634C112.625 67.6144 118.997 65.8788 123.728 62.0662C128.418 67.1354 138.491 66.3242 140.608 73.9352C140.832 74.9538 140.82 76.0081 141 77.0351C141.182 78.0805 141.628 79.0623 142.294 79.8879C143.439 81.3345 145.011 82.3793 145.82 84.0836C146.598 85.719 146.694 87.6412 146.44 89.4128C146.037 92.7043 143.737 95.5061 143.873 98.8811C143.943 100.235 144.346 101.536 144.64 102.852C144.936 104.175 145.154 105.515 145.294 106.864C145.431 108.215 145.394 109.588 145.544 110.933C145.61 111.518 145.995 112.009 146.629 112.016C147.181 112.022 147.757 111.515 147.712 110.933C147.674 109.902 148.528 109.028 149.337 108.517C149.807 108.237 150.371 108.112 150.898 108.021C152.308 107.811 153.719 108.227 154.881 109.024C159.908 112.736 158.808 121.03 157.85 126.444C156.887 132.071 152.147 137.662 146.003 135.412C146.384 133.622 146.684 131.813 146.894 129.994C148.398 130.909 150.556 130.242 151.636 128.935C153.574 126.589 152.716 123.426 151.381 121.012C152.318 120.41 153.614 121.228 154.531 121.588C155.054 121.825 155.476 121.258 155.127 120.816C154.156 119.35 152.559 118.423 150.783 119.018C150.464 116.535 153.348 114.609 155.44 116.207C155.668 116.385 156.053 116.158 155.872 115.871C155 114.497 153.291 114.21 151.838 114.803C149.649 115.704 148.813 118.44 149.412 120.591C149.415 120.733 149.454 120.871 149.524 120.994C150.191 123.055 151.709 125.785 149.86 127.666C149.09 128.355 148.382 128.122 147.527 127.805C147.393 127.755 147.249 127.736 147.106 127.749C147.323 124.779 147.257 121.72 146.551 118.893C146.46 118.529 145.972 118.646 145.939 118.975C145.73 121.145 145.698 123.331 145.532 125.507C144.703 136.516 140.719 147.267 134.066 156.081C133.589 155.72 133.076 155.409 132.536 155.152C132.327 155.053 132.163 155.285 132.299 155.46C132.67 155.935 133.091 156.369 133.552 156.756C133.203 157.208 132.848 157.654 132.488 158.093C131.946 157.745 131.375 157.443 130.782 157.192C130.603 157.118 130.326 157.089 130.184 156.959C130.125 156.907 130.016 156.979 130.072 157.047C130.232 157.256 130.251 157.557 130.408 157.784C130.765 158.288 131.281 158.657 131.873 158.832C131.507 159.262 131.133 159.687 130.753 160.106C130.062 159.444 129.261 158.881 128.603 158.201C128.589 158.188 128.572 158.179 128.553 158.177C128.534 158.175 128.515 158.179 128.499 158.188C128.482 158.198 128.469 158.213 128.462 158.23C128.455 158.248 128.453 158.267 128.458 158.285C128.748 159.255 129.223 160.261 130.008 160.916C129.649 161.297 129.283 161.671 128.913 162.042C128.323 161.395 127.569 160.967 126.9 160.4C126.761 160.282 126.535 160.432 126.637 160.602C127.085 161.347 127.606 162.166 128.421 162.531C127.951 162.991 127.472 163.444 126.985 163.889C126.207 163.197 125.223 162.396 124.805 161.429C124.801 161.416 124.793 161.405 124.781 161.398C124.769 161.392 124.756 161.39 124.743 161.393C124.73 161.397 124.719 161.405 124.712 161.417C124.705 161.429 124.704 161.442 124.707 161.455C124.827 161.906 124.798 162.367 124.954 162.813C125.228 163.495 125.668 164.097 126.234 164.565C126.075 164.704 125.914 164.84 125.755 164.976C124.797 164.208 123.666 163.535 123.226 162.364C123.214 162.328 123.158 162.342 123.17 162.379C123.521 163.69 123.793 164.783 124.9 165.696C124.314 166.178 123.719 166.652 123.113 167.11C123.342 166.281 123.455 165.438 123.39 164.602C123.386 164.497 123.347 164.398 123.279 164.318C123.212 164.239 123.119 164.185 123.017 164.165C122.915 164.144 122.809 164.159 122.716 164.206C122.623 164.254 122.549 164.331 122.506 164.426C122.194 163.415 121.524 162.553 120.623 161.999C120.387 161.857 120.178 162.172 120.343 162.362C121.24 163.401 121.535 164.538 121.68 165.798C121.618 165.91 121.554 166.019 121.493 166.128C121.278 164.368 120.36 162.781 118.652 162.167C118.151 161.965 117.884 162.741 118.3 163.002C120.182 164.183 119.816 166.535 120.179 168.412C120.087 168.561 119.991 168.709 119.895 168.855C119.727 166.699 119.055 164.586 117.501 163.065C117.109 162.69 116.513 163.166 116.763 163.636C117.364 164.771 117.931 165.912 118.206 167.177C118.444 168.265 118.206 169.522 118.58 170.566C118.263 170.929 117.938 171.282 117.605 171.626C118.093 168.652 117.121 165.444 115.257 163.177C115.056 162.945 114.738 163.2 114.785 163.452C115.449 166.382 116.918 168.765 116.027 171.899C116.022 169.366 115.271 167.037 114.044 164.857C113.733 164.288 112.894 164.79 113.18 165.361C114.58 168.189 114.656 171.444 114.192 174.493C113.643 174.864 113.074 175.205 112.489 175.516C113.9 172.203 113.105 168.81 111.806 165.68C111.635 165.283 110.987 165.571 111.117 165.97C111.901 168.521 112.268 171.84 111.279 174.371C111.05 174.987 110.089 175.893 110.339 176.539C110.233 176.584 110.126 176.629 110.019 176.672C110.927 173.87 110.905 171.013 110.106 168.233C110.004 167.868 109.372 167.93 109.423 168.325C109.862 171.432 109.126 174.547 107.949 177.406C107.76 177.466 107.569 177.523 107.378 177.579C108.355 173.311 109.227 168.223 106.442 164.449C106.245 164.199 105.882 164.477 105.944 164.738C107.159 169.348 106.654 173.627 105.216 178.128C105.048 178.165 104.88 178.202 104.715 178.237C106.499 173.174 106.185 167 103.604 162.282C103.394 161.907 102.799 162.164 102.916 162.572C104.137 166.622 104.582 170.934 103.636 175.093C103.431 176.246 102.872 177.413 102.844 178.573C102.568 178.612 102.289 178.643 102.003 178.669C102.115 176.327 102.357 174.041 102.339 171.701C102.305 169.432 101.887 167.304 101.492 165.09C101.612 164.534 100.772 164.534 100.891 165.09C100.496 167.305 100.077 169.433 100.045 171.701C100.029 174.047 100.273 176.337 100.381 178.688C100.098 178.663 99.8204 178.635 99.5403 178.6C99.528 177.43 98.9548 176.255 98.7509 175.093C97.8046 170.934 98.25 166.622 99.4708 162.572C99.5885 162.164 98.9935 161.907 98.7817 162.282C96.2085 166.956 95.8745 173.266 97.6954 178.281C97.5232 178.247 97.3516 178.211 97.1805 178.175C95.7446 173.627 95.2196 169.398 96.4421 164.739C96.5037 164.478 96.1407 164.199 95.9457 164.45C93.1444 168.245 94.0408 173.354 95.0246 177.642C94.8345 177.587 94.6455 177.531 94.4576 177.473C94.2812 176.821 93.9568 176.2 93.745 175.558C92.9741 173.244 92.6463 170.753 92.9606 168.325C93.0133 167.929 92.3813 167.867 92.2777 168.232C91.4743 171.045 91.4524 173.942 92.3981 176.762C92.2654 176.712 92.1354 176.659 92.006 176.605C92.3981 176.006 91.3197 174.967 91.1062 174.37C90.119 171.839 90.4899 168.522 91.2687 165.969C91.3998 165.571 90.751 165.283 90.5812 165.679C89.2702 168.847 88.4405 172.346 89.9784 175.666C89.3756 175.348 88.7789 175.012 88.2074 174.635C88.0915 173.247 87.8236 171.894 87.9351 170.471C88.0696 168.748 88.4248 166.918 89.2069 165.36C89.4932 164.79 88.6539 164.288 88.343 164.856C87.116 167.036 86.3636 169.365 86.3586 171.898C85.4672 168.761 86.9384 166.383 87.6012 163.451C87.6477 163.199 87.3306 162.947 87.1284 163.176C85.2644 165.411 84.1674 168.979 84.8582 171.906C84.475 171.524 84.1035 171.13 83.7439 170.722C84.2122 169.653 83.9293 168.319 84.1797 167.176C84.4548 165.911 85.0201 164.771 85.6246 163.635C85.8734 163.165 85.2801 162.689 84.8845 163.065C83.2772 164.657 82.5617 166.895 82.4922 169.154C82.3802 168.986 82.2681 168.818 82.1561 168.649C82.6043 166.737 82.1236 164.234 84.0851 163.004C84.5024 162.743 84.2346 161.967 83.7343 162.169C81.9213 162.815 81.0171 164.565 80.8563 166.424C80.7963 166.315 80.7358 166.207 80.6742 166.097C80.8087 164.718 81.0742 163.483 82.0435 162.364C82.2088 162.174 82.0003 161.86 81.7634 162.001C80.7944 162.595 80.0978 163.547 79.8237 164.65C79.7761 164.559 79.719 164.469 79.6585 164.374ZM101.004 138.506C101.046 138.38 100.874 138.331 100.805 138.423C100.029 139.437 99.561 141.013 99.7246 142.292C99.751 142.493 100.085 142.595 100.124 142.348C100.225 141.693 100.247 141.036 100.397 140.387C100.547 139.739 100.8 139.132 101.006 138.506H101.004ZM101.595 138.423C101.525 138.331 101.353 138.38 101.395 138.506C101.601 139.132 101.856 139.739 102.003 140.385C102.149 141.032 102.174 141.691 102.276 142.346C102.315 142.595 102.649 142.493 102.675 142.29C102.839 141.013 102.372 139.437 101.596 138.423H101.595ZM134.628 116C134.945 116.112 135.3 115.683 135.086 115.403C134.183 114.221 132.341 113.829 130.947 114.118C130.654 114.179 130.646 114.663 130.947 114.719C131.589 114.838 132.231 114.977 132.848 115.192C133.465 115.406 134.012 115.779 134.63 116H134.628ZM133.52 117.292C133.655 117.447 133.886 117.218 133.745 117.068C133.135 116.402 132.39 115.875 131.56 115.521C131.425 115.462 131.306 115.657 131.442 115.721C132.24 116.089 132.949 116.625 133.522 117.292H133.52ZM131.652 104.309C131.709 104.253 131.753 104.186 131.781 104.112C131.809 104.037 131.82 103.957 131.813 103.878C131.453 97.0765 125.662 91.2269 118.958 90.4123C117.582 90.2515 115.988 90.4756 115.298 91.8359C114.691 93.0303 114.87 94.7598 115.261 96.0036C115.709 97.4378 116.737 98.2771 118.214 98.5074C121.609 98.9556 125.093 99.6234 127.884 101.743C129.162 102.672 130.139 103.919 131.149 105.116C131.406 105.419 131.836 105.086 131.766 104.755C131.737 104.604 131.697 104.456 131.654 104.309H131.652ZM130.681 141.446C130.938 140.577 130.756 139.426 130.646 138.536C130.544 137.709 130.357 136.896 130.01 136.136C129.17 134.29 127.357 133.069 125.801 131.865C122.392 129.232 118.851 126.832 114.882 125.127C114.866 125.12 114.847 125.118 114.83 125.124C114.812 125.129 114.798 125.141 114.789 125.157C114.779 125.172 114.776 125.191 114.78 125.209C114.784 125.227 114.795 125.242 114.81 125.253C118.083 127.494 121.454 129.614 124.611 132.017C126.145 133.184 128.065 134.412 129.037 136.124C129.519 136.976 129.738 137.951 129.838 138.917C129.922 139.732 129.782 140.664 130.013 141.446C130.036 141.517 130.08 141.579 130.14 141.624C130.2 141.668 130.273 141.692 130.348 141.692C130.423 141.692 130.496 141.668 130.556 141.624C130.616 141.579 130.66 141.517 130.683 141.446H130.681ZM128.838 109.083C128.857 107.626 127.675 106.232 126.713 105.236C123.565 101.927 116.868 99.5674 113.681 103.974C113.425 104.416 113.927 104.87 114.353 104.646C115.066 104.277 115.565 103.598 116.287 103.22C118.35 102.187 120.818 102.794 122.815 103.709C124.075 104.289 125.224 105.085 126.209 106.062C127.153 107.006 127.678 108.234 128.576 109.189C128.597 109.21 128.625 109.225 128.654 109.232C128.684 109.238 128.715 109.235 128.743 109.224C128.771 109.212 128.796 109.193 128.813 109.168C128.83 109.143 128.839 109.113 128.84 109.083H128.838ZM128.102 113.924C128.57 109.667 123.294 106.509 119.647 105.827C116.093 105.035 112.462 106.477 111.032 109.957C110.575 110.994 110.098 112.283 110.351 113.419C110.604 114.555 112.389 114.831 112.906 113.755C113.281 112.971 113.298 112.074 113.649 111.271C113.829 110.853 114.06 110.461 114.338 110.102C114.17 110.938 114.341 111.913 114.905 112.562C115.103 112.927 115.427 113.278 115.817 113.571C118.503 116.453 123.115 113.855 123.045 110.202C123.938 110.799 124.738 111.524 125.422 112.353C125.907 112.966 126.256 113.726 126.823 114.264C127.221 114.646 127.972 114.505 128.104 113.924H128.102ZM127.388 136.644C128.436 134.608 124.436 132.879 123.227 132.142C123.041 132.03 122.815 132.31 122.99 132.45C123.792 133.088 124.626 133.701 125.399 134.377C126.189 135.018 126.549 135.567 126.754 136.562C126.843 136.829 127.246 136.923 127.39 136.644H127.388ZM124.486 142.751C126.522 143.29 127.088 140.255 126.579 138.881C126.086 137.548 123.704 135.736 122.67 137.549C122.325 138.151 123.006 138.626 123.545 139.042C121.959 139.725 120.47 140.626 118.894 141.334C116.987 142.181 115.013 142.869 112.992 143.389C109.992 144.188 106.914 144.694 103.808 144.765C102.907 144.79 99.2949 144.79 98.394 144.765C95.2879 144.694 92.2093 144.188 89.2097 143.389C87.1887 142.869 85.2144 142.181 83.3074 141.334C81.7297 140.626 80.2411 139.725 78.6573 139.042C79.1934 138.626 79.877 138.151 79.5324 137.549C78.4982 135.736 76.1148 137.549 75.6224 138.881C75.1137 140.255 75.6784 143.29 77.7161 142.751C77.8866 142.704 78.0421 142.614 78.1673 142.489C78.2925 142.364 78.3832 142.209 78.4304 142.039C78.645 141.204 77.7872 140.462 78.064 139.708C79.4473 140.967 81.1919 141.822 82.8721 142.612C86.7059 144.44 90.8277 145.672 95.0532 146.141C96.0744 146.265 97.0994 146.349 98.1284 146.393C99.1005 146.435 103.105 146.435 104.077 146.393C105.105 146.349 106.13 146.266 107.152 146.141C111.379 145.675 115.5 144.443 119.334 142.612C121.014 141.822 122.76 140.967 124.143 139.708C124.418 140.462 123.56 141.204 123.775 142.039C123.822 142.209 123.912 142.365 124.037 142.49C124.162 142.615 124.317 142.706 124.487 142.753L124.486 142.751ZM123.968 135.168C124.278 135.416 124.849 135.081 124.571 134.703C123.609 133.392 121.948 132.692 120.4 132.349C120.186 132.301 120.115 132.594 120.311 132.671C121.763 133.232 122.778 134.21 123.968 135.168ZM121.13 135.733C121.511 135.868 121.786 135.469 121.727 135.137C121.45 133.797 118.902 132.598 117.623 132.735C117.252 132.761 117.012 133.316 117.414 133.505C118.086 133.82 118.788 134.071 119.414 134.477C120.004 134.861 120.46 135.494 121.13 135.732V135.733ZM120.196 137.072C120.252 136.167 118.925 135.445 118.262 135.003C117.301 134.36 116.372 134.05 115.266 133.801C114.954 133.73 114.743 134.171 115.041 134.329C116.366 135.067 117.669 135.954 118.777 136.992C119.097 137.293 119.301 137.519 119.76 137.507C119.874 137.504 119.983 137.457 120.064 137.376C120.145 137.295 120.192 137.187 120.196 137.072ZM117.47 138.437C117.644 137.463 116.349 136.564 115.663 136.028C114.791 135.352 113.886 134.714 112.759 134.639C112.454 134.619 112.342 135.01 112.524 135.207C113.21 135.957 114.124 136.43 114.884 137.102C115.287 137.455 115.67 137.829 116.032 138.223C116.347 138.569 116.508 138.788 116.995 138.797C117.196 138.804 117.434 138.645 117.47 138.438V138.437ZM116.573 130.713C117.12 129.386 116.586 128.08 115.751 127.012C115.141 126.204 114.357 125.525 113.407 125.152C113.062 125.021 112.72 125.124 112.386 125.01C112.231 124.958 112.156 125.178 112.28 125.262C112.451 125.374 112.611 125.724 112.762 125.899C113.254 126.379 113.764 126.856 114.213 127.381C114.833 128.08 115.601 129.136 115.194 130.115C114.646 131.441 113.422 131.671 112.147 131.566C112.858 131.174 112.539 129.961 111.811 129.679C109.432 128.766 107.505 131.391 105.634 132.371C104.645 132.889 103.569 133.166 102.469 133.319C101.564 133.45 100.645 133.45 99.7409 133.319C98.6405 133.166 97.5665 132.889 96.576 132.371C94.7042 131.391 92.7774 128.766 90.3986 129.679C89.6663 129.959 89.3492 131.172 90.0624 131.566C88.7878 131.671 87.5637 131.441 87.0152 130.115C86.6085 129.136 87.3766 128.08 87.9962 127.381C88.4444 126.856 88.9559 126.379 89.4473 125.899C89.5991 125.724 89.7582 125.375 89.9297 125.262C90.0535 125.18 89.979 124.958 89.8232 125.01C89.487 125.122 89.1475 125.021 88.803 125.152C87.8505 125.525 87.069 126.204 86.4589 127.012C85.6241 128.081 85.0907 129.386 85.6364 130.713C86.7816 133.5 90.2652 133.484 92.7393 132.72C95.0235 134.708 98.2517 135.866 101.208 135.887C104.33 135.909 107.191 134.71 109.475 132.72C111.943 133.487 115.429 133.501 116.572 130.714L116.573 130.713ZM114.904 139.309C115.016 139.098 115.037 138.833 114.904 138.624C113.971 137.154 112.139 135.461 110.415 135.033C109.963 134.921 109.597 135.491 109.949 135.831C110.863 136.709 111.966 137.351 112.841 138.284C113.206 138.676 114.315 140.418 114.903 139.31L114.904 139.309ZM111.782 140.641C112.258 139.74 111.13 138.512 110.56 137.856C109.955 137.162 108.849 135.927 107.844 135.998C107.597 136.015 107.35 136.251 107.446 136.521C107.747 137.368 108.828 137.977 109.407 138.66C109.77 139.083 110.099 139.533 110.393 140.007C110.628 140.39 110.807 140.763 111.283 140.844C111.472 140.877 111.683 140.826 111.781 140.642L111.782 140.641ZM111.707 150.165C111.9 149.994 111.689 149.725 111.473 149.766C109.424 150.158 107.486 150.961 105.431 151.344C104.003 151.599 102.579 151.823 101.12 151.797C99.6507 151.826 98.2147 151.602 96.7749 151.344C94.7193 150.961 92.7814 150.157 90.7319 149.766C90.5157 149.725 90.3056 149.994 90.4983 150.165C92.9775 152.238 96.3558 152.936 99.4871 153.348C99.9723 153.529 102.232 153.529 102.72 153.348C105.849 152.936 109.226 152.239 111.705 150.165H111.707ZM108.258 140.888C108.973 143.104 110.931 141.611 108.437 138.675C107.703 137.718 106.862 137.075 105.699 136.755C105.479 136.695 105.328 136.97 105.481 137.131C106.545 138.254 107.688 139.419 108.258 140.888ZM108.074 127.178C108.593 125.865 107.824 124.305 106.708 123.576C106.66 123.543 106.62 123.617 106.663 123.65C107.816 124.511 108.054 125.765 107.822 127.109C107.818 127.14 107.826 127.172 107.843 127.198C107.86 127.224 107.887 127.243 107.917 127.251C107.947 127.26 107.98 127.257 108.008 127.244C108.036 127.23 108.059 127.207 108.072 127.178H108.074ZM106.341 141.913C106.647 142.227 107.3 142.009 107.256 141.534C107.181 140.7 106.703 139.998 106.229 139.326C105.777 138.688 105.272 137.918 104.564 137.552C104.102 137.312 103.691 137.783 103.889 138.224C104.192 138.897 104.782 139.457 105.178 140.078C105.564 140.688 105.828 141.386 106.339 141.911L106.341 141.913ZM104.519 142.513C104.774 142.95 105.391 142.642 105.3 142.184C104.964 140.477 103.747 138.673 102.412 137.586C102.387 137.562 102.354 137.547 102.319 137.546C102.285 137.544 102.25 137.554 102.223 137.575C102.195 137.597 102.176 137.627 102.169 137.661C102.162 137.695 102.167 137.73 102.184 137.76C102.555 138.567 102.989 139.329 103.386 140.12C103.784 140.911 104.072 141.748 104.517 142.51L104.519 142.513ZM102.705 111.556C103.348 111.476 103.346 110.637 102.705 110.556C101.642 110.411 100.564 110.411 99.5011 110.556C98.8601 110.637 98.8585 111.476 99.5011 111.556C100.564 111.7 101.641 111.7 102.703 111.554L102.705 111.556ZM101.104 109.647C101.294 109.674 102.569 109.591 102.127 109.247C101.8 109.127 101.452 109.076 101.104 109.097C100.914 109.069 99.6372 109.153 100.079 109.498C100.407 109.615 100.754 109.665 101.102 109.645L101.104 109.647ZM100.223 137.76C100.239 137.73 100.244 137.695 100.236 137.661C100.229 137.627 100.21 137.597 100.182 137.577C100.155 137.556 100.121 137.545 100.087 137.547C100.052 137.548 100.019 137.562 99.9941 137.586C98.6607 138.673 97.441 140.477 97.106 142.184C97.0163 142.642 97.6315 142.95 97.8903 142.513C98.3352 141.751 98.626 140.91 99.0215 140.12C99.417 139.33 99.8501 138.565 100.221 137.758L100.223 137.76ZM98.5167 138.225C98.7162 137.783 98.3049 137.312 97.8444 137.553C97.1362 137.919 96.6309 138.689 96.1799 139.327C95.7037 139.999 95.2274 140.701 95.1518 141.535C95.1087 142.01 95.7608 142.228 96.0667 141.914C96.5771 141.392 96.8427 140.692 97.2309 140.08C97.6214 139.454 98.2131 138.894 98.5145 138.223L98.5167 138.225ZM96.9267 137.133C97.0797 136.972 96.9267 136.697 96.7071 136.758C95.5451 137.077 94.7042 137.72 93.9702 138.677C93.4044 139.414 92.3724 140.77 92.8576 141.724C92.9696 141.948 93.2777 142.004 93.4817 141.887C93.8946 141.654 93.9825 141.314 94.1478 140.89C94.3446 140.397 94.5961 139.927 94.8975 139.489C95.4717 138.648 96.223 137.866 96.9245 137.128L96.9267 137.133ZM95.5401 123.65C95.5832 123.617 95.5434 123.543 95.4952 123.576C94.3792 124.304 93.61 125.865 94.1305 127.178C94.1403 127.211 94.1624 127.238 94.1922 127.255C94.2219 127.271 94.2569 127.275 94.2896 127.266C94.3224 127.257 94.3502 127.235 94.3673 127.206C94.3843 127.177 94.3892 127.142 94.3809 127.109C94.1501 125.765 94.3882 124.511 95.5401 123.65ZM94.9574 136.522C95.0532 136.252 94.8061 136.017 94.5585 136C93.554 135.928 92.4474 137.163 91.8435 137.857C91.2732 138.512 90.1448 139.741 90.6193 140.642C90.7185 140.827 90.9303 140.877 91.1185 140.845C91.5931 140.764 91.774 140.391 92.0088 140.008C92.302 139.534 92.6317 139.084 92.9948 138.661C93.5792 137.981 94.6571 137.369 94.9585 136.522H94.9574ZM92.4536 135.833C92.806 135.493 92.4402 134.921 91.9886 135.034C90.2625 135.462 88.4326 137.155 87.4993 138.625C87.3665 138.834 87.3872 139.099 87.4993 139.31C88.0847 140.418 89.1963 138.676 89.5621 138.285C90.4417 137.353 91.5398 136.711 92.4547 135.833H92.4536ZM91.848 113.419C92.1018 112.283 91.6239 110.994 91.1667 109.957C89.7369 106.477 86.1081 105.034 82.5522 105.827C78.9105 106.508 73.6256 109.67 74.0974 113.924C74.2285 114.505 74.9798 114.646 75.3798 114.261C75.944 113.722 76.293 112.962 76.7804 112.349C77.5199 111.452 78.3956 110.677 79.3755 110.052C79.3697 110.177 79.3712 110.303 79.38 110.428C79.3122 110.911 79.3307 111.389 79.4478 111.786C80.2322 116.311 88.1828 115.294 87.9183 110.173C88.17 110.513 88.3823 110.88 88.5509 111.267C88.8999 112.071 88.9184 112.969 89.2938 113.752C89.8109 114.83 91.597 114.55 91.8491 113.419H91.848ZM89.8775 135.213C90.0585 135.015 89.9453 134.624 89.6411 134.644C88.5161 134.72 87.6091 135.358 86.7373 136.034C86.051 136.567 84.7574 137.466 84.9305 138.443C84.968 138.65 85.2044 138.809 85.4067 138.804C85.8919 138.795 86.0544 138.576 86.3692 138.229C86.7317 137.836 87.1151 137.461 87.5177 137.109C88.2791 136.434 89.1924 135.961 89.8815 135.211L89.8775 135.213ZM87.8438 104.651C88.2718 104.875 88.7744 104.417 88.5161 103.978C86.5608 100.995 82.2597 101.151 79.3671 102.55C77.0141 103.582 73.4755 106.334 73.3601 109.087C73.3607 109.117 73.37 109.146 73.3869 109.17C73.4037 109.195 73.4274 109.214 73.4549 109.225C73.4824 109.237 73.5127 109.24 73.5419 109.234C73.5711 109.228 73.5981 109.214 73.6195 109.194C74.5159 108.241 75.0442 107.009 75.9871 106.067C78.3609 103.74 82.6648 101.688 85.9087 103.227C86.632 103.601 87.1323 104.28 87.8449 104.649L87.8438 104.651ZM87.3906 125.251C87.4055 125.241 87.4159 125.225 87.4198 125.207C87.4237 125.189 87.4207 125.171 87.4116 125.155C87.4025 125.139 87.3878 125.127 87.3704 125.122C87.353 125.117 87.3342 125.118 87.3177 125.126C83.3494 126.83 79.8103 129.231 76.3995 131.864C74.0072 133.615 71.8003 135.347 71.5543 138.534C71.4423 139.424 71.2625 140.575 71.5191 141.444C71.5406 141.517 71.585 141.58 71.6455 141.625C71.7061 141.67 71.7796 141.695 71.8552 141.695C71.9308 141.695 72.0043 141.67 72.0649 141.625C72.1254 141.58 72.1698 141.517 72.1914 141.444C72.4233 140.66 72.2827 139.73 72.3673 138.916C72.4664 137.95 72.6861 136.974 73.1679 136.123C74.1371 134.411 76.0566 133.182 77.5911 132.015C80.7493 129.614 84.1175 127.492 87.3906 125.251ZM87.3614 134.327C87.6595 134.169 87.4494 133.728 87.1373 133.798C86.0308 134.05 85.1019 134.359 84.1388 135.001C83.4761 135.448 82.1499 136.168 82.206 137.072C82.2084 137.187 82.2549 137.296 82.3358 137.377C82.4167 137.458 82.5258 137.504 82.6402 137.507C83.1007 137.519 83.3035 137.293 83.6245 136.992C84.7322 135.955 86.037 135.068 87.3603 134.331L87.3614 134.327ZM86.9396 96.0002C87.3317 94.7565 87.511 93.027 86.902 91.8325C86.2101 90.4722 84.6179 90.2481 83.2424 90.4089C76.5384 91.2235 70.7487 97.0731 70.3879 103.875C70.3809 103.954 70.3916 104.034 70.4193 104.108C70.447 104.183 70.4911 104.25 70.5481 104.305C70.505 104.452 70.4646 104.601 70.4361 104.754C70.3666 105.085 70.7963 105.417 71.0524 105.114C72.0608 103.918 73.0396 102.671 74.3181 101.742C75.6631 100.766 77.1601 100.02 78.7486 99.5321C80.4686 98.9987 82.2166 98.7808 83.9876 98.5057C85.4633 98.2771 86.488 97.4378 86.9396 96.0058V96.0002ZM84.9887 133.5C85.3893 133.311 85.1512 132.757 84.7803 132.73C83.5024 132.593 80.9521 133.791 80.6759 135.132C80.6171 135.465 80.8922 135.863 81.272 135.729C81.9443 135.491 82.397 134.857 82.9892 134.472C83.615 134.069 84.3164 133.819 84.9887 133.504V133.5ZM82.0939 132.668C82.2906 132.59 82.2194 132.298 82.0043 132.346C80.4557 132.691 78.7962 133.391 77.8348 134.699C77.5547 135.078 78.1267 135.413 78.4377 135.164C79.6232 134.21 80.64 133.232 82.0939 132.668ZM79.4142 132.45C79.589 132.311 79.3632 132.028 79.1761 132.142C77.9676 132.879 73.9657 134.607 75.0162 136.644C75.1596 136.924 75.563 136.829 75.6509 136.56C75.8566 135.565 76.2168 135.02 77.0051 134.375C77.7749 133.701 78.608 133.088 79.4114 132.45H79.4142ZM71.2529 114.718C71.5543 114.662 71.5465 114.179 71.2529 114.117C69.8573 113.828 68.0169 114.221 67.1143 115.403C66.9014 115.683 67.2566 116.112 67.5732 116C68.1894 115.776 68.7278 115.407 69.352 115.191C69.9761 114.975 70.612 114.838 71.2529 114.718ZM70.7571 115.718C70.8932 115.655 70.7739 115.46 70.6395 115.519C69.809 115.873 69.064 116.4 68.4544 117.066C68.3155 117.218 68.5458 117.446 68.6786 117.29C69.251 116.624 69.9598 116.088 70.7571 115.719V115.718Z" fill="#DFBBA8"/>
<path d="M75.0172 113.702C75.0172 113.702 85.5114 117.503 90.0562 113.619C90.0562 113.619 90.7173 107.588 86.2554 107.505C81.7935 107.422 75.7634 110.314 75.0172 113.702Z" fill="white"/>
<path d="M127.44 113.701C127.44 113.701 116.945 117.502 112.401 113.618C112.401 113.618 111.739 107.586 116.201 107.503C120.663 107.421 126.696 110.313 127.44 113.701Z" fill="white"/>
<path d="M120.175 92.5326C124.913 93.5557 128.398 97.0287 129.897 101.441C126.944 98.478 122.91 97.3558 118.912 96.8466C117.47 96.7385 116.976 96.1278 116.818 94.7249C116.75 94.1994 116.634 93.4727 116.811 92.9612C117.221 91.7869 119.316 92.3444 120.175 92.5326Z" fill="#311807"/>
<path d="M82.0245 92.5326C84.1854 92.0474 85.9749 91.788 85.3816 94.7243C85.3132 95.2543 85.1899 95.8801 84.8174 96.2868C84.4297 96.7087 83.8252 96.7687 83.2873 96.8471C79.2893 97.3586 75.2554 98.4808 72.3023 101.441C73.8004 97.0258 77.2864 93.5528 82.0245 92.5326Z" fill="#311807"/>
<path d="M154.552 87.8041C156.323 89.5459 157.45 92.0295 157.146 94.5389C157.095 95.6964 156.417 96.7009 156.211 97.8108C154.985 96.6981 153.264 96.3104 151.461 96.5916C151.141 96.6409 151.084 97.1569 151.371 97.2931C152.282 97.7256 153.395 98.0068 154.189 98.6377C155.674 99.8568 155.895 101.999 155.463 103.764C155.271 104.625 154.871 105.473 154.631 106.334C152.301 105.45 149.457 105.815 147.62 107.598C147.503 106.287 147.318 104.983 147.066 103.691C146.618 101.375 145.609 99.0971 146.286 96.7323C146.874 94.6689 147.929 92.8021 148.343 90.677C149.199 86.6158 148.317 82.7674 145.149 79.9594C144.498 79.3291 143.831 78.7016 143.377 77.9089C142.823 76.9458 142.76 75.8006 142.611 74.7238C141.204 65.7682 130.401 65.8343 124.325 61.5523C127.055 59.0978 129.528 55.4119 128.84 51.5798C128.592 50.3169 126.397 50.243 126.213 51.5798C126.069 52.6291 125.984 53.6891 125.658 54.7032C124.131 59.1785 119.849 62.1024 115.563 63.6308C117.204 60.7304 118.724 56.6316 116.468 53.6785C116.392 53.5855 116.27 53.6891 116.287 53.7832C116.923 56.9593 115.576 59.9959 113.878 62.6095C113.635 62.9725 113.352 63.3311 113.01 63.6078C112.632 63.9137 112.216 64.0605 112.012 64.5429C111.533 64.6228 111.05 64.6871 110.565 64.7356C111.765 62.5674 112.364 60.3657 112.853 57.9885C113.581 54.6303 113.133 50.8503 110.599 48.3521C110.567 48.3163 110.504 48.3628 110.532 48.4042C112.391 51.1103 111.96 54.8505 111.154 57.8271C110.559 59.9225 109.926 62.1215 108.618 63.8975C108.343 64.242 107.971 64.5138 107.674 64.8275C107.209 64.8124 106.742 64.7799 106.277 64.7334C109.717 60.1393 107.906 47.5157 102.268 45.0309C102.258 45.025 102.246 45.0232 102.235 45.0259C102.224 45.0287 102.214 45.0357 102.209 45.0455C102.203 45.0553 102.201 45.0671 102.204 45.0782C102.206 45.0894 102.213 45.099 102.223 45.1049C105.189 47.3028 105.85 50.959 106.175 54.4102C106.521 57.8053 106.623 61.7584 104.085 64.3983C103.416 64.2605 102.753 64.0956 102.096 63.9036C104.446 56.4747 97.9472 47.2966 91.4824 44.0018C90.5507 43.53 89.5988 43.26 88.6391 42.8717C88.6156 42.8628 88.5988 42.9014 88.6217 42.9121C89.5215 43.3042 90.3854 43.9385 91.1922 44.4993C91.9993 45.0509 92.7757 45.6462 93.5178 46.2825C97.3382 49.6379 100.194 54.4314 100.542 59.5701C100.588 60.8223 100.245 61.9764 99.8465 63.1462C97.1432 62.1187 94.5577 60.7309 92.0931 59.2933C89.991 58.0697 87.9186 56.6433 85.5448 55.9923C79.4912 54.5631 68.0508 57.7291 63.6012 62.1405C63.5133 62.2223 63.632 62.3842 63.7323 62.3086C67.7337 59.3908 72.6236 58.2423 77.4373 57.5067C80.0016 57.1145 82.7037 56.7638 85.2283 57.5257C75.4731 59.4138 68.783 68.3666 66.1061 77.4708C62.9384 77.4444 59.4055 79.4658 57.4222 81.8693C57.1672 82.1965 57.4782 82.6946 57.8877 82.4716C59.2323 81.7432 60.4649 80.8211 61.8655 80.1846C63.1065 79.6204 64.3184 79.3734 65.6193 79.2047C65.265 80.5707 65.0373 81.9664 64.9391 83.3741C63.111 83.3047 61.2252 83.7574 59.7556 84.8829C59.2071 85.3076 58.8822 85.8639 58.411 86.3508C58.1959 86.5704 58.4866 86.9906 58.7539 86.7945C59.5422 86.2118 60.8235 85.9042 61.7641 85.6521C62.7844 85.377 63.7984 85.2364 64.8551 85.2829C64.8629 88.2226 64.9912 91.174 63.7071 93.8985C61.2806 99.0231 56.7168 103.184 55.9055 109.009C54.9212 107.622 53.5351 106.372 51.8487 106.095C50.4705 105.745 48.9819 105.802 47.6591 106.297C47.5588 104.891 47.4692 103.518 47.6221 102.103C48.0519 98.2584 49.7438 94.5462 52.4331 91.7583C53.0079 91.16 53.6494 90.4479 54.4438 90.1543C54.9116 89.9823 54.8086 89.37 54.3318 89.314C51.879 88.9694 48.6396 94.3955 47.7544 96.3872C47.3879 89.4916 50.8974 82.7982 56.4008 78.7274C56.4281 78.7086 56.4472 78.6802 56.4543 78.6479C56.4614 78.6156 56.456 78.5818 56.4391 78.5533C56.4223 78.5248 56.3952 78.5038 56.3635 78.4945C56.3317 78.4853 56.2976 78.4884 56.268 78.5033C52.7166 80.1969 50.0772 83.1596 48.3056 86.627C46.6927 79.1829 50.4738 71.7046 56.6081 67.4932C56.6722 67.4515 56.7178 67.3868 56.7354 67.3124C56.7531 67.238 56.7414 67.1597 56.7029 67.0937C56.6643 67.0277 56.6018 66.9791 56.5284 66.9579C56.4549 66.9367 56.3761 66.9446 56.3084 66.98C53.1664 68.4759 50.6548 70.9578 48.9382 73.9484C47.5936 62.8924 56.472 53.7093 66.3274 50.2816C68.6469 49.3763 71.0627 48.7628 73.464 48.123C74.2814 47.8877 75.082 47.5879 75.9291 47.4675C75.9695 47.463 75.9599 47.3919 75.9185 47.3963C74.3542 47.5678 72.795 47.4832 71.228 47.7325C70.066 47.9179 68.9052 48.1588 67.7617 48.4552C69.4632 44.5995 71.3221 40.9013 74.2231 37.7544C80.87 30.5327 91.4841 27.0261 101.084 29.3069C109.193 31.219 117.219 39.5842 120.044 47.2787C120.492 48.611 120.62 50.0239 121.091 51.3338C121.436 52.2986 123.122 52.5664 123.326 51.3338C124.026 44.0505 115.914 34.8691 110.373 30.7658C124.357 27.1712 133.903 34.6158 132.671 49.2043C132.476 51.759 131.878 54.2998 130.783 56.6209C130.402 57.412 129.942 58.1431 129.698 58.993C129.401 60.0239 130.668 60.6329 131.404 59.9869C132.64 58.9023 133.279 57.0277 133.791 55.5049C135.182 51.247 135.348 46.631 134.538 42.2269C140.507 44.7105 143.912 50.6973 141.774 57.012C141.443 58.054 140.982 59.0503 140.403 59.9774C139.761 61.0116 138.97 61.8397 138.559 63.0028C138.347 63.6022 139.023 64.2964 139.629 64.0723C142.29 62.9686 143.472 59.7023 144.264 57.1302C145.732 58.6742 147.452 59.9752 148.836 61.6089C154.948 68.3879 157.95 77.9442 156.148 86.9586C155.485 86.3866 154.768 85.8768 153.98 85.4902C153.295 85.158 152.541 85.0207 151.819 84.7905C151.442 84.6683 151.184 85.2583 151.545 85.4376C152.632 85.9776 153.693 86.9435 154.552 87.8041Z" fill="#522D1C"/>
<path d="M135.087 115.403C135.301 115.683 134.947 116.113 134.63 116C134.013 115.776 133.474 115.408 132.85 115.192C132.225 114.975 131.59 114.838 130.949 114.719C130.647 114.663 130.655 114.179 130.949 114.118C132.344 113.828 134.185 114.221 135.087 115.403Z" fill="black"/>
<path d="M131.814 103.878C131.821 103.958 131.81 104.038 131.783 104.112C131.755 104.187 131.711 104.254 131.653 104.309C131.697 104.456 131.737 104.605 131.766 104.758C131.835 105.089 131.405 105.421 131.149 105.118C130.141 103.922 129.162 102.674 127.884 101.746C125.093 99.6256 121.609 98.9561 118.214 98.5096C116.737 98.2793 115.712 97.44 115.261 96.0058C114.869 94.762 114.691 93.0325 115.298 91.838C115.99 90.4777 117.582 90.2536 118.957 90.4144C125.663 91.2274 131.452 97.077 131.814 103.878ZM129.898 101.441C128.398 97.0271 124.911 93.5541 120.175 92.5328C119.316 92.3473 117.219 91.7899 116.814 92.9608C116.637 93.4723 116.753 94.199 116.821 94.7245C116.979 96.1251 117.473 96.738 118.915 96.8462C122.911 97.3549 126.944 98.4771 129.898 101.441Z" fill="black"/>
<path d="M133.522 117.292C132.95 116.625 132.241 116.088 131.444 115.719C131.309 115.655 131.428 115.46 131.562 115.519C132.392 115.873 133.137 116.4 133.747 117.066C133.888 117.218 133.656 117.447 133.522 117.292Z" fill="black"/>
<path d="M126.715 105.236C127.678 106.232 128.86 107.628 128.841 109.083C128.84 109.113 128.83 109.141 128.813 109.166C128.796 109.19 128.773 109.209 128.745 109.221C128.718 109.232 128.687 109.235 128.658 109.229C128.629 109.224 128.602 109.21 128.581 109.189C127.684 108.237 127.158 107.004 126.213 106.063C125.228 105.086 124.08 104.29 122.819 103.71C120.823 102.795 118.354 102.188 116.291 103.22C115.57 103.599 115.071 104.278 114.358 104.647C113.93 104.871 113.428 104.414 113.686 103.974C116.871 99.5674 123.567 101.927 126.715 105.236Z" fill="black"/>
<path d="M119.649 105.827C123.296 106.51 128.572 109.669 128.104 113.925C127.973 114.506 127.221 114.646 126.821 114.261C126.257 113.722 125.908 112.963 125.421 112.349C124.737 111.52 123.937 110.796 123.044 110.198C123.115 113.851 118.506 116.449 115.816 113.567C115.424 113.274 115.102 112.923 114.904 112.559C114.34 111.91 114.169 110.934 114.337 110.098C114.059 110.457 113.828 110.85 113.648 111.267C113.299 112.07 113.28 112.968 112.905 113.752C112.388 114.83 110.602 114.551 110.35 113.415C110.098 112.28 110.574 110.991 111.031 109.954C112.464 106.477 116.095 105.036 119.649 105.827Z" fill="black"/>
<path d="M126.581 138.883C127.09 140.257 126.525 143.292 124.487 142.753C124.317 142.706 124.161 142.616 124.036 142.491C123.911 142.366 123.82 142.211 123.773 142.041C123.559 141.206 124.416 140.464 124.141 139.71C122.758 140.969 121.012 141.824 119.332 142.614C115.498 144.442 111.376 145.674 107.15 146.143C106.129 146.267 105.104 146.351 104.075 146.395C103.103 146.437 99.0988 146.437 98.1268 146.395C97.0992 146.352 96.0742 146.268 95.0515 146.143C90.8244 145.677 86.7037 144.445 82.8704 142.614C81.1896 141.824 79.4455 140.969 78.0623 139.71C77.7855 140.464 78.6433 141.206 78.4287 142.041C78.3815 142.211 78.2908 142.366 78.1656 142.491C78.0404 142.616 77.8849 142.706 77.7143 142.753C75.6778 143.292 75.1119 140.257 75.6207 138.883C76.1148 137.55 78.4965 135.738 79.5307 137.551C79.8753 138.153 79.1917 138.628 78.6556 139.044C80.2411 139.727 81.7297 140.628 83.3057 141.336C85.2131 142.184 87.1877 142.871 89.2091 143.391C92.2088 144.19 95.2874 144.696 98.3934 144.767C99.2943 144.793 102.906 144.793 103.807 144.767C106.913 144.696 109.992 144.19 112.992 143.391C115.013 142.871 116.987 142.184 118.894 141.336C120.472 140.628 121.96 139.727 123.544 139.044C123.008 138.628 122.324 138.153 122.669 137.551C123.705 135.738 126.088 137.55 126.581 138.883Z" fill="black"/>
<path d="M123.227 132.142C124.435 132.879 128.437 134.607 127.387 136.644C127.244 136.924 126.84 136.829 126.752 136.56C126.547 135.567 126.187 135.018 125.397 134.375C124.626 133.7 123.791 133.087 122.988 132.448C122.814 132.31 123.04 132.03 123.227 132.142Z" fill="black"/>
<path d="M121.728 135.136C121.786 135.468 121.511 135.867 121.131 135.733C120.459 135.495 120.004 134.861 119.414 134.476C118.789 134.07 118.085 133.819 117.414 133.504C117.013 133.315 117.252 132.76 117.623 132.734C118.903 132.597 121.451 133.796 121.728 135.136Z" fill="black"/>
<path d="M120.398 132.347C121.947 132.691 123.608 133.392 124.569 134.7C124.849 135.078 124.277 135.414 123.966 135.165C122.776 134.208 121.761 133.23 120.31 132.666C120.114 132.591 120.185 132.298 120.398 132.347Z" fill="black"/>
<path d="M118.261 135.004C118.924 135.446 120.25 136.168 120.195 137.073C120.191 137.188 120.144 137.296 120.063 137.377C119.982 137.458 119.873 137.505 119.759 137.508C119.299 137.52 119.096 137.294 118.776 136.993C117.667 135.953 116.367 135.068 115.04 134.33C114.742 134.172 114.952 133.731 115.264 133.802C116.371 134.054 117.3 134.361 118.261 135.004Z" fill="black"/>
<path d="M115.664 136.032C116.35 136.565 117.645 137.465 117.471 138.441C117.435 138.648 117.197 138.807 116.996 138.803C116.509 138.794 116.349 138.574 116.033 138.228C115.671 137.834 115.288 137.46 114.885 137.107C114.125 136.435 113.211 135.962 112.525 135.212C112.343 135.015 112.455 134.624 112.76 134.644C113.887 134.719 114.792 135.356 115.664 136.032Z" fill="black"/>
<path d="M115.749 127.013C116.584 128.082 117.118 129.387 116.571 130.714C115.426 133.501 111.942 133.485 109.468 132.722C107.184 134.709 104.323 135.91 101.202 135.888C98.2452 135.867 95.017 134.712 92.7328 132.722C90.2587 133.485 86.7751 133.501 85.6299 130.714C85.0842 129.387 85.6176 128.081 86.4524 127.013C87.0625 126.205 87.8463 125.526 88.7965 125.154C89.141 125.023 89.4828 125.126 89.8167 125.012C89.9725 124.959 90.047 125.18 89.9232 125.264C89.7517 125.376 89.5926 125.726 89.4408 125.9C88.9494 126.381 88.4396 126.857 87.9897 127.383C87.3701 128.081 86.6019 129.138 87.0087 130.117C87.5572 131.442 88.7814 131.672 90.0559 131.568C89.345 131.175 89.6638 129.962 90.3921 129.681C92.7709 128.767 94.6977 131.393 96.5695 132.373C97.56 132.89 98.634 133.167 99.7344 133.32C100.639 133.451 101.558 133.451 102.462 133.32C103.563 133.167 104.638 132.89 105.627 132.373C107.499 131.393 109.426 128.767 111.805 129.681C112.537 129.961 112.854 131.173 112.141 131.568C113.416 131.672 114.639 131.442 115.188 130.117C115.595 129.138 114.827 128.081 114.207 127.383C113.759 126.857 113.247 126.381 112.756 125.9C112.604 125.726 112.445 125.376 112.273 125.264C112.15 125.182 112.224 124.959 112.38 125.012C112.716 125.124 113.056 125.023 113.4 125.154C114.355 125.526 115.139 126.204 115.749 127.013Z" fill="black"/>
<path d="M124.611 132.017C121.454 129.614 118.083 127.492 114.812 125.251C114.797 125.241 114.787 125.225 114.783 125.207C114.779 125.189 114.782 125.171 114.791 125.155C114.8 125.139 114.815 125.127 114.832 125.122C114.849 125.117 114.868 125.118 114.885 125.126C118.853 126.83 122.392 129.23 125.803 131.864C127.359 133.068 129.171 134.288 130.013 136.134C130.359 136.894 130.546 137.707 130.648 138.534C130.76 139.424 130.94 140.575 130.684 141.444C130.662 141.516 130.618 141.58 130.557 141.625C130.496 141.67 130.423 141.695 130.347 141.695C130.272 141.695 130.198 141.67 130.138 141.625C130.077 141.58 130.033 141.516 130.011 141.444C129.779 140.66 129.92 139.73 129.836 138.916C129.736 137.95 129.517 136.974 129.035 136.123C128.065 134.412 126.146 133.184 124.611 132.017Z" fill="black"/>
<path d="M114.901 138.625C115.034 138.834 115.013 139.099 114.901 139.31C114.314 140.417 113.204 138.676 112.838 138.285C111.961 137.352 110.86 136.71 109.946 135.832C109.594 135.492 109.96 134.921 110.412 135.034C112.136 135.462 113.968 137.155 114.901 138.625Z" fill="black"/>
<path d="M110.558 137.857C111.129 138.512 112.257 139.741 111.781 140.641C111.683 140.827 111.472 140.877 111.283 140.844C110.807 140.764 110.628 140.391 110.393 140.008C110.1 139.534 109.77 139.084 109.407 138.66C108.826 137.98 107.745 137.368 107.446 136.521C107.351 136.251 107.598 136.017 107.845 135.999C108.847 135.929 109.954 137.163 110.558 137.857Z" fill="black"/>
<path d="M111.471 149.766C111.687 149.725 111.898 149.993 111.705 150.165C109.226 152.238 105.846 152.936 102.718 153.348C102.231 153.529 99.9724 153.529 99.485 153.348C96.3537 152.936 92.9753 152.239 90.4962 150.165C90.3034 149.993 90.5135 149.725 90.7298 149.766C92.7792 150.158 94.7172 150.96 96.7728 151.344C98.2126 151.602 99.6486 151.826 101.118 151.797C102.575 151.823 104.001 151.599 105.429 151.344C107.484 150.96 109.422 150.157 111.471 149.766Z" fill="black"/>
<path d="M108.434 138.675C110.929 141.611 108.97 143.103 108.255 140.888C107.687 139.419 106.544 138.254 105.478 137.13C105.325 136.97 105.478 136.695 105.696 136.755C106.859 137.075 107.7 137.718 108.434 138.675Z" fill="black"/>
<path d="M107.252 141.533C107.296 142.007 106.643 142.225 106.338 141.911C105.826 141.389 105.562 140.689 105.174 140.077C104.778 139.454 104.188 138.894 103.885 138.224C103.688 137.782 104.098 137.31 104.56 137.551C105.268 137.917 105.773 138.687 106.225 139.325C106.699 139.996 107.177 140.698 107.252 141.533Z" fill="black"/>
<path d="M107.819 127.109C108.051 125.765 107.813 124.511 106.66 123.65C106.617 123.618 106.66 123.544 106.705 123.576C107.821 124.305 108.59 125.865 108.072 127.179C108.061 127.21 108.038 127.236 108.009 127.251C107.979 127.266 107.945 127.27 107.913 127.261C107.881 127.252 107.854 127.232 107.836 127.204C107.819 127.175 107.813 127.142 107.819 127.109Z" fill="black"/>
<path d="M102.7 110.554C103.341 110.635 103.343 111.473 102.7 111.554C101.637 111.699 100.559 111.699 99.4963 111.554C98.8537 111.473 98.8554 110.635 99.4963 110.554C100.559 110.409 101.637 110.409 102.7 110.554Z" fill="black"/>
<path d="M102.409 137.584C103.744 138.671 104.963 140.475 105.297 142.182C105.389 142.641 104.772 142.948 104.517 142.511C104.072 141.749 103.781 140.908 103.384 140.118C102.987 139.328 102.553 138.565 102.182 137.759C102.165 137.728 102.16 137.693 102.167 137.659C102.174 137.625 102.193 137.595 102.22 137.574C102.248 137.552 102.282 137.542 102.317 137.544C102.351 137.546 102.384 137.56 102.409 137.584Z" fill="black"/>
<path d="M102.122 109.245C102.564 109.588 101.289 109.672 101.099 109.645C100.751 109.665 100.403 109.614 100.075 109.496C99.6325 109.152 100.909 109.067 101.099 109.095C101.447 109.074 101.795 109.125 102.122 109.245Z" fill="black"/>
<path d="M101.597 138.423C102.373 139.437 102.839 141.013 102.677 142.293C102.651 142.494 102.317 142.596 102.279 142.349C102.177 141.693 102.154 141.036 102.005 140.388C101.857 139.739 101.603 139.134 101.398 138.509C101.356 138.38 101.528 138.332 101.597 138.423Z" fill="black"/>
<path d="M100.221 137.758C99.85 138.565 99.4152 139.327 99.0169 140.118C98.6185 140.909 98.3305 141.748 97.8857 142.51C97.6291 142.948 97.0139 142.64 97.1013 142.181C97.4375 140.475 98.656 138.67 99.9895 137.584C100.014 137.558 100.048 137.543 100.083 137.54C100.118 137.538 100.154 137.548 100.182 137.569C100.21 137.591 100.23 137.622 100.237 137.656C100.244 137.691 100.238 137.727 100.221 137.758Z" fill="black"/>
<path d="M100.397 140.385C100.247 141.035 100.226 141.691 100.124 142.346C100.085 142.595 99.751 142.493 99.7247 142.29C99.5611 141.011 100.029 139.433 100.805 138.421C100.874 138.329 101.046 138.377 101.004 138.504C100.799 139.132 100.544 139.739 100.397 140.385Z" fill="black"/>
<path d="M97.8399 137.55C98.3015 137.311 98.7127 137.782 98.5122 138.223C98.2108 138.895 97.6191 139.455 97.2236 140.076C96.8353 140.688 96.5698 141.388 96.0594 141.91C95.7535 142.224 95.1013 142.006 95.1445 141.532C95.2206 140.697 95.6963 139.995 96.1725 139.323C96.6263 138.686 97.1317 137.916 97.8399 137.55Z" fill="black"/>
<path d="M96.7032 136.755C96.9245 136.695 97.0758 136.97 96.9228 137.13C96.2214 137.866 95.4701 138.648 94.8936 139.488C94.5922 139.925 94.3408 140.395 94.144 140.888C93.9759 141.312 93.8908 141.652 93.4778 141.885C93.2739 142.003 92.9663 141.944 92.8537 141.722C92.3686 140.77 93.4005 139.412 93.9664 138.675C94.6981 137.718 95.5413 137.075 96.7032 136.755Z" fill="black"/>
<path d="M94.5586 136C94.8063 136.017 95.0534 136.252 94.9576 136.522C94.6561 137.369 93.576 137.979 92.9967 138.661C92.6335 139.084 92.3038 139.535 92.0106 140.009C91.7759 140.392 91.5949 140.764 91.1204 140.845C90.9321 140.878 90.7203 140.828 90.6212 140.642C90.1466 139.741 91.275 138.513 91.8453 137.858C92.4476 137.164 93.5541 135.929 94.5586 136Z" fill="black"/>
<path d="M94.1307 127.179C93.6102 125.865 94.3795 124.306 95.4955 123.576C95.5437 123.544 95.5835 123.618 95.5404 123.65C94.3873 124.511 94.1492 125.766 94.3812 127.109C94.3895 127.142 94.3846 127.177 94.3675 127.206C94.3505 127.236 94.3226 127.257 94.2899 127.266C94.2572 127.275 94.2222 127.271 94.1924 127.255C94.1627 127.239 94.1405 127.211 94.1307 127.179Z" fill="black"/>
<path d="M91.9887 135.034C92.4403 134.922 92.8061 135.493 92.4537 135.833C91.5388 136.711 90.4368 137.352 89.5622 138.286C89.1964 138.678 88.0848 140.418 87.4994 139.31C87.3873 139.1 87.3666 138.834 87.4994 138.626C88.4328 137.156 90.2626 135.462 91.9887 135.034Z" fill="black"/>
<path d="M91.1697 109.957C91.6269 110.994 92.1048 112.283 91.851 113.419C91.5972 114.554 89.8128 114.831 89.2962 113.755C88.9209 112.97 88.9041 112.074 88.5533 111.27C88.3847 110.882 88.1725 110.515 87.9208 110.176C88.1852 115.297 80.2341 116.314 79.4503 111.789C79.3332 111.392 79.3147 110.914 79.3825 110.431C79.3737 110.306 79.3722 110.18 79.378 110.055C78.3981 110.68 77.5224 111.455 76.7829 112.352C76.2961 112.965 75.947 113.724 75.3823 114.263C74.9823 114.647 74.2309 114.506 74.0998 113.927C73.6281 109.673 78.9108 106.511 82.5547 105.829C86.1089 105.034 89.7377 106.478 91.1697 109.957Z" fill="black"/>
<path d="M89.642 134.643C89.9463 134.623 90.0594 135.014 89.8785 135.211C89.1921 135.961 88.2789 136.434 87.5186 137.106C87.116 137.459 86.7326 137.833 86.3701 138.227C86.0552 138.573 85.8927 138.793 85.4076 138.802C85.2053 138.806 84.9689 138.647 84.9313 138.44C84.7582 137.466 86.0519 136.567 86.7382 136.031C87.61 135.357 88.517 134.72 89.642 134.643Z" fill="black"/>
<path d="M128.423 162.533C127.609 162.169 127.088 161.35 126.639 160.604C126.538 160.436 126.763 160.285 126.902 160.402C127.572 160.969 128.326 161.397 128.916 162.045C129.286 161.674 129.651 161.3 130.01 160.918C129.226 160.263 128.751 159.257 128.46 158.288C128.456 158.269 128.457 158.25 128.464 158.232C128.472 158.215 128.485 158.2 128.501 158.191C128.517 158.181 128.536 158.177 128.555 158.18C128.574 158.182 128.592 158.19 128.605 158.203C129.264 158.884 130.062 159.447 130.755 160.108C131.134 159.689 131.507 159.264 131.876 158.835C131.284 158.659 130.768 158.29 130.411 157.786C130.255 157.559 130.236 157.258 130.074 157.05C130.023 156.981 130.13 156.909 130.186 156.961C130.328 157.091 130.605 157.121 130.784 157.195C131.378 157.446 131.948 157.747 132.49 158.096C132.852 157.655 133.207 157.21 133.555 156.759C133.093 156.372 132.673 155.937 132.301 155.462C132.165 155.288 132.329 155.056 132.538 155.155C133.078 155.411 133.591 155.723 134.068 156.084C140.721 147.27 144.705 136.519 145.535 125.509C145.703 123.333 145.732 121.147 145.941 118.978C145.974 118.649 146.462 118.529 146.553 118.896C147.26 121.722 147.326 124.784 147.108 127.751C147.251 127.738 147.395 127.757 147.53 127.807C148.385 128.124 149.092 128.357 149.862 127.668C151.711 125.787 150.193 123.058 149.526 120.997C149.456 120.873 149.418 120.735 149.414 120.593C148.814 118.442 149.651 115.707 151.84 114.805C153.291 114.212 155.001 114.499 155.874 115.873C156.055 116.158 155.67 116.385 155.443 116.209C153.35 114.612 150.467 116.537 150.785 119.021C152.561 118.426 154.159 119.353 155.129 120.818C155.479 121.26 155.057 121.826 154.533 121.591C153.616 121.23 152.32 120.414 151.383 121.014C152.718 123.428 153.576 126.591 151.638 128.938C150.558 130.245 148.4 130.911 146.897 129.996C146.687 131.815 146.387 133.625 146.005 135.414C152.15 137.665 156.889 132.073 157.853 126.446C158.811 121.033 159.911 112.739 154.883 109.026C153.721 108.229 152.31 107.813 150.9 108.023C150.374 108.115 149.809 108.24 149.339 108.519C148.528 109.028 147.674 109.904 147.715 110.935C147.759 111.518 147.183 112.024 146.631 112.018C145.997 112.012 145.613 111.521 145.546 110.935C145.396 109.591 145.434 108.218 145.296 106.866C145.156 105.517 144.938 104.178 144.642 102.854C144.349 101.539 143.945 100.238 143.876 98.8835C143.74 95.5069 146.039 92.705 146.442 89.4152C146.696 87.6437 146.6 85.7215 145.823 84.0861C145.013 82.3818 143.442 81.3369 142.296 79.8903C141.63 79.0647 141.185 78.0829 141.003 77.0375C140.822 76.0117 140.835 74.9562 140.611 73.9376C138.493 66.3277 128.42 67.1378 123.73 62.0687C118.999 65.8784 112.627 67.6152 106.605 66.9659C99.1774 66.2375 93.1378 61.7056 86.8371 58.157C84.6751 58.9038 82.4929 59.4971 80.4592 60.5879C72.3596 64.9579 67.5284 74.0038 66.5256 82.9549C66.3228 85.4419 66.6987 87.9412 66.4135 90.4209C65.2067 99.2129 56.5244 103.401 57.5335 113.312C57.6214 114.474 55.7967 114.471 55.7222 113.312C55.5955 111.36 54.6728 109.9 53.336 108.748C51.4939 107.604 49.0646 107.775 47.3194 109.029C44.8761 110.704 43.8761 113.805 43.6677 116.626C43.4374 122.5 43.7343 130.134 48.6271 134.157C50.8121 135.91 53.5881 136.387 56.1984 135.417C55.8163 133.627 55.5182 131.817 55.3064 129.998C53.8027 130.913 51.6452 130.247 50.5667 128.94C48.6271 126.595 49.4865 123.429 50.8199 121.016C49.8848 120.415 48.585 121.233 47.6718 121.593C47.1463 121.829 46.7244 121.262 47.074 120.82C48.0444 119.355 49.6406 118.428 51.4183 119.023C51.7365 116.541 48.854 114.614 46.7614 116.212C46.5328 116.389 46.1479 116.162 46.3289 115.875C47.2006 114.502 48.91 114.214 50.3627 114.808C52.5528 115.709 53.3881 118.444 52.7892 120.596C52.7852 120.737 52.7468 120.876 52.6772 120.999C52.0093 123.063 50.495 125.788 52.341 127.67C53.1108 128.36 53.8184 128.127 54.6745 127.809C54.8087 127.759 54.9525 127.74 55.0952 127.753C54.879 124.784 54.9434 121.724 55.6499 118.898C55.7412 118.533 56.2309 118.651 56.2617 118.98C56.4707 121.15 56.5031 123.335 56.6684 125.511C57.5015 136.561 61.5118 147.349 68.2097 156.183C68.7228 155.781 69.279 155.437 69.8681 155.157C70.0765 155.058 70.2407 155.29 70.1045 155.465C69.6988 155.981 69.2376 156.45 68.7291 156.865C69.077 157.313 69.4339 157.754 69.7936 158.191C70.3538 157.778 70.9869 157.479 71.6222 157.197C71.8015 157.124 72.0766 157.094 72.22 156.964C72.2761 156.912 72.3853 156.984 72.3321 157.052C72.1713 157.261 72.1511 157.562 71.9959 157.789C71.6074 158.343 71.025 158.731 70.3639 158.876C70.7501 159.329 71.1436 159.774 71.5444 160.213C72.257 159.508 73.1069 158.924 73.7977 158.205C73.8114 158.192 73.829 158.184 73.8479 158.182C73.8667 158.18 73.8857 158.184 73.9021 158.193C73.9185 158.203 73.9313 158.217 73.9387 158.235C73.946 158.252 73.9475 158.272 73.9428 158.29C73.6403 159.304 73.1349 160.36 72.2817 161.012C72.6464 161.398 73.0173 161.776 73.3927 162.152C73.991 161.441 74.7989 161.002 75.5026 160.404C75.6415 160.287 75.8673 160.437 75.7637 160.607C75.2919 161.401 74.7345 162.249 73.8442 162.599C74.3249 163.067 74.8137 163.527 75.3104 163.979C76.1312 163.263 77.1531 162.443 77.5963 161.434C77.6007 161.422 77.6095 161.412 77.6209 161.406C77.6323 161.4 77.6454 161.398 77.6578 161.402C77.6702 161.405 77.6809 161.413 77.6878 161.424C77.6948 161.434 77.6975 161.447 77.6954 161.46C77.575 161.911 77.6041 162.371 77.4478 162.818C77.1581 163.542 76.6801 164.174 76.0634 164.651C76.2225 164.792 76.3833 164.928 76.5452 165.065C77.524 164.26 78.7213 163.583 79.1756 162.369C79.1781 162.362 79.1831 162.356 79.1896 162.353C79.1961 162.35 79.2035 162.349 79.2106 162.351C79.2176 162.352 79.2236 162.357 79.2276 162.363C79.2315 162.369 79.2329 162.377 79.2317 162.384C78.8652 163.756 78.584 164.852 77.403 165.782C77.9565 166.237 78.5157 166.683 79.0877 167.115C78.8591 166.286 78.7459 165.442 78.8109 164.606C78.8451 164.158 79.4059 163.983 79.6608 164.376C79.7213 164.468 79.7785 164.561 79.8373 164.653C80.1107 163.55 80.8062 162.599 81.7741 162.004C82.0122 161.862 82.2223 162.177 82.0542 162.367C81.085 163.487 80.8217 164.72 80.685 166.1C80.7466 166.213 80.8071 166.318 80.8671 166.427C81.0278 164.568 81.9315 162.818 83.7451 162.172C84.2454 161.97 84.5132 162.746 84.0958 163.007C82.1349 164.239 82.6151 166.74 82.1668 168.652C82.2789 168.821 82.3909 168.992 82.503 169.157C82.5725 166.898 83.2874 164.66 84.8953 163.068C85.2908 162.692 85.8841 163.168 85.6354 163.638C85.0326 164.774 84.4656 165.914 84.1905 167.179C83.9401 168.322 84.223 169.656 83.7546 170.725C84.115 171.133 84.4865 171.528 84.869 171.909C84.1782 168.982 85.2752 165.414 87.1391 163.179C87.3414 162.947 87.6585 163.202 87.612 163.454C86.9492 166.386 85.478 168.764 86.3693 171.901C86.3744 169.368 87.1268 167.039 88.3538 164.859C88.6647 164.29 89.504 164.793 89.2177 165.363C88.4333 166.921 88.0804 168.751 87.9459 170.474C87.8338 171.897 88.1022 173.25 88.2182 174.638C88.7896 175.015 89.3863 175.351 89.9891 175.669C88.4512 172.349 89.281 168.85 90.592 165.682C90.7601 165.286 91.4105 165.574 91.2794 165.972C90.499 168.525 90.1298 171.842 91.117 174.373C91.3304 174.97 92.4089 176.009 92.0167 176.608C92.1478 176.664 92.2778 176.714 92.4089 176.765C91.4632 173.945 91.485 171.048 92.2884 168.235C92.3921 167.87 93.0241 167.932 92.9714 168.328C92.6548 170.756 92.9826 173.247 93.7558 175.561C93.9675 176.203 94.2919 176.824 94.4684 177.476C94.6552 177.534 94.8442 177.59 95.0354 177.645C94.0493 173.357 93.158 168.249 95.9564 164.453C96.1514 164.202 96.5167 164.481 96.4528 164.742C95.2304 169.401 95.7553 173.63 97.1912 178.178C97.3627 178.215 97.5343 178.251 97.7061 178.284C95.8853 173.27 96.2192 166.959 98.7925 162.285C99.0042 161.91 99.5992 162.167 99.4816 162.575C98.2608 166.625 97.8154 170.937 98.7617 175.096C98.9656 176.258 99.5387 177.433 99.5511 178.603C99.8312 178.638 100.111 178.666 100.391 178.691C100.279 176.34 100.037 174.05 100.055 171.704C100.088 169.435 100.503 167.307 100.902 165.093C100.783 164.537 101.622 164.537 101.503 165.093C101.895 167.308 102.316 169.436 102.35 171.704C102.366 174.044 102.122 176.33 102.014 178.672C102.297 178.646 102.574 178.616 102.854 178.576C102.882 177.416 103.441 176.249 103.647 175.096C104.593 170.937 104.148 166.625 102.927 162.575C102.81 162.167 103.404 161.91 103.615 162.285C106.196 167.003 106.509 173.176 104.726 178.24C104.894 178.205 105.062 178.168 105.226 178.131C106.664 173.631 107.169 169.352 105.955 164.741C105.895 164.48 106.256 164.202 106.453 164.452C109.237 168.226 108.366 173.314 107.389 177.582C107.58 177.526 107.771 177.47 107.959 177.409C109.136 174.552 109.873 171.435 109.434 168.328C109.383 167.933 110.015 167.871 110.117 168.236C110.916 171.019 110.938 173.876 110.03 176.675C110.137 176.632 110.244 176.587 110.35 176.542C110.1 175.896 111.061 174.991 111.29 174.374C112.279 171.843 111.91 168.524 111.128 165.973C110.998 165.574 111.645 165.286 111.817 165.683C113.118 168.813 113.911 172.206 112.5 175.519C113.083 175.208 113.649 174.868 114.196 174.498C114.66 171.449 114.588 168.194 113.184 165.365C112.898 164.796 113.737 164.293 114.048 164.861C115.275 167.042 116.026 169.371 116.031 171.904C116.922 168.77 115.453 166.387 114.789 163.457C114.742 163.205 115.06 162.952 115.261 163.182C117.125 165.448 118.097 168.657 117.609 171.63C117.943 171.287 118.268 170.934 118.584 170.57C118.21 169.527 118.448 168.269 118.21 167.181C117.935 165.917 117.369 164.776 116.767 163.64C116.517 163.17 117.111 162.695 117.505 163.07C119.06 164.591 119.734 166.703 119.899 168.859C119.995 168.714 120.091 168.566 120.183 168.417C119.82 166.54 120.186 164.187 118.304 163.007C117.888 162.746 118.156 161.97 118.656 162.172C120.364 162.788 121.282 164.373 121.497 166.133C121.559 166.021 121.622 165.914 121.684 165.802C121.539 164.543 121.245 163.406 120.347 162.367C120.179 162.177 120.39 161.863 120.627 162.004C121.528 162.558 122.198 163.42 122.51 164.43C122.553 164.336 122.627 164.258 122.72 164.211C122.813 164.164 122.919 164.149 123.021 164.169C123.124 164.19 123.216 164.244 123.283 164.323C123.351 164.402 123.39 164.502 123.394 164.606C123.459 165.442 123.346 166.287 123.117 167.115C123.723 166.657 124.318 166.183 124.904 165.7C123.797 164.787 123.525 163.695 123.174 162.384C123.162 162.347 123.217 162.333 123.23 162.369C123.67 163.54 124.799 164.212 125.759 164.981C125.918 164.844 126.079 164.708 126.238 164.569C125.672 164.101 125.232 163.499 124.958 162.818C124.802 162.37 124.832 161.911 124.711 161.46C124.708 161.447 124.709 161.433 124.716 161.422C124.723 161.41 124.734 161.402 124.747 161.398C124.76 161.395 124.773 161.396 124.785 161.403C124.797 161.41 124.805 161.421 124.809 161.434C125.227 162.401 126.209 163.202 126.989 163.894C127.475 163.447 127.953 162.994 128.423 162.533ZM106.177 54.4089C105.852 50.9577 105.191 47.3015 102.225 45.1036C102.215 45.0977 102.208 45.0881 102.205 45.077C102.202 45.0658 102.204 45.0541 102.21 45.0442C102.216 45.0344 102.226 45.0274 102.237 45.0247C102.248 45.0219 102.26 45.0237 102.269 45.0297C107.907 47.5144 109.721 60.1375 106.279 64.7321C106.744 64.7786 107.21 64.8111 107.675 64.8262C107.972 64.5097 108.345 64.2408 108.62 63.8962C109.927 62.1202 110.561 59.9212 111.156 57.8259C111.961 54.8492 112.392 51.109 110.533 48.403C110.505 48.3615 110.569 48.315 110.601 48.3509C113.137 50.8513 113.582 54.6313 112.854 57.9872C112.366 60.3644 111.766 62.5662 110.567 64.7344C111.052 64.6869 111.535 64.6227 112.013 64.5416C112.217 64.0593 112.633 63.9125 113.012 63.6066C113.354 63.3298 113.636 62.9712 113.879 62.6082C115.579 59.9946 116.926 56.958 116.288 53.782C116.271 53.6878 116.394 53.5842 116.469 53.6772C118.725 56.6303 117.206 60.7291 115.565 63.6295C119.85 62.1012 124.133 59.1772 125.66 54.7019C125.986 53.6878 126.071 52.629 126.214 51.5785C126.399 50.2417 128.593 50.3157 128.842 51.5785C129.529 55.4078 127.057 59.0937 124.326 61.551C130.403 65.833 141.205 65.7669 142.613 74.7226C142.765 75.7994 142.825 76.9445 143.378 77.9076C143.833 78.7004 144.499 79.3279 145.151 79.9581C148.316 82.7661 149.198 86.6145 148.344 90.6758C147.93 92.8008 146.876 94.6676 146.287 96.731C145.612 99.0986 146.619 101.373 147.068 103.69C147.32 104.982 147.505 106.286 147.621 107.597C149.459 105.813 152.302 105.449 154.633 106.333C154.873 105.472 155.273 104.623 155.464 103.763C155.897 101.998 155.676 99.8555 154.191 98.6364C153.396 98.0073 152.286 97.726 151.372 97.2918C151.086 97.1557 151.143 96.6397 151.463 96.5904C153.265 96.3103 154.987 96.6968 156.212 97.8095C156.419 96.6996 157.096 95.6951 157.147 94.5376C157.451 92.0282 156.325 89.5446 154.554 87.8028C153.695 86.9423 152.633 85.9764 151.54 85.4335C151.179 85.2542 151.437 84.6643 151.814 84.7864C152.536 85.0167 153.29 85.1539 153.974 85.4862C154.763 85.8727 155.48 86.3826 156.143 86.9546C157.944 77.9401 154.943 68.3816 148.831 61.6048C147.446 59.9711 145.726 58.6702 144.258 57.1261C143.467 59.6994 142.285 62.9645 139.623 64.0682C139.018 64.2923 138.342 63.5982 138.554 62.9987C138.965 61.8378 139.756 61.0098 140.398 59.9733C140.977 59.0462 141.438 58.0499 141.769 57.0079C143.907 50.6933 140.501 44.7064 134.533 42.2228C135.343 46.6286 135.177 51.2429 133.786 55.5008C133.273 57.0219 132.635 58.8965 131.399 59.9828C130.663 60.6288 129.396 60.0198 129.692 58.989C129.937 58.1391 130.397 57.4079 130.778 56.6168C131.873 54.2957 132.471 51.755 132.666 49.2002C133.898 34.6118 124.353 27.1671 110.367 30.7617C115.909 34.865 124.021 44.0492 123.321 51.3297C123.117 52.5623 121.431 52.2945 121.086 51.3297C120.615 50.0182 120.485 48.6069 120.039 47.2746C117.213 39.5801 109.188 31.2149 101.079 29.3028C91.4789 27.022 80.8648 30.5286 74.2179 37.7503C71.3169 40.8967 69.4557 44.5949 67.7565 48.4511C68.9 48.1548 70.0608 47.9139 71.2228 47.7284C72.7915 47.478 74.349 47.5603 75.9133 47.3923C75.9547 47.3878 75.9642 47.4589 75.9239 47.4634C75.0785 47.5839 74.2779 47.8836 73.4588 48.1189C71.0575 48.7587 68.6406 49.3722 66.3222 50.2776C56.4667 53.7052 47.5911 62.8883 48.933 73.9444C50.6496 70.9509 53.1612 68.4718 56.3031 66.9759C56.3709 66.9406 56.4497 66.9327 56.5232 66.9538C56.5966 66.975 56.6591 67.0236 56.6977 67.0896C56.7362 67.1557 56.7479 67.234 56.7302 67.3084C56.7126 67.3827 56.667 67.4475 56.6029 67.4891C50.4686 71.7006 46.6863 79.1788 48.3004 86.6229C50.072 83.1583 52.7113 80.1957 56.2628 78.4992C56.2923 78.4843 56.3265 78.4812 56.3582 78.4905C56.39 78.4997 56.4171 78.5208 56.4339 78.5492C56.4508 78.5777 56.4562 78.6115 56.4491 78.6438C56.442 78.6762 56.4229 78.7046 56.3956 78.7233C50.8922 82.7941 47.3827 89.4875 47.7491 96.3831C48.6343 94.3914 51.8738 88.9653 54.3266 89.3099C54.8056 89.3659 54.9087 89.9771 54.4386 90.1503C53.6442 90.4438 53.0027 91.1587 52.4278 91.7543C49.7386 94.5421 48.0466 98.2532 47.6169 102.099C47.464 103.513 47.5536 104.887 47.6539 106.293C48.9767 105.798 50.4653 105.74 51.8435 106.091C53.5299 106.368 54.9159 107.618 55.9003 109.004C56.7116 103.178 61.2754 99.0191 63.7019 93.8944C64.986 91.1699 64.8577 88.2185 64.8499 85.2789C63.7932 85.2324 62.7769 85.373 61.7589 85.6481C60.8183 85.9002 59.5369 86.2083 58.7487 86.7904C58.4814 86.9865 58.1884 86.5663 58.4058 86.3467C58.8798 85.8598 59.2047 85.3035 59.7504 84.8788C61.22 83.7533 63.1058 83.3006 64.9339 83.3701C65.0321 81.9623 65.2598 80.5666 65.614 79.2007C64.3143 79.3687 63.1024 79.6164 61.8603 80.1806C60.4597 80.817 59.2271 81.7369 57.8825 82.4675C57.4713 82.6916 57.162 82.1924 57.4169 81.8652C59.3986 79.4617 62.9315 77.4392 66.1009 77.4667C68.7778 68.3626 75.4679 59.4097 85.223 57.5217C82.6991 56.7597 79.9964 57.1104 77.4321 57.5026C72.6184 58.2382 67.7285 59.3867 63.7271 62.3045C63.6268 62.3785 63.508 62.2166 63.596 62.1365C68.0456 57.7273 79.486 54.559 85.5396 55.9882C87.9134 56.6393 89.9858 58.0657 92.0879 59.2893C94.553 60.7269 97.138 62.1146 99.8413 63.1421C100.24 61.9723 100.583 60.8182 100.537 59.566C100.189 54.4274 97.333 49.6338 93.5126 46.2785C92.7705 45.6421 91.9941 45.0468 91.187 44.4952C90.3802 43.9349 89.5163 43.3007 88.6165 42.908C88.5935 42.8974 88.6104 42.8587 88.6339 42.8677C89.5936 43.2559 90.5455 43.526 91.4772 43.9977C97.9487 47.2953 104.448 56.4734 102.098 63.9035C102.755 64.0951 103.418 64.26 104.087 64.3982C106.625 61.7572 106.521 57.804 106.177 54.4089ZM160.318 113.395C161.815 119.72 160.984 130.667 156.045 135.344C153.306 137.975 149.056 139.508 145.418 137.895C141.893 151.389 133.555 163.722 121.844 171.41C121.494 171.642 121.031 171.354 120.844 171.608C116.234 177.803 107.641 180.302 103.938 181.277C102.499 181.657 100.129 181.697 98.4014 181.256C91.9708 179.611 85.2948 177.104 81.3567 171.608C81.0536 171.687 80.7074 171.643 80.3567 171.411C68.6473 163.722 60.3079 151.39 56.7827 137.895C53.145 139.509 48.8949 137.975 46.1563 135.345C43.4626 132.755 42.2435 129.02 41.7303 125.406C40.849 119.157 40.3935 110.995 46.2768 106.986C45.6896 104.563 46 101.899 46.6555 99.4415C46.028 98.6572 46.0392 97.6056 46 96.6089C45.8931 93.9575 46.339 91.3129 47.3093 88.8432C46.6931 88.0588 46.6415 86.7753 46.525 85.8234C46.1171 82.5656 46.5635 79.2578 47.8203 76.2246C46.9653 74.7517 46.7648 73.2653 46.8118 71.579C46.9138 60.3672 56.2959 51.374 66.72 48.7408C69.7829 30.4491 93.9569 19.5936 109.459 30.132C119.863 25.762 132.174 29.435 134.387 41.499C141.548 41.7231 146.029 49.9386 144.416 56.4678C146.811 57.1961 148.935 59.2405 150.653 60.9958C155.948 66.363 158.867 73.8491 158.935 81.3616C158.955 82.6637 158.888 83.9658 158.737 85.2593C158.614 86.3237 158.572 87.9434 157.819 88.8169C158.986 90.5396 159.586 92.6927 159.372 94.7746C159.254 95.8626 158.966 97.456 158.105 98.321C157.891 98.6715 157.617 98.9817 157.296 99.2376C158.626 101.88 157.886 105.018 156.775 107.609C158.528 109.071 159.74 111.257 160.318 113.395Z" fill="black"/>
<path d="M88.5191 103.974C88.7757 104.416 88.2732 104.87 87.8468 104.646C87.1342 104.277 86.635 103.598 85.9134 103.22C82.6695 101.681 78.3656 103.733 75.9918 106.06C75.0489 107.004 74.5222 108.232 73.6241 109.186C73.6028 109.207 73.5758 109.221 73.5466 109.227C73.5174 109.232 73.4871 109.229 73.4596 109.218C73.432 109.207 73.4084 109.188 73.3916 109.163C73.3747 109.139 73.3654 109.11 73.3647 109.08C73.4801 106.326 77.021 103.575 79.3718 102.543C82.2622 101.147 86.5638 100.992 88.5191 103.974Z" fill="black"/>
<path d="M87.1367 133.802C87.4488 133.731 87.6589 134.172 87.3608 134.33C86.0364 135.068 84.7315 135.955 83.625 136.993C83.304 137.294 83.1012 137.52 82.6407 137.508C82.5261 137.505 82.4169 137.458 82.336 137.377C82.255 137.296 82.2086 137.187 82.2065 137.072C82.1505 136.167 83.4755 135.445 84.1382 135.003C85.1024 134.361 86.0313 134.054 87.1367 133.802Z" fill="black"/>
<path d="M87.3896 125.251C84.1166 127.492 80.7455 129.612 77.5885 132.015C76.0539 133.182 74.1345 134.411 73.1653 136.123C72.6834 136.975 72.4638 137.95 72.3646 138.916C72.2801 139.731 72.4207 140.662 72.1887 141.445C72.1672 141.517 72.1228 141.58 72.0622 141.626C72.0017 141.671 71.9281 141.695 71.8526 141.695C71.777 141.695 71.7035 141.671 71.6429 141.626C71.5823 141.58 71.538 141.517 71.5164 141.445C71.2598 140.576 71.4419 139.424 71.5517 138.535C71.7977 135.348 74.0045 133.615 76.3968 131.864C79.806 129.231 83.344 126.831 87.3151 125.126C87.3317 125.116 87.3516 125.113 87.3704 125.118C87.3891 125.123 87.4052 125.135 87.4151 125.151C87.425 125.168 87.4278 125.188 87.423 125.207C87.4183 125.225 87.4062 125.242 87.3896 125.251Z" fill="black"/>
<path d="M86.9002 91.8355C87.5092 93.03 87.3282 94.7595 86.9377 96.0033C86.4861 97.4375 85.4614 98.2768 83.984 98.5071C82.213 98.7821 80.465 99.0001 78.745 99.5334C77.1566 100.021 75.6596 100.767 74.3145 101.743C73.036 102.672 72.0595 103.919 71.0488 105.115C70.7922 105.418 70.3625 105.086 70.4325 104.755C70.4633 104.604 70.5037 104.455 70.5446 104.307C70.4875 104.251 70.4435 104.184 70.4158 104.109C70.388 104.035 70.3773 103.955 70.3843 103.876C70.744 97.0745 76.5348 91.2249 83.2389 90.4103C84.616 90.2512 86.2082 90.4752 86.9002 91.8355ZM85.3813 94.7209C85.9746 91.7846 84.1851 92.044 82.0242 92.5291C77.2861 93.5522 73.8013 97.0252 72.3021 101.437C75.2552 98.4746 79.2891 97.3524 83.2871 96.8431C83.8249 96.7658 84.4294 96.7058 84.8171 96.2828C85.1897 95.8767 85.3129 95.2509 85.3813 94.7209Z" fill="black"/>
<path d="M84.7823 132.734C85.1532 132.76 85.3913 133.315 84.9908 133.503C84.3184 133.819 83.617 134.069 82.9912 134.475C82.399 134.86 81.9446 135.494 81.274 135.732C80.8941 135.867 80.619 135.468 80.6779 135.135C80.9513 133.794 83.5016 132.596 84.7823 132.734Z" fill="black"/>
<path d="M77.832 134.702C78.7934 133.391 80.4529 132.691 82.0015 132.349C82.2166 132.3 82.2877 132.593 82.0911 132.67C80.64 133.234 79.6259 134.213 78.4348 135.169C78.1239 135.415 77.5558 135.08 77.832 134.702Z" fill="black"/>
<path d="M79.4101 132.45C78.6067 133.088 77.7736 133.702 77.001 134.377C76.2127 135.02 75.8524 135.566 75.6468 136.562C75.5589 136.831 75.1555 136.925 75.012 136.646C73.9638 134.61 77.9635 132.882 79.172 132.144C79.3591 132.03 79.5849 132.311 79.4101 132.45Z" fill="black"/>
<path d="M71.2524 114.118C71.546 114.179 71.5538 114.663 71.2524 114.719C70.6115 114.838 69.9683 114.977 69.3515 115.192C68.7346 115.406 68.1895 115.779 67.5726 116C67.2561 116.112 66.9003 115.683 67.1138 115.403C68.0164 114.221 69.8568 113.828 71.2524 114.118Z" fill="black"/>
<path d="M68.4525 117.066C69.0621 116.4 69.8071 115.873 70.6375 115.519C70.772 115.46 70.8913 115.655 70.7552 115.719C69.9581 116.088 69.2496 116.625 68.6777 117.292C68.5438 117.447 68.3136 117.218 68.4525 117.066Z" fill="black"/>
<path d="M84.218 112.831C84.9111 112.831 85.473 112.301 85.473 111.646C85.473 110.992 84.9111 110.461 84.218 110.461C83.5249 110.461 82.9631 110.992 82.9631 111.646C82.9631 112.301 83.5249 112.831 84.218 112.831Z" fill="white"/>
<path d="M119.621 112.831C120.314 112.831 120.876 112.301 120.876 111.646C120.876 110.992 120.314 110.461 119.621 110.461C118.928 110.461 118.366 110.992 118.366 111.646C118.366 112.301 118.928 112.831 119.621 112.831Z" fill="white"/>
</g>
<defs>
<linearGradient id="paint0_linear_179_2861" x1="9.49999" y1="37" x2="175.5" y2="230.5" gradientUnits="userSpaceOnUse">
<stop stop-color="#DD3DCD" stop-opacity="0.11"/>
<stop offset="1" stop-color="#DD3DCD" stop-opacity="0.55"/>
</linearGradient>
</defs>
</svg>
