<svg width="24" height="24" viewBox="0 0 24 24" fill="none" xmlns="http://www.w3.org/2000/svg">
<path opacity="0.1" fill-rule="evenodd" clip-rule="evenodd" d="M2.58337 2.58279C4.5698 0.596612 7.69461 0 12.0006 0C16.3065 0 19.4311 0.596604 21.4173 2.58285C23.4034 4.56908 24 7.69379 24 12C24 16.3132 23.3775 19.4353 21.3795 21.4196C19.3832 23.4021 16.2629 24 12.0006 24C7.73821 24 4.61772 23.4021 2.62111 21.4196C0.622768 19.4354 0 16.3133 0 12C0 7.69371 0.596908 4.569 2.58337 2.58279Z" fill="#C2E978"/>
<path d="M10.4238 17.075H13.1988C14.9988 17.075 15.7488 16.325 15.7488 14.525V13.325C15.7488 11.525 14.9988 10.775 13.1988 10.775H11.7288V10.7L15.4038 7.925C15.5538 7.805 15.5988 7.715 15.5988 7.535V6.725C15.5988 6.575 15.5238 6.5 15.3738 6.5H8.39883C8.24883 6.5 8.17383 6.575 8.17383 6.725V7.55C8.17383 7.7 8.24883 7.775 8.39883 7.775H13.6188V7.835L9.94383 10.625C9.79383 10.745 9.74883 10.835 9.74883 11.015V11.825C9.74883 11.975 9.82383 12.05 9.97383 12.05H13.1238C13.9488 12.05 14.3238 12.425 14.3238 13.25V14.6C14.3238 15.425 13.9488 15.8 13.1238 15.8H10.4988C9.67383 15.8 9.29883 15.425 9.29883 14.6V14.075C9.29883 13.925 9.22383 13.85 9.07383 13.85H8.09883C7.94883 13.85 7.87383 13.925 7.87383 14.075V14.525C7.87383 16.325 8.62383 17.075 10.4238 17.075Z" fill="#C2E978"/>
</svg>
