<svg width="24" height="24" viewBox="0 0 24 24" fill="none" xmlns="http://www.w3.org/2000/svg">
<path opacity="0.1" fill-rule="evenodd" clip-rule="evenodd" d="M2.58337 2.58279C4.5698 0.596612 7.69461 0 12.0006 0C16.3065 0 19.4311 0.596604 21.4173 2.58285C23.4034 4.56908 24 7.69379 24 12C24 16.3132 23.3775 19.4353 21.3795 21.4196C19.3832 23.4021 16.2629 24 12.0006 24C7.73821 24 4.61772 23.4021 2.62111 21.4196C0.622768 19.4354 0 16.3133 0 12C0 7.69371 0.596908 4.569 2.58337 2.58279Z" fill="#C2E978"/>
<path d="M15.2215 15.725H12.9715V6.725C12.9715 6.575 12.8965 6.5 12.7465 6.5H9.59648C9.44648 6.5 9.37148 6.575 9.37148 6.725V7.55C9.37148 7.7 9.44648 7.775 9.59648 7.775H11.5465V15.725H9.22148C9.07148 15.725 8.99648 15.8 8.99648 15.95V16.775C8.99648 16.925 9.07148 17 9.22148 17H15.2215C15.3715 17 15.4465 16.925 15.4465 16.775V15.95C15.4465 15.8 15.3715 15.725 15.2215 15.725Z" fill="#C2E978"/>
</svg>
