<svg width="24" height="24" viewBox="0 0 24 24" fill="none" xmlns="http://www.w3.org/2000/svg">
<path opacity="0.1" fill-rule="evenodd" clip-rule="evenodd" d="M2.58337 2.58279C4.5698 0.596612 7.69461 0 12.0006 0C16.3065 0 19.4311 0.596604 21.4173 2.58285C23.4034 4.56908 24 7.69379 24 12C24 16.3132 23.3775 19.4353 21.3795 21.4196C19.3832 23.4021 16.2629 24 12.0006 24C7.73821 24 4.61772 23.4021 2.62111 21.4196C0.622768 19.4354 0 16.3133 0 12C0 7.69371 0.596908 4.569 2.58337 2.58279Z" fill="#C2E978"/>
<path d="M8.36572 17H15.8657C16.0157 17 16.0907 16.925 16.0907 16.775V15.95C16.0907 15.8 16.0157 15.725 15.8657 15.725H9.56572V13.85C9.56572 13.025 9.94072 12.65 10.7657 12.65H13.3907C15.1907 12.65 15.9407 11.9 15.9407 10.1V8.975C15.9407 7.175 15.1907 6.425 13.3907 6.425H11.0657C9.26572 6.425 8.51572 7.175 8.51572 8.975V9.425C8.51572 9.575 8.59072 9.65 8.74072 9.65H9.71572C9.86572 9.65 9.94072 9.575 9.94072 9.425V8.9C9.94072 8.075 10.3157 7.7 11.1407 7.7H13.3157C14.1407 7.7 14.5157 8.075 14.5157 8.9V10.175C14.5157 11 14.1407 11.375 13.3157 11.375H10.6907C8.89072 11.375 8.14072 12.125 8.14072 13.925V16.775C8.14072 16.925 8.21572 17 8.36572 17Z" fill="#C2E978"/>
</svg>
