<svg width="24" height="93" viewBox="0 0 24 93" fill="none" xmlns="http://www.w3.org/2000/svg">
<path fill-rule="evenodd" clip-rule="evenodd" d="M23.9257 40.7744C23.8882 40.5649 23.8232 40.338 23.7812 40.27C23.7393 40.202 23.7542 40.116 23.8144 40.0787C23.9542 39.992 23.9576 39.5926 23.8184 39.5926C23.7545 39.5926 23.7614 39.4865 23.8361 39.3222C23.9324 39.1107 23.926 38.9898 23.8068 38.7658C23.6925 38.5507 23.6868 38.4689 23.7836 38.4363C23.8819 38.4032 23.8834 38.3287 23.7897 38.1229C23.7059 37.9385 23.7023 37.8298 23.7784 37.7797C23.8398 37.7396 23.8971 37.503 23.9058 37.254C23.9183 36.8982 23.8709 36.7657 23.6836 36.6344C23.5526 36.5426 23.496 36.4673 23.5577 36.4673C23.6814 36.4673 23.7498 35.2205 23.6363 35.0365C23.5978 34.9741 23.5777 34.6106 23.5915 34.2287C23.6128 33.6392 23.5805 33.4958 23.3778 33.2796C23.1923 33.0819 23.1665 32.9918 23.2623 32.8763C23.4398 32.6621 23.3845 31.8052 23.1835 31.6563C23.0485 31.5564 23.0427 31.5028 23.1522 31.3704C23.2486 31.2542 23.2526 31.196 23.1662 31.1673C23.0896 31.1416 23.0445 30.7922 23.0431 30.2137C23.0419 29.7116 22.9649 29.034 22.8718 28.708C22.7788 28.382 22.7151 27.9552 22.7302 27.7596C22.7453 27.564 22.7076 27.3435 22.6465 27.2697C22.5852 27.1959 22.5335 27.0407 22.5314 26.9248C22.5236 26.4845 22.3823 25.8446 22.2472 25.637C22.1699 25.5182 22.1095 25.2222 22.1132 24.9793C22.1167 24.7363 22.0705 24.4453 22.0103 24.3327C21.9501 24.22 21.8664 23.8975 21.8242 23.6159C21.782 23.3343 21.7047 23.104 21.6522 23.104C21.5998 23.104 21.5569 23.0178 21.5569 22.9125C21.5569 22.8071 21.4842 22.617 21.3955 22.4902C21.3067 22.3632 21.2634 22.183 21.2992 22.0897C21.3349 21.9964 21.264 21.7275 21.1416 21.4922C21.0025 21.225 20.9599 21.0391 21.028 20.9969C21.0942 20.9559 21.0989 20.8804 21.0396 20.8043C20.986 20.7355 20.7898 20.2743 20.6035 19.7795C20.4172 19.2846 20.1709 18.7602 20.0562 18.614C19.9414 18.468 19.8743 18.2788 19.9068 18.1936C19.9474 18.0877 19.8905 18.0389 19.7263 18.0389C19.5469 18.0389 19.5144 18.0049 19.5975 17.9042C19.6749 17.8104 19.6631 17.6386 19.5585 17.3384C19.476 17.1013 19.4077 16.8951 19.4068 16.8804C19.4059 16.8656 19.2962 16.8527 19.1631 16.8518C18.9883 16.8506 18.9612 16.8246 19.0654 16.7585C19.1859 16.682 19.186 16.6286 19.0665 16.4368C18.9877 16.3103 18.8926 16.2068 18.8551 16.2068C18.8178 16.2068 18.7552 16.0008 18.716 15.7488C18.6125 15.0823 18.3228 14.3747 18.1534 14.3747C18.0727 14.3747 18.0066 14.3045 18.0066 14.2187C18.0066 14.1328 17.8864 13.9327 17.7397 13.774C17.5928 13.6153 17.4981 13.4444 17.529 13.3942C17.56 13.3439 17.4866 13.2179 17.3657 13.1143C17.2448 13.0107 17.1459 12.8154 17.1459 12.6804C17.1459 12.5322 17.0809 12.4349 16.9819 12.4349C16.8917 12.4349 16.7719 12.3137 16.7156 12.1655C16.6593 12.0173 16.5274 11.8953 16.4224 11.8944C16.2811 11.8931 16.2677 11.8698 16.371 11.8041C16.4822 11.7334 16.4713 11.6466 16.3172 11.3754C16.2108 11.1883 16.0633 11.035 15.9894 11.0346C15.9154 11.0342 15.8549 10.9369 15.8549 10.8184C15.8549 10.6998 15.8162 10.6028 15.7688 10.6028C15.7214 10.6028 15.5768 10.3846 15.4474 10.1179C15.3181 9.85115 15.1632 9.63291 15.1033 9.63291C15.0433 9.63291 14.9943 9.56017 14.9943 9.47126C14.9943 9.38149 14.8986 9.30961 14.7791 9.30961C14.6596 9.30961 14.5639 9.23773 14.5639 9.14795C14.5639 9.05904 14.5155 8.9863 14.4564 8.9863C14.3972 8.9863 14.3487 8.92574 14.3486 8.85159C14.3481 8.65039 13.7048 7.93006 13.6988 8.12415C13.6961 8.21306 13.6328 8.11607 13.5583 7.90861C13.4838 7.70116 13.2922 7.391 13.1327 7.21933C12.9731 7.04765 12.8426 6.86584 12.8426 6.81519C12.8426 6.76454 12.7713 6.72316 12.684 6.72316C12.5968 6.72316 12.4556 6.58802 12.3703 6.4227C12.285 6.25749 11.9932 5.93278 11.722 5.70119C11.4508 5.46959 11.2289 5.22765 11.2289 5.16353C11.2289 5.01675 10.6037 4.46023 10.4378 4.45937C10.3699 4.45894 10.233 4.31517 10.1333 4.13994C10.0338 3.9646 9.82803 3.78991 9.67612 3.75165C9.52421 3.7135 9.39995 3.62955 9.39995 3.5651C9.39995 3.37586 8.83805 2.84348 8.63826 2.84348C8.53735 2.84348 8.42686 2.77074 8.39276 2.68183C8.35876 2.59292 8.25032 2.52018 8.15188 2.52018C8.05333 2.52018 7.894 2.43536 7.79772 2.33158C7.55856 2.07401 7.1846 1.87356 6.94351 1.87356C6.83334 1.87356 6.63517 1.77959 6.50295 1.66471C6.37073 1.54993 6.19871 1.48053 6.12071 1.51049C6.03443 1.54368 5.98505 1.49282 5.99495 1.38063C6.01969 1.09763 5.79344 1.08319 5.64896 1.35864C5.57817 1.49368 5.5418 1.52644 5.56795 1.43139C5.60904 1.28256 5.30684 0.903644 5.14708 0.903644C5.11696 0.903644 4.89082 0.776262 4.64467 0.620536C4.27351 0.385815 4.16194 0.359196 3.99282 0.465025C3.84651 0.556629 3.74936 0.55997 3.64942 0.47688C3.5002 0.35273 3.16013 0.432695 3.16013 0.591869C3.16013 0.644784 3.11623 0.688107 3.06266 0.688107C3.00897 0.688107 2.99047 0.591115 3.02134 0.472569C3.0591 0.328051 3.02468 0.257032 2.91688 0.257032C2.82845 0.257032 2.69644 0.184934 2.6235 0.0968871C2.50742 -0.0432123 2.45707 -0.0365306 2.21931 0.150772C1.92303 0.384306 1.54638 0.436359 1.54638 0.243884C1.54638 0.156699 1.50722 0.155405 1.40631 0.239357C1.32928 0.303372 1.16156 0.328374 1.03364 0.294858C0.72423 0.213816 0.432571 0.506408 0.526707 0.803311C0.569309 0.937915 0.657957 1.00376 0.749187 0.968736C0.833641 0.936298 0.900881 0.974987 0.900881 1.05614C0.900881 1.21369 0.607286 1.32761 0.38986 1.25432C0.315844 1.22943 0.255381 1.1403 0.255381 1.05635C0.255381 0.862045 0.0809898 0.857195 0.00740242 1.04945C-0.0233669 1.12963 0.0446262 1.27512 0.158449 1.37276C0.384266 1.56642 0.685715 1.61018 0.685715 1.44917C0.685715 1.32707 1.14445 1.34183 1.23148 1.46674C1.26548 1.51545 1.40824 1.57752 1.54885 1.60457C1.68947 1.63173 1.84567 1.72764 1.89592 1.81763C1.94627 1.90762 2.12109 1.98133 2.2844 1.98133C2.47299 1.98133 2.70903 2.10634 2.93097 2.32371C3.18046 2.56803 3.3867 2.66847 3.65038 2.67396C3.92773 2.67989 4.02025 2.72892 4.02047 2.87042C4.02079 3.04232 4.12612 3.10234 4.30427 3.03208C4.34193 3.01721 4.41078 3.10827 4.45726 3.23425C4.52213 3.4097 4.6069 3.45097 4.81927 3.41035C5.02487 3.3709 5.09662 3.40226 5.09662 3.53137C5.09662 3.62728 5.14504 3.70563 5.20421 3.70563C5.26338 3.70563 5.31179 3.77838 5.31179 3.86729C5.31179 3.95619 5.36365 4.02894 5.42701 4.02894C5.49049 4.02894 5.61808 4.10481 5.7106 4.19749C5.82959 4.31668 5.91243 4.33252 5.99344 4.25137C6.16632 4.07819 6.29338 4.11364 6.25788 4.3253C6.23948 4.43512 6.29359 4.5139 6.38762 4.5139C6.47638 4.5139 6.57751 4.61089 6.61236 4.72944C6.64711 4.84798 6.73189 4.9329 6.80063 4.91803C6.86927 4.90327 6.92554 4.95543 6.92554 5.03399C6.92554 5.11255 7.04216 5.2866 7.18471 5.42077C7.42655 5.64827 7.44742 5.6514 7.49498 5.46647C7.53048 5.32885 7.54984 5.35611 7.55856 5.55559C7.56727 5.75679 7.70756 5.95056 8.02633 6.2022C8.70991 6.74159 8.87279 6.92781 8.83901 7.13117C8.81879 7.25273 8.89098 7.32763 9.05031 7.35037C9.1963 7.37106 9.29237 7.45976 9.29237 7.57388C9.29237 7.68262 9.46364 7.85322 9.69581 7.97575C9.91764 8.09279 10.1058 8.23472 10.1138 8.29108C10.1651 8.65491 10.3273 8.91054 10.5712 9.01195C10.7258 9.07629 10.8887 9.12101 10.933 9.11142C10.9773 9.10194 11.0211 9.15464 11.0301 9.22878C11.0391 9.30282 11.0577 9.41199 11.0715 9.47126C11.0852 9.53053 11.102 9.66956 11.1089 9.78023C11.1178 9.92615 11.1803 9.96592 11.3364 9.92497C11.5076 9.88014 11.5516 9.92173 11.5516 10.128C11.5516 10.2706 11.6066 10.3873 11.6737 10.3873C11.8319 10.3873 12.2614 10.8531 12.4623 11.2422C12.5488 11.4096 12.6939 11.5752 12.7848 11.6101C12.8757 11.6452 12.9502 11.7694 12.9502 11.8864C12.9502 12.0032 12.9874 12.1219 13.0328 12.1501C13.0783 12.1782 13.1024 11.9992 13.0864 11.7523C13.0605 11.3513 13.0707 11.3294 13.1824 11.5476C13.2685 11.716 13.3689 11.7723 13.5053 11.7289C13.7475 11.652 13.7593 11.7632 13.5354 12.0109C13.382 12.1808 13.3916 12.2207 13.648 12.4775C13.8021 12.6319 13.8776 12.7582 13.8157 12.7582C13.6687 12.7582 13.6696 13.0523 13.8167 13.1015C13.8791 13.1223 13.9445 13.2354 13.9619 13.3529C13.9818 13.4864 14.0768 13.5665 14.2154 13.5665C14.5234 13.5665 14.6194 13.693 14.4585 13.8872C14.368 13.9965 14.3622 14.0514 14.4412 14.0514C14.5064 14.0514 14.5902 14.1727 14.6273 14.3209C14.6644 14.469 14.7622 14.5903 14.8445 14.5903C14.9399 14.5903 14.9943 14.7103 14.9943 14.9211C14.9943 15.2422 15.437 16.0117 15.7909 16.3061C15.884 16.3834 15.9355 16.4867 15.9055 16.5354C15.8754 16.5841 15.9478 16.7968 16.0662 17.0081C16.1847 17.2194 16.257 17.3923 16.2269 17.3923C16.1154 17.3923 16.5395 18.0977 16.7335 18.2348C16.844 18.313 16.9052 18.4243 16.8696 18.482C16.8338 18.5399 16.8518 18.6456 16.9094 18.7172C16.9669 18.7886 17.048 19.0654 17.0896 19.3321C17.1312 19.5988 17.2819 19.9979 17.4245 20.2189C17.5671 20.4399 17.6839 20.7203 17.6839 20.8421C17.6839 20.9637 17.7639 21.2436 17.8618 21.464C17.9597 21.6844 18.0302 21.9077 18.0183 21.9603C18.0065 22.0128 18.0984 22.1642 18.2224 22.2965C18.3857 22.4707 18.4289 22.6138 18.3785 22.8147C18.334 22.9925 18.3707 23.1805 18.4805 23.3377C18.5749 23.4726 18.6521 23.792 18.6521 24.0474C18.6521 24.3495 18.7056 24.5323 18.8052 24.5706C18.8893 24.603 18.9856 24.7009 19.0191 24.7883C19.053 24.8767 19.0333 24.9184 18.9749 24.8822C18.9153 24.8453 18.8975 24.8895 18.9338 24.9844C18.969 25.0764 19.0774 25.1555 19.1746 25.1601C19.2719 25.1648 19.3017 25.1894 19.241 25.2149C19.1101 25.2698 19.1707 26.1215 19.3056 26.1215C19.3567 26.1215 19.3691 26.1979 19.3333 26.2915C19.2786 26.4345 19.3729 26.8305 19.7037 27.8458C19.7761 28.0681 19.8207 28.4267 19.8762 29.2343C19.9021 29.6128 19.9702 29.9523 20.0274 29.9887C20.1263 30.0518 20.1552 30.323 20.1948 31.5639C20.2043 31.8602 20.2571 32.1353 20.3122 32.175C20.3673 32.2148 20.4252 32.4573 20.4408 32.7139C20.4565 32.9705 20.4719 33.2093 20.4751 33.2444C20.4783 33.2796 20.598 33.4449 20.7409 33.6115C20.9586 33.8652 20.9773 33.938 20.8562 34.0594C20.7767 34.139 20.6625 34.2042 20.6026 34.2042C20.4489 34.2042 20.5839 35.7138 20.7606 35.9721C20.8629 36.1215 20.8706 36.2345 20.7888 36.3876C20.7243 36.5083 20.7093 36.765 20.7536 36.9906C20.796 37.2066 20.8459 38.5715 20.8644 40.0237C20.8831 41.4759 20.9017 42.7736 20.9059 42.9076C20.9102 43.0417 21.0221 43.2599 21.1545 43.3926L21.3955 43.634L21.1408 43.6701C20.9135 43.7023 20.8928 43.7471 20.9479 44.0876C20.9819 44.2973 21.0919 44.5599 21.1924 44.6711C21.3652 44.8625 21.3634 44.8733 21.1573 44.8733C20.9802 44.8733 20.9364 44.949 20.9231 45.2774C20.8846 46.2263 20.9192 46.7468 21.0298 46.8802C21.1175 46.9859 21.1052 47.0654 20.9823 47.1886C20.7768 47.3944 20.7487 49.4036 20.9495 49.5327C21.0284 49.5833 21.0051 49.6124 20.8845 49.6135C20.6826 49.6152 20.6433 49.9253 20.7953 50.3155C20.8496 50.4551 20.8283 50.569 20.7349 50.6388C20.6556 50.6982 20.5632 51.0377 20.5295 51.3933C20.4959 51.749 20.451 52.185 20.4298 52.3624C20.4086 52.5398 20.4393 52.7146 20.4979 52.7509C20.5642 52.7919 20.5506 52.8737 20.4621 52.9673C20.2953 53.1433 20.2185 53.9259 20.3681 53.9259C20.4241 53.9259 20.3956 54.1042 20.3047 54.3224C20.2138 54.5404 20.1564 54.8982 20.1773 55.1175C20.2047 55.4058 20.1775 55.5017 20.0792 55.4638C19.9583 55.4174 19.8862 55.6353 19.9339 55.9032C19.9428 55.9535 19.8697 56.293 19.7715 56.6576C19.6733 57.0223 19.5802 57.5631 19.5647 57.8594C19.5492 58.1558 19.5047 58.4953 19.4655 58.6138C19.4093 58.7846 19.4748 58.8726 19.7816 59.0377C20.094 59.2059 20.1363 59.2642 20.0012 59.3399C19.9091 59.3915 19.7858 59.404 19.7271 59.3677C19.6683 59.3313 19.6204 59.3589 19.6204 59.4289C19.6204 59.5249 19.5838 59.5259 19.4721 59.433C19.3549 59.3355 19.3102 59.361 19.2584 59.5545C19.1568 59.9346 19.1747 59.9803 19.3981 59.9093C19.574 59.8534 19.6048 59.8941 19.5969 60.1714C19.5893 60.4415 19.5428 60.4998 19.335 60.4998C18.9626 60.4998 18.6335 60.873 18.7159 61.2019C18.7533 61.3514 18.7096 61.6538 18.6167 61.886C18.493 62.1958 18.4816 62.3335 18.5722 62.4242C18.6628 62.5149 18.6334 62.6027 18.4574 62.7669C18.2775 62.9348 18.2319 63.0767 18.267 63.3595C18.2935 63.5745 18.2598 63.7657 18.1867 63.8129C18.1172 63.8577 17.9994 64.0642 17.9247 64.2717C17.8104 64.5898 17.814 64.6672 17.948 64.7658C18.0688 64.8548 18.0768 64.9127 17.9813 65.0083C17.9124 65.0774 17.7984 65.1338 17.728 65.1338C17.5444 65.1338 17.1523 66.0242 17.0734 66.6202C17.0365 66.8992 16.9409 67.2233 16.861 67.3402C16.781 67.457 16.7156 67.6236 16.7156 67.7103C16.7156 67.7969 16.6072 68.0892 16.4746 68.3598C16.3215 68.6722 16.2332 69.0523 16.2326 69.4008C16.2317 69.8211 16.1936 69.9474 16.0701 69.9397C15.9707 69.9334 15.8956 70.0434 15.8747 70.2259C15.856 70.389 15.8007 70.5223 15.7519 70.5223C15.6304 70.5223 15.317 71.3299 15.317 71.6428C15.317 71.7825 15.2444 71.9572 15.1557 72.031C14.9796 72.1773 14.9339 72.5699 15.0929 72.5699C15.1472 72.5699 15.2159 72.5093 15.2458 72.4352C15.2792 72.3523 15.3034 72.3707 15.3085 72.4829C15.3132 72.5833 15.1708 72.752 14.9921 72.8577C14.8134 72.9634 14.6909 73.1116 14.7198 73.1871C14.7487 73.2625 14.7303 73.3243 14.6788 73.3243C14.6273 73.3243 14.5903 73.5028 14.5964 73.7211C14.6028 73.9437 14.5508 74.1369 14.4782 74.1612C14.4071 74.1849 14.3488 74.2671 14.3488 74.3439C14.3488 74.4206 14.2762 74.5437 14.1874 74.6175C14.0986 74.6913 14.026 74.8427 14.026 74.9539C14.026 75.0653 13.9245 75.2581 13.8003 75.3824C13.6549 75.5281 13.5919 75.6992 13.6233 75.8636C13.6501 76.0039 13.6185 76.141 13.5532 76.1682C13.4736 76.2012 13.4827 76.2516 13.581 76.3205C13.7048 76.4074 13.7048 76.4339 13.581 76.4904C13.4683 76.5418 13.4652 76.5718 13.5678 76.6198C13.6705 76.6679 13.6652 76.7185 13.5456 76.8385C13.4598 76.9244 13.4164 77.0781 13.4491 77.1801C13.4946 77.3223 13.484 77.3314 13.4041 77.2193C13.3163 77.0963 13.285 77.0963 13.2057 77.2193C13.154 77.2997 13.1066 77.4383 13.1006 77.5272C13.0946 77.6161 13.0824 77.7738 13.0737 77.8775C13.065 77.9812 12.9852 78.0661 12.8964 78.0661C12.7841 78.0661 12.735 78.1792 12.735 78.4379C12.735 78.663 12.6687 78.847 12.5669 78.904C12.4745 78.9558 12.3875 79.0746 12.3739 79.1679C12.3602 79.2612 12.2866 79.4129 12.2105 79.5049C12.1342 79.5969 12.101 79.7647 12.1369 79.8778C12.1753 79.9991 12.1348 80.139 12.0382 80.2194C11.9481 80.2943 11.874 80.4345 11.8736 80.531C11.8733 80.6275 11.7768 80.8519 11.6592 81.0297C11.5416 81.2075 11.4451 81.438 11.4448 81.5416C11.4444 81.6453 11.4059 81.7302 11.3595 81.7302C11.2751 81.7302 11.2314 81.9823 11.2302 82.4758C11.2297 82.6191 11.1519 82.8221 11.0573 82.927C10.9625 83.0318 10.9114 83.1603 10.9436 83.2126C10.9758 83.2647 10.9079 83.3755 10.7927 83.4587C10.6776 83.5418 10.5834 83.666 10.5834 83.7345C10.5834 83.8032 10.5107 83.9195 10.422 83.9934C10.2139 84.1663 10.2139 84.4244 10.422 84.4244C10.5107 84.4244 10.5834 84.3759 10.5834 84.3167C10.5834 84.2574 10.6273 84.2089 10.6808 84.2089C10.7344 84.2089 10.7229 84.3265 10.6552 84.4702C10.564 84.6638 10.4969 84.7023 10.3964 84.6186C10.3217 84.5566 10.2557 84.5482 10.2495 84.5999C10.2434 84.6515 10.223 84.8783 10.2041 85.1037C10.1671 85.5481 9.99769 85.8254 9.76337 85.8254C9.68182 85.8254 9.61512 85.8756 9.61512 85.937C9.61512 85.9984 9.53217 86.1754 9.43083 86.3303C9.32938 86.4854 9.23578 86.6849 9.22276 86.7738C9.20974 86.8627 9.14035 86.9718 9.0687 87.0162C8.99695 87.0606 8.96822 87.175 9.00469 87.2704C9.04611 87.3784 8.99114 87.494 8.85902 87.5767C8.7423 87.6496 8.64687 87.7894 8.64687 87.8873C8.64687 87.9872 8.52896 88.0948 8.37791 88.1329C8.22999 88.1701 8.10895 88.2758 8.10895 88.3677C8.10895 88.5164 8.09099 88.5171 7.94758 88.3734C7.85882 88.2845 7.78621 88.1598 7.78621 88.0962C7.78621 88.0327 7.7365 87.9808 7.67582 87.9808C7.6131 87.9808 7.63774 87.841 7.73295 87.6565C7.85323 87.4235 7.87023 87.2759 7.7933 87.1318C7.73435 87.0217 7.71939 86.8982 7.75995 86.8575C7.80051 86.8169 7.76393 86.7404 7.67851 86.6875C7.54382 86.6041 7.54425 86.5834 7.68163 86.5308C7.81439 86.48 7.83128 86.2219 7.78621 84.9354C7.75662 84.0913 7.68992 83.3346 7.63795 83.2539C7.57717 83.1594 7.59632 83.0736 7.69175 83.0131C7.80987 82.9381 7.81116 82.9187 7.69788 82.9173C7.61967 82.9164 7.49272 82.8526 7.4158 82.7756C7.30111 82.6607 7.30972 82.5938 7.46378 82.4032C7.61482 82.2164 7.63408 82.0805 7.56211 81.7081C7.51305 81.4536 7.47077 81.2089 7.46819 81.1644C7.46561 81.1199 7.39084 81.0836 7.30208 81.0836C7.21332 81.0836 7.14071 81.0336 7.14071 80.9725C7.14071 80.9113 7.21332 80.8334 7.30208 80.7993C7.49368 80.7256 7.51122 80.5279 7.34124 80.3577C7.19891 80.2151 6.90273 80.4467 6.93296 80.6771C6.97492 80.9962 6.91188 81.0979 6.68348 81.0794C6.12146 81.0338 5.96224 81.079 6.03314 81.264C6.08553 81.4007 6.05863 81.4276 5.92222 81.3751C5.81474 81.3338 5.74148 81.3588 5.74062 81.4372C5.73986 81.5095 5.70996 81.6777 5.67435 81.811C5.62658 81.9893 5.65552 82.0535 5.78333 82.0535C5.9816 82.0535 6.00441 82.1949 5.85229 82.4798C5.76924 82.6354 5.79161 82.688 5.95987 82.732C6.07681 82.7626 6.17246 82.844 6.17246 82.9129C6.17246 82.9887 6.08811 83.0112 5.95794 82.9698C5.78903 82.9161 5.75805 82.9397 5.81227 83.0812C5.85014 83.1799 5.82088 83.2979 5.74739 83.3435C5.67392 83.389 5.60549 83.6023 5.59538 83.8176C5.58086 84.1268 5.6169 84.2089 5.76719 84.2089C6.02668 84.2089 6.0085 84.4936 5.74449 84.5628C5.55181 84.6132 5.53599 84.6921 5.57623 85.4023C5.60646 85.935 5.57322 86.2782 5.47263 86.4731C5.34676 86.7169 5.34686 86.8033 5.47317 87.0472C5.55493 87.205 5.58462 87.3342 5.53922 87.3342C5.49382 87.3342 5.47801 87.4797 5.50404 87.6575C5.53008 87.8353 5.61335 87.9808 5.68909 87.9808C5.895 87.9808 5.96837 88.2767 5.78032 88.3491C5.54998 88.4376 5.50447 88.4277 5.58 88.3053C5.6184 88.2431 5.57257 88.227 5.46972 88.2665C5.32868 88.3207 5.32223 88.3525 5.43723 88.4269C5.55471 88.5028 5.55149 88.5392 5.41937 88.6274C5.28554 88.7168 5.28296 88.7512 5.40399 88.8295C5.50232 88.8931 5.51222 88.9471 5.43433 88.9953C5.37075 89.0348 5.32287 89.2226 5.32814 89.4129C5.33331 89.6033 5.32599 89.8075 5.3119 89.8668C5.25875 90.0905 5.31685 90.1584 5.45972 90.0396C5.57838 89.941 5.60765 89.9686 5.60765 90.179C5.60765 90.3449 5.53352 90.4608 5.40593 90.4942C5.12836 90.5669 5.15235 90.7578 5.44627 90.8145L5.68833 90.8613L5.44627 90.8759C5.11728 90.8958 5.09135 91.4294 5.41937 91.4294C5.53772 91.4294 5.63454 91.4734 5.63454 91.527C5.63454 91.5808 5.54643 91.6017 5.43874 91.5735C5.20152 91.5113 4.95763 91.7775 5.00765 92.0439C5.02766 92.1505 5.15224 92.2853 5.28447 92.3436C5.41669 92.4019 5.51964 92.4989 5.51319 92.5591C5.4836 92.8359 5.54976 92.9158 5.85993 92.9779C6.12394 93.0309 6.23324 92.9946 6.38838 92.8028C6.56406 92.5857 6.6186 92.574 6.92296 92.6889C7.22354 92.8024 7.28831 92.7903 7.49562 92.5826C7.62418 92.4539 7.82687 92.362 7.94607 92.3787C8.10777 92.4013 8.12563 92.3838 8.01676 92.3099C7.91488 92.2407 7.9067 92.1885 7.98986 92.137C8.05538 92.0965 8.10895 91.9744 8.10895 91.8657C8.10895 91.6385 8.31272 91.5372 8.76962 91.5372C8.94574 91.5372 9.06537 91.4973 9.03524 91.4486C8.97414 91.3495 9.34347 90.9983 9.50872 90.9983C9.56724 90.9983 9.61512 90.9323 9.61512 90.8517C9.61512 90.7537 9.70355 90.7218 9.88096 90.7559C10.0846 90.7949 10.2168 90.723 10.4458 90.449C11.0079 89.7766 11.3397 89.4788 11.4504 89.5473C11.6001 89.6401 12.0895 89.3077 12.0895 89.1132C12.0895 89.0191 12.1533 88.982 12.2509 89.0195C12.3582 89.0608 12.4135 89.0144 12.4157 88.8814C12.4211 88.5644 12.6799 88.3041 12.9899 88.3041C13.2485 88.3041 13.2623 88.2841 13.1394 88.0871C13.0206 87.8963 13.0433 87.8369 13.3268 87.5966C13.5043 87.4463 13.8069 87.2523 13.9991 87.1656C14.3914 86.9888 14.4377 86.8559 14.1614 86.701C13.8904 86.5491 14.0827 86.4204 14.5621 86.433C14.8801 86.4414 14.963 86.408 14.9178 86.2899C14.881 86.1939 14.9451 86.1133 15.0879 86.0759C15.214 86.0428 15.317 85.9532 15.317 85.8768C15.317 85.787 15.2315 85.7588 15.075 85.7973L14.8329 85.8567L15.0878 85.6288C15.4352 85.3179 15.7508 85.2304 15.8778 85.4098C15.9535 85.5169 15.9676 85.4933 15.9303 85.3216C15.8937 85.1535 15.9215 85.1034 16.0285 85.1445C16.1106 85.1761 16.1777 85.1444 16.1777 85.0742C16.1777 85.0039 16.3738 84.7577 16.6135 84.5269C16.8532 84.2963 17.041 84.0455 17.031 83.9697C16.9649 83.4678 17.0374 83.3467 17.4048 83.3467C17.7129 83.3467 17.7627 83.3139 17.7174 83.1404C17.6807 82.9997 17.7536 82.8749 17.946 82.7485C18.1014 82.6466 18.2552 82.59 18.2879 82.6227C18.3628 82.6977 18.6996 82.3645 18.8822 82.0348C19.02 81.7858 19.0432 81.7215 19.069 81.5147C19.0764 81.4554 19.1793 81.4069 19.2976 81.4069C19.42 81.4069 19.5128 81.335 19.5128 81.2402C19.5128 81.1486 19.6577 80.9909 19.8349 80.8899C20.2279 80.666 20.2479 80.4829 19.8893 80.3927C19.7414 80.3555 19.6204 80.25 19.6204 80.1583C19.6204 80.0406 19.6836 80.0115 19.8349 80.0596C19.9947 80.1105 20.0339 80.0875 19.9888 79.9697C19.8901 79.7121 19.5198 79.6743 19.3746 79.907C19.3038 80.0207 19.1768 80.1137 19.0924 80.1137C19.008 80.1137 18.9703 80.145 19.0086 80.1834C19.086 80.261 18.3414 80.8603 18.1617 80.8651C18.046 80.8681 17.6839 81.5918 17.6839 81.8203C17.6839 81.8893 17.7624 81.9458 17.8584 81.9458C18.0013 81.9458 18.0088 81.975 17.899 82.1074C17.8253 82.1963 17.6863 82.2698 17.59 82.2707C17.4403 82.2721 17.4378 82.2868 17.5732 82.3726C17.6602 82.4278 17.6939 82.5105 17.648 82.5565C17.5444 82.6602 17.3527 82.3699 17.4358 82.2352C17.4918 82.1444 17.2876 81.9511 17.1316 81.9474C17.0941 81.9465 17.0383 82.0425 17.0074 82.1608C16.9765 82.279 16.8619 82.41 16.7527 82.4518C16.4442 82.5702 16.1721 82.946 16.2129 83.1973C16.2414 83.3731 16.2049 83.4132 16.0524 83.3734C15.9438 83.3449 15.8549 83.2777 15.8549 83.2239C15.8549 83.1702 15.731 83.2076 15.5795 83.307C15.4091 83.4188 15.349 83.5155 15.4218 83.5606C15.6374 83.6941 15.4126 83.9804 15.0658 84.0142C14.7569 84.0441 14.7222 84.0849 14.6919 84.4517C14.6611 84.8252 14.6413 84.8469 14.4336 84.7355C14.2397 84.6316 14.2185 84.6408 14.2802 84.8021C14.335 84.9451 14.3064 84.9773 14.1589 84.9387C13.921 84.8763 13.6627 85.133 13.7457 85.3494C13.7855 85.4534 13.7105 85.5457 13.5308 85.6141C13.1845 85.746 12.9999 85.6479 13.1816 85.4286C13.2554 85.3395 13.3228 85.1135 13.3313 84.9263C13.3563 84.3743 13.3738 84.3167 13.5158 84.3167C13.6455 84.3167 13.9184 83.6276 13.9184 83.2999C13.9184 83.213 13.9887 83.1025 14.0744 83.0545C14.1649 83.0037 14.249 82.7512 14.2745 82.4535C14.2988 82.1711 14.3479 81.9107 14.3837 81.8748C14.4195 81.839 14.4042 81.7261 14.3496 81.6242C14.266 81.4676 14.2918 81.4465 14.5148 81.4892C14.6742 81.5197 14.7791 81.4896 14.7791 81.4132C14.7791 81.3434 14.7307 81.3164 14.6715 81.353C14.3868 81.5293 14.6046 81.106 15.0519 80.6135C15.1833 80.469 15.4183 79.6994 15.402 79.4671C15.3649 78.9357 15.4368 78.6049 15.5893 78.6049C15.68 78.6049 15.7842 78.52 15.8208 78.4163C15.8576 78.3127 15.9484 78.155 16.0228 78.0661C16.097 77.9772 16.1735 77.7589 16.1926 77.5811C16.2118 77.4033 16.3149 77.0955 16.4217 76.8972C16.5285 76.6989 16.5867 76.4443 16.551 76.3314C16.5148 76.2172 16.5368 76.1262 16.6008 76.1262C16.664 76.1262 16.7156 76.005 16.7156 75.8568C16.7156 75.7086 16.7669 75.5874 16.8295 75.5874C16.8922 75.5874 16.9133 75.5386 16.8766 75.4789C16.8398 75.4192 16.9095 75.2298 17.0316 75.0581C17.1537 74.8864 17.2535 74.6927 17.2535 74.6278C17.2535 74.5628 17.3019 74.5097 17.3611 74.5097C17.4203 74.5097 17.4687 74.3982 17.4687 74.2618C17.4687 74.1255 17.5118 73.9678 17.5647 73.9116C17.6174 73.8552 17.7843 73.399 17.9357 72.8976C18.1539 72.1749 18.1841 71.9529 18.0818 71.8262C17.979 71.6988 17.9818 71.6838 18.0956 71.7523C18.2646 71.8543 18.637 71.5009 18.5707 71.3014C18.5466 71.2288 18.6276 71.0058 18.7508 70.8061C18.8741 70.6063 18.9749 70.3086 18.9749 70.1442C18.9749 69.98 19.0466 69.7917 19.1342 69.7259C19.2219 69.6601 19.3114 69.5092 19.3332 69.3907C19.3551 69.2721 19.4001 69.1024 19.4334 69.0135C19.6374 68.4682 19.7045 68.1385 19.6522 67.9382C19.6147 67.7946 19.6598 67.6612 19.7744 67.5773C19.8749 67.5038 19.9605 67.289 19.966 67.0973C19.9714 66.9065 20.0221 66.7504 20.0786 66.7504C20.135 66.7504 20.1555 66.6829 20.1238 66.6006C20.0923 66.5181 20.165 66.3447 20.2855 66.2152C20.4424 66.0464 20.4874 65.8929 20.4437 65.6742C20.403 65.4705 20.4314 65.3501 20.5291 65.3126C20.6097 65.2816 20.7558 64.9014 20.8538 64.4676C20.9517 64.0338 21.1036 63.5685 21.1913 63.4334C21.279 63.2984 21.3252 63.1467 21.2941 63.0962C21.263 63.0459 21.312 62.8552 21.403 62.6724C21.565 62.347 21.5623 61.7315 21.3972 61.335C21.3342 61.1835 21.3739 61.1464 21.5991 61.1464C21.7768 61.1464 21.8796 61.0871 21.8796 60.9847C21.8796 60.8958 21.9202 60.8231 21.9698 60.8231C22.0194 60.8231 22.0665 60.6477 22.0745 60.4334C22.0826 60.219 22.1419 59.98 22.2064 59.9021C22.3407 59.74 22.4427 59.1909 22.424 58.7299C22.417 58.5566 22.4671 58.3803 22.5353 58.338C22.6036 58.2958 22.6809 58.001 22.707 57.6831C22.7763 56.8409 22.7738 56.7008 22.6846 56.4251C22.6214 56.2293 22.6495 56.1645 22.8163 56.1207C23.0336 56.0638 23.0353 56.0557 23.1157 54.6803C23.1482 54.1236 23.2043 53.8562 23.3109 53.7494C23.3521 53.7082 23.3858 53.4498 23.3858 53.1751C23.3858 52.9005 23.4314 52.6297 23.4872 52.5734C23.5705 52.4893 23.615 51.8057 23.5956 50.9084C23.5936 50.8194 23.6442 50.5285 23.7079 50.2617C23.88 49.5414 23.9149 48.9319 23.7926 48.7813C23.732 48.7065 23.7223 48.5645 23.7707 48.458C23.886 48.2038 23.9229 46.1665 23.8122 46.1665C23.7642 46.1665 23.7922 46.0315 23.8744 45.8665C23.9668 45.6809 24.0134 45.3005 23.9966 44.8694C23.9684 44.1486 23.8734 43.8552 23.7023 43.9611C23.6479 43.9948 23.6322 43.9471 23.6674 43.8551C23.7027 43.7631 23.7807 43.6878 23.8407 43.6878C23.9038 43.6878 23.8933 43.6194 23.8161 43.5262C23.7073 43.3948 23.7121 43.3645 23.8418 43.3645C23.973 43.3645 23.9947 43.2077 23.9637 42.4856C23.9429 42.0021 23.9029 41.5836 23.8748 41.5553C23.8467 41.5272 23.862 41.4257 23.9088 41.3298C23.9556 41.2337 23.9633 40.9839 23.9257 40.7744ZM21.2642 79.0629C21.2378 78.9889 21.0628 78.9338 20.8755 78.9407C20.6465 78.9491 20.6054 78.9706 20.75 79.0063C20.8683 79.0354 21.0268 79.1094 21.1022 79.1707C21.2623 79.3009 21.3324 79.2542 21.2642 79.0629ZM21.0189 49.2918C20.9598 49.2918 20.9114 49.2404 20.9114 49.1777C20.9114 49.115 20.9598 49.0935 21.0189 49.1302C21.0781 49.1668 21.1265 49.2181 21.1265 49.2443C21.1265 49.2705 21.0781 49.2918 21.0189 49.2918ZM20.7266 79.5748C20.516 79.5748 20.2659 79.7655 20.2659 79.9261C20.2659 79.9769 20.3263 79.9807 20.4003 79.9342C20.4742 79.8879 20.6032 79.8487 20.6869 79.8471C20.9203 79.8428 20.9593 79.5748 20.7266 79.5748ZM20.5236 30.2953C20.4879 30.2595 20.484 30.1665 20.5151 30.0888C20.5494 30.0028 20.5749 30.0284 20.5801 30.1539C20.5847 30.2675 20.5593 30.3311 20.5236 30.2953ZM20.3734 79.3054C20.3143 79.2688 20.2659 79.3145 20.2659 79.4068C20.2659 79.4992 20.3143 79.5748 20.3734 79.5748C20.4326 79.5748 20.481 79.5293 20.481 79.4734C20.481 79.4176 20.4326 79.3421 20.3734 79.3054ZM20.0443 28.4924C19.9886 28.4924 19.9431 28.444 19.9431 28.3847C19.9431 28.3254 20.0186 28.2769 20.1108 28.2769C20.203 28.2769 20.2486 28.3254 20.2121 28.3847C20.1755 28.444 20.1001 28.4924 20.0443 28.4924ZM20.0032 22.9962C19.9771 22.9962 19.9259 22.9477 19.8893 22.8885C19.8527 22.8292 19.8741 22.7807 19.9368 22.7807C19.9994 22.7807 20.0507 22.8292 20.0507 22.8885C20.0507 22.9477 20.0294 22.9962 20.0032 22.9962ZM18.948 22.7443C18.8739 22.7144 18.9345 22.69 19.0824 22.69C19.2304 22.69 19.2908 22.7144 19.2169 22.7443C19.1429 22.7742 19.0219 22.7742 18.948 22.7443ZM18.1142 21.4875C18.055 21.4875 18.0074 21.4026 18.0082 21.2989C18.0096 21.1377 18.0251 21.1338 18.1142 21.2719C18.2454 21.4753 18.2454 21.4875 18.1142 21.4875ZM17.332 70.4284C17.157 70.2532 17.3208 70.153 17.5048 70.3228C17.5918 70.4031 17.6149 70.4859 17.5563 70.5074C17.4977 70.5289 17.3968 70.4934 17.332 70.4284ZM17.4687 19.4938C17.4095 19.5304 17.3611 19.509 17.3611 19.4462C17.3611 19.3835 17.4095 19.3321 17.4687 19.3321C17.5279 19.3321 17.5763 19.3534 17.5763 19.3796C17.5763 19.4058 17.5279 19.4571 17.4687 19.4938ZM16.6618 82.9157C16.5731 82.9157 16.5004 82.8672 16.5004 82.8079C16.5004 82.7486 16.5731 82.7001 16.6618 82.7001C16.7506 82.7001 16.8232 82.7486 16.8232 82.8079C16.8232 82.8672 16.7506 82.9157 16.6618 82.9157ZM12.735 86.5798C12.6759 86.5798 12.6274 86.5585 12.6274 86.5323C12.6274 86.5061 12.6759 86.4548 12.735 86.4182C12.7942 86.3815 12.8426 86.403 12.8426 86.4657C12.8426 86.5284 12.7942 86.5798 12.735 86.5798ZM7.30208 86.041C7.21332 86.041 7.14071 85.9925 7.14071 85.9332C7.14071 85.8739 7.21332 85.8254 7.30208 85.8254C7.39084 85.8254 7.46346 85.8739 7.46346 85.9332C7.46346 85.9925 7.39084 86.041 7.30208 86.041ZM7.09326 3.92117C7.06712 3.92117 7.01591 3.87267 6.97933 3.8134C6.94275 3.75413 6.96416 3.70563 7.02677 3.70563C7.08939 3.70563 7.14071 3.75413 7.14071 3.8134C7.14071 3.87267 7.1194 3.92117 7.09326 3.92117ZM6.97933 86.6876C6.89057 86.6876 6.81796 86.6391 6.81796 86.5798C6.81796 86.5205 6.73727 86.472 6.63861 86.472C6.54007 86.472 6.4894 86.442 6.52608 86.4052C6.62291 86.3082 7.14071 86.4571 7.14071 86.5819C7.14071 86.6401 7.06809 86.6876 6.97933 86.6876ZM6.49779 82.8121C6.36417 82.5955 6.47541 82.4583 6.65325 82.6204C6.74738 82.7061 6.76298 82.7924 6.69692 82.8609C6.62926 82.9311 6.56083 82.9143 6.49779 82.8121ZM6.67024 83.7665C6.51436 83.8962 6.17246 83.822 6.17246 83.6585C6.17246 83.6056 6.24508 83.5623 6.33383 83.5623C6.42259 83.5623 6.49521 83.4836 6.49521 83.3875C6.49521 83.2443 6.52436 83.2368 6.65658 83.3467C6.85658 83.513 6.8597 83.609 6.67024 83.7665ZM6.57406 90.7962C6.46863 90.6897 6.481 90.6774 6.63431 90.7358C6.74039 90.7763 6.8001 90.8366 6.76696 90.8698C6.73393 90.903 6.64711 90.8699 6.57406 90.7962ZM6.41452 81.727C6.16073 81.7242 6.14556 81.708 6.3078 81.6133C6.41183 81.5526 6.54491 81.5328 6.60365 81.5691C6.78364 81.6805 6.72393 81.7303 6.41452 81.727ZM6.16611 85.1788C6.04432 85.1788 5.9745 85.1303 6.01108 85.0711C6.04766 85.0118 6.14728 84.9633 6.2326 84.9633C6.31791 84.9633 6.38762 85.0118 6.38762 85.0711C6.38762 85.1303 6.28789 85.1788 6.16611 85.1788ZM6.01108 87.6575C5.92233 87.6575 5.84971 87.5863 5.84971 87.4992C5.84971 87.4028 5.91275 87.3652 6.01108 87.4029C6.09984 87.4371 6.17246 87.5083 6.17246 87.5613C6.17246 87.6142 6.09984 87.6575 6.01108 87.6575ZM5.47058 1.97918C5.38043 1.90417 5.32879 1.82065 5.35579 1.79349C5.43045 1.71881 5.63454 1.87065 5.63454 2.00084C5.63454 2.0724 5.57279 2.06421 5.47058 1.97918ZM4.61885 2.95125C4.5927 2.95125 4.5415 2.90275 4.50492 2.84348C4.46834 2.78421 4.48975 2.73571 4.55236 2.73571C4.61497 2.73571 4.66629 2.78421 4.66629 2.84348C4.66629 2.90275 4.64499 2.95125 4.61885 2.95125Z" fill="white"/>
</svg>
